<?xml version="1.0" encoding="UTF-8" standalone="no"?>
<!-- Created with Inkscape (http://www.inkscape.org/) -->

<svg
   width="64"
   height="64"
   viewBox="0 0 16.933333 16.933333"
   version="1.1"
   id="svg1"
   inkscape:version="1.3.2 (091e20e, 2023-11-25)"
   sodipodi:docname="icon.svg"
   inkscape:export-filename="icon.png"
   inkscape:export-xdpi="96"
   inkscape:export-ydpi="96"
   xmlns:inkscape="http://www.inkscape.org/namespaces/inkscape"
   xmlns:sodipodi="http://sodipodi.sourceforge.net/DTD/sodipodi-0.dtd"
   xmlns="http://www.w3.org/2000/svg"
   xmlns:svg="http://www.w3.org/2000/svg">
  <sodipodi:namedview
     id="namedview1"
     pagecolor="#ffffff"
     bordercolor="#999999"
     borderopacity="1"
     inkscape:showpageshadow="2"
     inkscape:pageopacity="0"
     inkscape:pagecheckerboard="0"
     inkscape:deskcolor="#d1d1d1"
     inkscape:document-units="mm"
     inkscape:zoom="4.7283843"
     inkscape:cx="111.03158"
     inkscape:cy="-13.32379"
     inkscape:window-width="1920"
     inkscape:window-height="1281"
     inkscape:window-x="1105"
     inkscape:window-y="42"
     inkscape:window-maximized="0"
     inkscape:current-layer="layer1" />
  <defs
     id="defs1" />
  <g
     inkscape:label="Layer 1"
     inkscape:groupmode="layer"
     id="layer1">
    <path
       id="path21"
       style="fill:#db3a35;fill-opacity:1;stroke:none;stroke-width:0.222369;stroke-opacity:1"
       d="m 11.792365,3.6641288 c -0.0765,-0.00787 -0.187681,0.025171 -0.246939,0.073404 -0.05926,0.048227 -0.106178,0.073324 -0.104365,0.055692 0.0018,-0.017633 -0.125095,0.0096 -0.281971,0.060577 -0.09108,0.029585 -0.177927,0.047567 -0.256702,0.053859 -0.02209,-0.0185 -0.06916,-0.024557 -0.111943,-0.012233 -0.01062,0.00303 -0.01668,0.00608 -0.02186,0.00915 -0.02691,-0.00325 -0.05351,-0.00717 -0.07678,-0.014293 -0.353063,-0.1092405 -0.47757,0.0092 -0.481788,0.4584831 -8.42e-4,0.086532 -0.01173,0.1682666 -0.02783,0.2459743 -0.0106,0.015754 -0.016,0.041087 -0.01501,0.068149 -0.04884,0.1799976 -0.136233,0.3240897 -0.2451058,0.4018123 -0.0059,-0.012441 -0.02539,-0.024044 -0.05407,-0.026996 -0.0342,-0.00352 -0.06524,0.023249 -0.06897,0.05948 -8.42e-4,0.00799 4.33e-4,0.014581 0.0023,0.020384 -0.01741,0.00401 -0.03441,0.010003 -0.05237,0.010743 -0.318552,0.013342 -0.5505318,0.5055467 -0.341782,0.7252175 0.01601,0.016853 0.02919,0.035844 0.04101,0.055693 -0.01353,0.00847 -0.01893,0.04075 -0.01136,0.089767 0.01087,0.070313 0.03046,0.1289638 0.04358,0.1303134 0.0075,7.902e-4 0.0131,-0.00388 0.01794,-0.010748 -0.0032,0.1171863 -0.05067,0.2372178 -0.141962,0.3170543 C 9.293528,6.4905987 9.2548452,6.5638714 9.2445891,6.640181 9.2306161,6.619499 9.2034141,6.617291 9.1542681,6.632791 9.1172391,6.644518 9.0489089,6.652329 8.9748336,6.65734 8.9500016,6.644854 8.9099546,6.642014 8.8733956,6.65246 c -0.010203,0.00292 -0.015808,0.00595 -0.021003,0.0089 -0.010269,-1.094e-4 -0.021074,0.00127 -0.031004,9.731e-4 -0.1288748,-0.00379 -0.2460404,0.00353 -0.3549656,0.017952 -0.0027,-0.00217 -0.00283,-0.0039 -0.00745,-0.00635 -0.040967,-0.021655 -0.1109951,-0.028863 -0.1555109,-0.015999 -0.042429,0.012241 -0.010263,0.028462 0.066524,0.037617 -0.3452523,0.066634 -0.5718087,0.2313894 -0.6438925,0.4822981 -0.028434,0.098953 -0.078947,0.1864669 -0.1122999,0.1945567 -0.1448132,0.035131 -0.086423,0.589291 0.075924,0.720456 0.1114092,0.090008 0.092247,0.5068907 -0.013183,0.8725082 -0.017016,0.00612 -0.041298,0.035194 -0.067134,0.086224 -0.026933,0.05317 -0.019165,0.079232 0.018311,0.061066 4.844e-4,-1.647e-4 7.903e-4,-7.648e-4 0.00127,-9.731e-4 -0.022069,0.059206 -0.046209,0.1156814 -0.072872,0.1668323 -0.047034,0.090237 -0.068782,0.1658261 -0.048339,0.1679307 0.020442,0.00212 0.00217,0.038125 -0.040647,0.080118 -0.042802,0.041993 -0.065429,0.091761 -0.050167,0.1105297 0.00982,0.012092 -0.013457,0.043348 -0.047851,0.078284 0.00333,-0.016331 -0.034045,-0.00967 -0.1185242,0.031757 -0.055319,0.027132 -0.095225,0.05806 -0.1044871,0.078284 -0.00906,-0.00848 -0.017171,-0.02006 -0.025146,-0.036516 -0.024829,-0.051287 -0.07808,-0.071385 -0.126581,-0.047876 -0.052136,0.025263 -0.065717,0.017035 -0.035887,-0.021736 0.059671,-0.077553 -0.05319,-0.1322881 -0.2394905,-0.1161473 -0.1565033,0.013559 -0.3233315,0.2960321 -0.2767227,0.4686176 0.020664,0.07653 0.00722,0.08936 -0.048703,0.04629 -0.058436,-0.04502 -0.071871,-0.02444 -0.055053,0.08452 0.012275,0.07924 0.00842,0.126886 -0.00875,0.105881 -0.017075,-0.02099 -0.081963,0.0096 -0.1441563,0.06815 -0.062197,0.0585 -0.1982797,0.109718 -0.3023562,0.113705 -0.025297,9.64e-4 -0.035141,-1.09e-4 -0.053342,-1.09e-4 -0.00885,-0.0083 -0.022296,-0.01422 -0.038694,-0.01734 0.033147,-0.01433 0.04933,-0.04423 0.035032,-0.07376 -0.016567,-0.03422 -0.058502,-0.04847 -0.093257,-0.03163 -0.034762,0.01684 -0.055679,0.0081 -0.046506,-0.01942 0.039384,-0.118291 -0.047646,-0.260681 -0.1295116,-0.228022 0.031393,-0.03529 0.023728,-0.08991 -0.025266,-0.1855174 -0.015308,-0.029868 -0.026509,-0.04513 -0.03479,-0.045679 -0.00362,-0.1012371 -0.067484,-0.1597289 -0.2191072,-0.2233783 0.044202,0.011784 0.091832,0.027248 0.1307325,0.045679 0.081631,0.038665 0.094485,0.031545 0.050413,-0.02772 C 5.3827839,9.580952 5.1364142,9.5056483 5.1285237,9.5823934 c -0.00107,0.010365 0.00308,0.020098 0.0094,0.029312 -0.089233,-0.027818 -0.1296179,-0.023565 -0.1103471,0.016244 0.018841,0.038926 -0.00299,0.049831 -0.050899,0.025526 C 4.8663804,9.5975684 4.6483054,9.867556 4.6872605,10.01181 c 0.021496,0.07958 0.00901,0.09481 -0.044309,0.05373 -0.055705,-0.0429 -0.066797,-0.02098 -0.044309,0.08732 0.014913,0.07184 0.012552,0.10656 -0.0066,0.107354 3.57e-4,-0.06327 -0.011915,-0.109291 -0.033446,-0.111507 -0.029296,-0.003 -0.052061,0.01582 -0.050659,0.04189 0.00141,0.02607 -0.00436,0.06088 -0.012698,0.07731 -0.021521,0.04234 -0.035824,0.08933 -0.046629,0.135688 -0.028985,-0.02515 -0.02885,-0.01034 -0.00878,0.04312 -0.012111,0.07623 -0.00875,0.142802 0.017699,0.163169 0.00574,0.0044 0.00989,0.0052 0.014293,0.0065 -0.010406,-0.0022 -0.024491,-0.0082 -0.043214,-0.01771 -0.059845,-0.03033 -0.098703,-0.007 -0.1135186,0.06827 -0.012382,0.06292 -0.033014,0.155745 -0.045896,0.20628 -0.00637,0.02501 -0.011967,0.05333 -0.018788,0.08366 -0.00638,0.0027 -0.00975,0.0031 -0.017695,0.0069 -0.036367,0.01762 -0.069152,0.06534 -0.072871,0.106133 -0.00201,0.02174 0.00329,0.0313 0.013787,0.02968 -6.884e-4,-2.55e-4 -0.00145,5.5e-5 -0.00212,-2.55e-4 -0.024792,-0.01093 -0.1192825,0.02177 -0.2099528,0.07267 -0.035139,0.01972 -0.05615,0.03634 -0.07568,0.05215 -0.074076,0.0022 -0.1716166,-0.0025 -0.2830683,-0.01465 0.017177,-0.0095 0.00665,-0.01728 -0.052489,-0.02589 -0.037811,-0.0055 -0.082886,-0.0029 -0.1257262,0.0038 -0.2301205,-0.03373 -0.4069901,-0.04821 -0.391828,-0.02956 0.00415,0.0051 0.018271,0.01098 0.030272,0.01674 -0.201636,-0.08957 -0.4754489,0.01184 -0.455912,0.145947 -0.061538,0.0623 -0.067267,0.121738 -0.00171,0.134346 -0.00571,-3.31e-4 -0.00898,4.34e-4 -0.015744,-2.55e-4 -0.050826,-0.0052 -0.078048,0.01896 -0.076046,0.05984 -0.017018,0.0064 -0.0411,0.03516 -0.066771,0.08586 -0.025897,0.05115 -0.018866,0.07618 0.015004,0.06192 -0.00102,5.87e-4 -0.00185,0.0017 -0.00304,0.0023 -0.054977,0.02664 -0.063567,0.01277 -0.026733,-0.04348 0.029794,-0.0455 -0.022894,-0.0092 -0.1171825,0.08048 -0.028673,0.02731 -0.057539,0.0492 -0.085568,0.06803 -0.025168,0.0019 -0.080696,0.01607 -0.159905,0.03994 -0.026993,-0.01718 -0.045278,-0.01118 -0.047971,0.01453 -0.019204,0.0061 -0.029367,0.0084 -0.051023,0.01539 -0.082946,0.02695 -0.1677579,0.04616 -0.2376603,0.05569 -2.703e-4,-4.84e-4 6.06e-5,-6.63e-4 -2.703e-4,-9.43e-4 -0.018533,-0.02281 -0.071921,-0.03045 -0.118647,-0.01711 -0.017447,0.005 -0.024839,0.01009 -0.027709,0.01515 -0.046083,-0.0225 -0.086582,-0.01189 -0.090329,0.02455 -0.00113,0.01103 0.00435,0.02014 0.014891,0.02748 -0.071347,-0.01529 -0.1656397,0.01952 -0.2559703,0.09893 -3.06e-4,2.55e-4 -6.603e-4,4.84e-4 -9.684e-4,6.63e-4 -0.030906,-6.63e-4 -0.079763,0.0048 -0.1645438,0.02492 -0.11416103,0.02709 -0.17600343,0.06355 -0.13744523,0.08097 0.02559,0.01155 0.075178,0.0099 0.12707003,-9.44e-4 -0.035757,0.01355 -0.069212,0.0224 -0.092769,0.01978 -0.09482,-0.01056 -0.096654,-0.02009 -0.012205,-0.06314 0.0547,-0.02788 0.067586,-0.05447 0.028685,-0.05899 -0.0389,-0.0045 -0.12915991,0.03526 -0.20055268,0.08843 -0.071393,0.05316 -0.083639,0.0731 -0.027221,0.04433 0.033337,-0.017 0.048261,-0.01813 0.048582,-0.0076 -0.015339,0.0014 -0.051264,0.017 -0.10949237,0.04555 -0.071125,0.03488 -0.1181643,0.07721 -0.1044878,0.09405 0.013677,0.01682 9.203e-4,0.06024 -0.028442,0.09661 -0.029355,0.03637 0.016811,0.0014 0.1025346,-0.07792 0.043611,-0.04031 0.074726,-0.0701 0.099117,-0.09453 -0.051875,0.06044 -0.1489467,0.152561 -0.2686653,0.249515 -0.208206,0.168619 -0.23953617,0.458611 -0.064328,0.594781 0.1831283,0.142325 0.46170777,0.229471 0.55368665,0.173184 0.00106,-6.63e-4 0.00279,-4.84e-4 0.0039,-0.0012 0.00663,0.04201 0.1506802,0.119752 0.2745245,0.137152 0.025185,0.0036 0.031535,-0.0041 0.022338,-0.01916 0.011168,0.01678 0.00629,0.02637 -0.018554,0.02406 -0.052016,-0.0048 -0.013762,0.07424 0.091915,0.190159 0.036721,0.04028 0.063864,0.07627 0.0863,0.110286 -0.00475,-0.0021 -0.00891,-0.0053 -0.014038,-0.0068 -0.040623,-0.01238 -0.046526,-0.0052 -0.013063,0.01589 0.033465,0.02108 0.042442,0.0623 0.019896,0.0916 -0.022544,0.0293 -0.00904,0.05656 0.030028,0.06058 0.010888,0.0012 0.019708,-2.54e-4 0.027221,-0.0031 -0.00177,0.0095 -0.00119,0.02009 -0.00549,0.02858 -0.032837,0.06485 -0.023373,0.08408 0.035765,0.07536 -0.00463,0.0077 -0.00828,0.01624 -0.00928,0.02601 -0.00318,0.03093 0.014874,0.07117 0.039916,0.09257 -0.01012,0.05261 9.381e-4,0.116775 0.029295,0.18283 -0.032519,0.0354 -0.029371,0.04122 0.00793,0.01942 0.034882,0.07272 0.089643,0.145454 0.1611258,0.203594 0.038495,0.03131 0.064892,0.04917 0.087521,0.06082 0.032297,0.01898 0.089817,0.0382 0.165276,0.05105 0.2204644,0.03755 0.224307,0.03482 0.1227962,-0.08488 -0.076672,-0.09042 -0.1146594,-0.103368 -0.1417163,-0.04837 -0.00997,0.02027 -0.024504,0.03449 -0.039793,0.0414 0.00361,-0.0049 0.00634,-0.0069 0.010254,-0.01246 0.067092,-0.0955 0.076811,-0.09449 0.1787051,0.01879 0.059251,0.06588 0.1475068,0.123388 0.1961569,0.127872 0.070883,0.0066 0.07194,-0.0046 0.0071,-0.05984 0.036536,0.01711 0.094162,0.0347 0.1747965,0.04788 0.062726,0.01026 0.1106276,0.0087 0.1365909,-6.62e-4 0.0053,0.0093 0.00885,0.01846 0.00609,0.0276 -0.01209,0.03998 0.059051,0.173083 0.1580733,0.295802 0.021872,0.02711 0.029381,0.03996 0.045532,0.06156 -0.00819,-9.43e-4 0.00469,0.02274 0.04077,0.08 0.00529,0.0084 0.012631,0.01409 0.018553,0.0221 -0.00271,-0.0014 -0.00245,6.62e-4 -0.00671,-0.0025 -0.054477,-0.04123 -0.069937,-0.03743 -0.046261,0.01149 0.016925,0.03494 0.060772,0.05485 0.1037551,0.05154 0.025961,0.02363 0.051333,0.03975 0.069697,0.04164 0.035702,0.0037 0.054015,-0.0024 0.040771,-0.01357 -0.00312,-0.0026 -0.024761,-0.02229 -0.032714,-0.02931 0.028438,0.0068 0.053564,0.02269 0.064939,0.04617 0.018824,0.03887 0.062117,0.07354 0.096311,0.07706 0.034189,0.0036 0.046241,-0.02664 0.026732,-0.06692 -0.024157,-0.0499 0.00774,-0.05448 0.099848,-0.01441 0.085838,0.03731 0.1234924,0.03436 0.1029006,-0.0082 -0.019665,-0.04061 0.016297,-0.04882 0.091183,-0.02077 0.084459,0.03164 0.1206647,0.01853 0.1142528,-0.04128 -0.00141,-0.013 0.00158,-0.02468 0.0077,-0.03518 0.017962,0.01191 0.050378,0.02163 0.093993,0.0276 -0.00717,0.01016 0.012234,0.02004 0.061152,0.02711 0.065272,0.0094 0.1034869,-0.0014 0.084959,-0.0243 -6.118e-4,-6.63e-4 -0.00178,-0.0012 -0.00245,-0.0018 0.042667,-0.0048 0.074593,-0.01279 0.081417,-0.02601 4.332e-4,0.0025 0.00332,0.0046 0.00305,0.0072 -0.00375,0.03649 0.030218,0.07021 0.075437,0.07486 0.080978,0.0084 0.3682558,0.497802 0.3569163,0.608094 -0.0032,0.03114 0.022202,0.0595 0.056394,0.06302 0.034193,0.0036 0.059263,0.03409 0.055785,0.06791 -0.00912,0.08876 0.1700613,0.33247 0.2504752,0.340746 0.031639,0.0033 0.048686,-0.04682 0.054441,-0.146678 -7.903e-4,0.02598 1.27e-4,0.04659 -8.412e-4,0.07365 -0.00281,0.0775 0.023542,0.147181 0.058592,0.154864 0.047144,0.01033 0.095325,0.01846 0.1434267,0.02662 0.04941,0.02843 0.1093886,0.05349 0.1589271,0.05898 0.096664,0.01073 0.1089173,-0.0021 0.060177,-0.02907 0.1407278,0.01394 0.2780475,0.01869 0.4004964,0.0116 0.1814398,-0.01049 0.3018085,0.01484 0.3763253,0.07938 0.060249,0.05218 0.1290134,0.0791 0.1528277,0.05973 l -1.7e-6,-1.1e-4 c 0.00479,-0.0039 0.00855,-0.01243 0.01282,-0.01869 -0.013694,0.112393 0.019459,0.133871 0.1400082,0.17367 0.1786282,0.05898 0.4692997,-0.02339 0.6759956,-0.191625 0.1233649,-0.100407 0.4642638,-0.09698 0.5231713,0.0052 0.06514,0.113052 0.1797432,0.106005 0.2319227,-0.01415 0.028438,-0.06552 0.07949,-0.116218 0.1133988,-0.112727 0.033906,0.0035 0.047268,-0.02347 0.029661,-0.05984 -0.017608,-0.03639 -0.0024,-0.06308 0.033812,-0.05936 0.03622,0.0038 0.062383,-0.02891 0.058227,-0.07255 -3.315e-4,-0.0034 0.00222,-0.0053 0.00252,-0.0085 0.010268,-0.0021 0.018915,-0.0039 0.033325,-0.0077 0.038121,-0.01021 0.065062,-0.0254 0.078487,-0.04054 0.023275,6.63e-4 0.04908,0.0027 0.079218,0.0072 l 1.5e-6,1.1e-4 c 0.1106103,0.01648 0.2011039,0.02576 0.2009178,0.02063 -1.654e-4,-0.0033 -0.027098,-0.178715 -0.047848,-0.314123 0.00275,0.01791 0.00607,0.0386 0.00854,0.05484 0.036783,0.241962 0.2022042,0.426902 0.4264955,0.476803 0.033779,0.0075 0.051207,0.04615 0.038694,0.08586 -0.023553,0.0748 0.2086068,0.295735 0.3052864,0.291773 -0.010172,0.02292 0.025459,0.04899 0.086543,0.05997 0.050638,0.0091 0.079252,0.0093 0.097164,0.0056 -0.0014,0.0065 -0.0045,0.01326 -0.0099,0.02028 -0.02464,0.03204 0.01273,0.0642 0.08313,0.07144 0.0704,0.0072 0.131127,-0.01674 0.134882,-0.05325 3.31e-4,-0.0029 0.0026,-0.0043 0.0035,-0.0068 -0.0017,0.0048 -0.0038,0.0094 -0.0044,0.01477 -0.0037,0.03623 0.02295,0.05146 0.05932,0.03384 0.03406,-0.0165 0.06142,-0.04038 0.06628,-0.05582 0.0035,0.0014 0.0063,0.0016 0.0099,0.0033 0.09401,0.04086 0.11712,0.03342 0.0874,-0.02797 -0.0267,-0.05514 -0.01684,-0.06531 0.02893,-0.03005 0.08967,0.06907 0.6618691,-0.220379 0.9328161,-0.471794 0.259096,-0.240419 0.322403,-0.408601 0.322251,-0.856387 -1.7e-5,-0.06473 0.0025,-0.120583 0.0064,-0.172084 0.01125,0.0097 0.02361,-0.02361 0.03052,-0.09087 0.0045,-0.04388 0.0039,-0.07421 -7.9e-4,-0.08843 0.04714,-0.155872 0.147567,-0.212919 0.34239,-0.227776 0.311744,-0.02377 0.463716,-0.08737 0.4752,-0.199074 0.0051,-0.05011 0.03433,-0.08863 0.06482,-0.08549 0.03048,0.0032 0.07776,-0.05584 0.105099,-0.131168 0.05766,-0.158826 0.22557,-0.251594 0.459084,-0.266493 0.02864,0.0069 0.0677,0.0066 0.11169,-6.63e-4 0.05867,0.0021 0.119346,0.007 0.183953,0.0182 0.06008,0.01035 0.118855,0.0161 0.17492,0.01966 -0.0059,9.44e-4 -0.01111,9.44e-4 -0.01733,0.0026 -0.05331,0.01441 -0.0981,0.03711 -0.09948,0.05056 -0.0014,0.01345 0.03953,0.0288 0.09082,0.03407 0.05129,0.0053 0.09595,-0.01754 0.09936,-0.05068 0.0016,-0.01624 -0.0075,-0.02791 -0.02332,-0.03419 0.05615,0.0016 0.106118,5.5e-5 0.142696,-0.006 0.06398,0.01598 0.106365,0.0016 0.16149,-0.04971 0.124638,-0.116058 0.343167,-0.452358 0.316393,-0.486941 -0.0057,-0.0073 0.0014,-0.02287 0.01637,-0.0414 -0.0353,0.04635 -0.01032,0.06874 0.07104,0.02931 0.03879,-0.01879 0.07333,-0.0616 0.07678,-0.09515 0.0035,-0.03354 -0.03649,-0.02893 -0.08886,0.01026 0.05237,-0.03919 0.09395,-0.05895 0.0924,-0.04385 -0.01353,0.131589 0.628273,-0.150775 0.740081,-0.325602 0.07199,-0.112569 0.131492,-0.209853 0.132196,-0.216175 0.01542,-0.138392 -0.334799,-0.818402 -0.497416,-0.965817 -0.0316,-0.02865 -0.03718,-0.0504 -0.01233,-0.04837 0.02485,0.0021 0.02578,-0.06904 0.002,-0.157914 -0.02875,-0.107806 -0.02166,-0.159401 0.02124,-0.154986 0.03535,0.0037 0.05231,-0.0181 0.03772,-0.04824 -0.0146,-0.03015 0.06538,-0.136838 0.177727,-0.237057 0.238703,-0.212938 0.262204,-0.312531 0.115839,-0.492558 -0.05879,-0.07232 -0.09416,-0.14183 -0.07861,-0.154496 0.01555,-0.01266 -0.01669,-0.08136 -0.07165,-0.152665 -0.08764,-0.113711 -0.05953,-0.487899 0.0514,-0.6828368 0.0085,-0.014876 0.103389,-0.176567 0.210927,-0.3594334 0.2622,-0.4458592 0.292533,-0.9777248 0.0719,-1.2613764 -0.190496,-0.2448978 -0.285452,-0.5708204 -0.282213,-0.9615425 0.0076,-0.012185 0.01487,-0.041527 0.01953,-0.086959 0.0071,-0.06899 0.0012,-0.1036727 -0.01256,-0.09392 0.01382,-0.2073808 0.01975,-0.3768539 0.01221,-0.3776301 -0.008,-8.158e-4 -0.01479,-0.069374 -0.01526,-0.1524217 -5.1e-4,-0.091131 -0.132765,-0.2993911 -0.333482,-0.5252891 -0.332563,-0.3742843 -0.33253,-0.3742547 -0.495461,-0.2199571 -0.119296,0.1129747 -0.160349,0.2065228 -0.153314,0.349419 0.0087,0.175472 0.113512,0.554067 0.19689,0.7649105 -0.0062,0.00285 -0.0148,0.015324 -0.02868,0.043722 -0.01221,0.024993 -0.03599,0.059409 -0.06408,0.09453 0.06269,-0.1026103 0.03353,-0.2254098 -0.06531,-0.5498375 -0.124964,-0.4101751 -0.06695,-0.6675977 0.189078,-0.8390434 0.0321,-0.021497 0.0612,-0.090911 0.08801,-0.1761138 0.0066,0.019017 0.01749,0.039859 0.03405,0.060088 0.05513,0.067294 0.06295,0.060982 0.03833,-0.031144 -0.01326,-0.049608 -0.03496,-0.082751 -0.05396,-0.087325 0.103744,-0.3926845 0.144359,-1.1214965 0.0144,-1.0585143 -0.03299,0.015991 -0.04109,-0.00836 -0.01794,-0.054104 0.115376,-0.2278711 -0.301961,-0.3607567 -0.668307,-0.2127541 -0.155453,0.0628 -0.25496,0.1295699 -0.283681,0.1777023 0.0023,-0.00825 0.0038,-0.015861 0.0087,-0.025771 0.0333,-0.06577 0.01625,-0.082333 -0.06287,-0.060944 -0.0078,0.00214 -0.01562,0.00224 -0.02344,0.00329 -7.9e-4,-0.015854 -0.0235,-0.045826 -0.05407,-0.06937 -0.03202,-0.024654 -0.06134,-0.015105 -0.06506,0.021129 -2.56e-4,0.00258 6.88e-4,0.00491 6.88e-4,0.00746 -0.06624,-0.1261434 -0.721559,-0.58097 -0.858671,-0.5950827 z M 10.194413,4.077179 c -0.004,-0.00209 -0.009,-8.413e-4 -0.01464,0.00379 -0.02278,0.018539 -0.03055,0.071963 -0.01722,0.118713 0.01475,0.051666 0.03106,0.038446 0.0415,-0.03371 0.0071,-0.048953 0.0026,-0.08279 -0.0096,-0.088789 z m 2.69495,0.3682278 c 0.01106,0.00183 0.02109,0.00431 0.03601,0.00465 0.0216,5.607e-4 0.03854,0.00444 0.05236,0.013302 -0.01408,-0.00882 -0.03142,-0.012738 -0.05359,-0.013189 -0.01415,-2.55e-4 -0.02434,-0.00261 -0.03478,-0.00477 z m 0.09302,0.020147 c 0.0026,0.00194 0.0043,0.0054 0.0067,0.00781 -0.0023,-0.00237 -0.0041,-0.00587 -0.0067,-0.00781 z m 0.940265,0.5417771 c -0.0034,-1.096e-4 -0.0078,0.00678 -0.01318,0.02126 -0.0216,0.057877 -0.03365,0.169754 -0.02676,0.2486584 l -1.09e-4,-4e-7 c 0.0069,0.078906 0.02465,0.031499 0.03943,-0.1052772 0.01102,-0.1025888 0.01064,-0.1644809 6.12e-4,-0.1646341 z m -0.103144,0.6948068 c -0.04094,0.00788 -0.101424,0.047363 -0.173944,0.1171239 -0.132716,0.1276644 -0.132662,0.1277169 0.0078,0.032121 0.07733,-0.052633 0.157339,-0.074935 0.177849,-0.049707 0.02053,0.02523 0.0407,0.013169 0.0448,-0.026748 0.0059,-0.05692 -0.01558,-0.080674 -0.05652,-0.07279 z m -1.058426,0.010383 c -0.0037,-3.824e-4 -0.0073,0.00278 -0.0111,0.0089 V 5.721313 c 0.0038,-0.00613 0.0074,-0.00916 0.01112,-0.00879 z m -0.04504,0.1427724 c -0.01388,0.086599 -0.02597,0.2048369 -0.03293,0.3364639 0.0068,-0.1314534 0.01895,-0.2499076 0.03293,-0.3364639 z M 9.2394991,6.7850855 c -0.00627,0.042592 -0.020333,0.071657 -0.040159,0.069616 -0.025868,-0.00266 -0.065027,0.2554407 -0.1039992,0.5949037 0.036826,-0.3318504 0.072938,-0.598092 0.096798,-0.5956359 0.018424,0.00189 0.03486,-0.02904 0.04736,-0.068884 z m 4.4312019,0.245119 c 0.02731,0.067352 0.05238,0.1181312 0.06994,0.1319035 -0.0029,0.00112 -0.0045,7.393e-4 -0.0074,0.00209 -0.03636,0.017615 -0.06311,-0.018804 -0.05945,-0.080972 0.0019,-0.032886 -4.85e-4,-0.043002 -0.0031,-0.053007 z m 0.862142,0.070847 c -0.004,-0.00209 -0.0091,-8.413e-4 -0.01478,0.00378 -0.02278,0.018539 -0.03055,0.071961 -0.01722,0.1187123 0.01475,0.051666 0.03106,0.038446 0.0415,-0.033709 0.0071,-0.048953 0.0027,-0.08279 -0.0095,-0.088789 z m -0.899619,0.093186 c 0.0058,-0.0013 0.01201,-0.0013 0.01831,4.334e-4 0.01697,0.00451 0.04055,0.00513 0.06274,0.00647 -0.0093,0.00248 -0.01882,0.00614 -0.02746,0.00622 -0.01963,1.096e-4 -0.0536,0.014656 -0.08789,0.032852 1.11e-4,-7.138e-4 8.67e-4,-0.00158 9.63e-4,-0.00226 0.0024,-0.022922 0.01601,-0.03962 0.03333,-0.043721 z m -0.163078,0.070468 c -0.07356,0.069565 -0.07516,0.080703 -0.0061,0.063394 -0.03733,0.026039 -0.07143,0.050088 -0.104122,0.072424 -0.03765,0.02573 -0.06243,0.074391 -0.07727,0.1359313 -0.003,-0.042099 -0.0085,-0.075157 -0.01733,-0.089276 0.03367,-0.041327 0.07904,-0.082581 0.137812,-0.1283608 0.0254,-0.019792 0.04661,-0.037045 0.06701,-0.054106 z m 1.036088,0.039448 c -0.0039,0.00102 -0.0087,0.00647 -0.01405,0.016731 -0.02165,0.04099 -0.02884,0.110936 -0.01599,0.1554752 0.01287,0.044542 0.03051,0.01103 0.0393,-0.074501 0.0066,-0.064154 0.0024,-0.1007411 -0.0092,-0.097708 z m -1.233345,0.4706957 c 0.01166,0.104168 0.04018,0.2197166 0.08569,0.3354968 0.02139,0.054423 0.03502,0.1068715 0.04516,0.15816 -0.01121,0.00356 -0.03282,0.078666 -0.06018,0.2017613 0.0131,-0.1627385 -0.0088,-0.3472426 -0.0697,-0.5047703 -0.01782,-0.04609 -0.03241,-0.087503 -0.04455,-0.12604 0.01875,0.025024 0.03342,0.00717 0.04358,-0.064608 z m -0.977006,0.4335695 c 0.0093,7.647e-4 0.02238,0.00584 0.0393,0.014406 0.0085,0.00427 0.01633,0.006 0.02391,0.0046 -0.0076,0.00158 -0.01549,-1.642e-4 -0.02393,-0.00436 -0.0169,-0.00858 -0.02994,-0.013748 -0.0393,-0.014523 z m 0,0 c -0.0093,-7.649e-4 -0.01511,0.00279 -0.01733,0.011355 l 10e-7,-1.093e-4 c 0.0023,-0.00856 0.008,-0.012035 0.01732,-0.011234 z m 1.117258,0.1094349 c 0.01568,0.117155 0.0019,0.2232655 -0.03423,0.3144841 0.01144,-0.049094 0.0219,-0.1062477 0.02722,-0.1697626 0.0057,-0.067011 0.0073,-0.1119595 0.0069,-0.1447278 z m -0.959675,0.2533025 c 4.1e-5,4.843e-4 1.65e-4,9.731e-4 3.31e-4,0.00147 -5.5e-5,-4.844e-4 -1.66e-4,-9.731e-4 -3.31e-4,-0.00147 z m 0.857873,0.077677 c -0.0041,0.04754 -0.0022,0.082714 0.0066,0.095387 -0.05379,0.074065 -0.126092,0.1318332 -0.213249,0.167686 -0.0042,-0.00693 -0.03353,-0.00675 -0.06654,-0.00542 0.08822,-0.014344 0.16625,-0.054053 0.215324,-0.1267727 0.02432,-0.036018 0.04284,-0.081351 0.05786,-0.130802 z m -0.741911,0.1245723 c 0.09273,0.078322 0.226752,0.1293811 0.35582,0.1374005 -0.133789,0.00242 -0.26501,-0.053394 -0.35582,-0.1374005 z m -0.106685,0.053496 c 0.03419,0.00352 0.101284,0.037889 0.149163,0.076331 4.33e-4,2.549e-4 4.33e-4,4.844e-4 6.88e-4,7.648e-4 -0.03013,-0.010867 -0.06037,-0.022464 -0.09119,-0.037128 -0.04146,-0.019733 -0.06337,-0.029449 -0.07629,-0.033953 0.0021,-0.00439 0.007,-0.00719 0.01758,-0.0061 z m -0.0182,0.013926 c 0.0073,0.00907 0.02407,0.023955 0.07299,0.063997 0.0058,0.00471 0.01034,0.00988 0.0155,0.014783 -0.01555,-0.00968 -0.03177,-0.018237 -0.04541,-0.029188 -0.02586,-0.020763 -0.04,-0.038083 -0.04309,-0.049587 z m 2.455948,0.1839303 c -0.004,-0.00209 -0.0091,-8.412e-4 -0.01478,0.00377 -0.02278,0.018536 -0.03055,0.07196 -0.01722,0.1187099 0.01475,0.051666 0.03107,0.038446 0.0415,-0.033709 0.0071,-0.048954 0.0027,-0.082791 -0.0095,-0.088789 z M 8.9818101,9.3299645 c 8.157e-4,8.923e-4 0.00115,0.00524 0.00197,0.00562 h -1.105e-4 c -6.883e-4,-3.314e-4 -0.00118,-0.00474 -0.00184,-0.00562 z m 0.027223,0.027602 c 0.02072,0.029419 0.027845,0.078726 0.02356,0.1249411 -0.00427,0.046215 -0.020029,0.089276 -0.045044,0.1061322 0.025026,-0.016853 0.040756,-0.059918 0.045044,-0.1061322 0.00428,-0.046216 -0.00283,-0.095522 -0.02356,-0.1249411 z m -0.097164,0.2704 c -0.013595,0.021386 -0.0237,0.051768 -0.027219,0.08598 -0.00248,0.024087 -0.00711,0.04356 -0.01489,0.05911 -0.00778,0.015551 -0.018765,0.027093 -0.033812,0.035177 0.015054,-0.00809 0.026042,-0.019626 0.033812,-0.035177 0.00778,-0.015551 0.012295,-0.035033 0.014767,-0.05911 0.00352,-0.034214 0.013764,-0.064593 0.027338,-0.08598 z M 7.2407977,9.8162941 c -0.00609,0.00356 -0.011612,0.00597 -0.017087,0.00867 0.00568,-0.0026 0.011153,-0.00549 0.017087,-0.00867 z M 9.432108,10.058236 c -0.03073,0.01378 -0.05343,0.02089 -0.0653,0.01966 0.01186,0.0013 0.03457,-0.0059 0.0653,-0.01966 z m -3.9531958,0.0095 c 0.00462,0.03918 0.014791,0.06563 0.027831,0.07475 -0.025061,0.0059 -0.03318,-0.017 -0.027831,-0.07475 z m 2.7194849,0.01588 c -0.074567,0.08073 -0.137802,0.171869 -0.1790674,0.261484 0.041266,-0.08962 0.1044933,-0.18075 0.1790674,-0.261484 z m 1.054886,0.04592 c 0.030345,0.03029 0.052384,0.04773 0.064087,0.05166 -0.01171,-0.004 -0.03374,-0.02134 -0.064087,-0.05166 z m 1.8672249,0.05581 c -0.0093,0.03568 -0.01358,0.07081 -0.01272,0.109916 -8.92e-4,-0.03911 0.0033,-0.07425 0.01272,-0.109916 z m 1.424379,0.07817 c -0.01867,0.313213 -0.03893,0.598472 -0.07019,0.967284 0.03127,-0.368766 0.05154,-0.654116 0.07019,-0.967284 z m -7.9841473,0.166588 c 0.019826,0.08269 0.010661,0.091 -0.038938,0.0436 0.013672,-8.67e-4 0.026994,-0.0161 0.038938,-0.0436 z m -0.06982,0.170496 c -1.379e-4,0.0033 1.711e-4,0.0075 -8.413e-4,0.0096 9.433e-4,-0.0021 4.334e-4,-0.0066 8.413e-4,-0.0096 z m 3.5318276,0.313512 c 0.041515,0.303176 0.057048,0.565719 0.053708,0.869578 0.00334,-0.303859 -0.012193,-0.566402 -0.053708,-0.869578 z m -3.7973199,0.140002 c -0.010297,0.03178 -0.029944,0.05212 -0.050779,0.04555 0.011059,-0.0025 0.027663,-0.01657 0.048458,-0.0425 0.0011,-0.0013 0.00138,-0.0018 0.00222,-0.0031 z M 4.066132,11.177451 c 0.01252,1.65e-4 0.017595,0.01157 0.015255,0.03432 -1.545e-4,0.0015 -0.00122,0.0027 -0.00138,0.0041 8.667e-4,-0.02468 -0.00913,-0.03427 -0.029539,-0.0298 0.00426,-0.0014 0.012366,-0.0087 0.015614,-0.0087 z m -0.9445394,0.0193 c 0.014329,0.0045 0.026188,0.0089 0.043211,0.01344 -0.01436,-0.0038 -0.02853,-0.0083 -0.043211,-0.01344 z m 0.9524732,0.03749 c -0.015875,0.03844 -0.063166,0.06293 -0.1378103,0.07462 0.068193,-0.01361 0.1230639,-0.04358 0.1378103,-0.07462 z m -0.6468209,0.03236 c 0.1488295,0.02634 0.3057218,0.04634 0.4094058,0.04922 -0.064122,8.41e-4 -0.1366337,-0.0024 -0.2252101,-0.01367 -0.1204123,-0.01531 -0.1775256,-0.0251 -0.1841957,-0.03554 z m 5.9232021,0.161945 c 0.0044,-0.0018 0.0087,0.0039 0.01281,0.01588 -0.0041,-0.01205 -0.0084,-0.01775 -0.01281,-0.01588 z m -6.695753,0.0081 c -4.231e-4,0.0058 -0.00407,0.0098 -0.0089,0.01271 0.00426,-0.0034 0.00723,-0.0075 0.0089,-0.01271 z m -0.018924,0.01869 c -2.223e-4,5.4e-5 -7.112e-4,5.4e-5 -0.0012,1.09e-4 2.223e-4,-1.09e-4 7.112e-4,-3.4e-5 0.0012,-1.09e-4 z m 8.266848,0.07426 c -0.02616,0.02971 -0.04716,0.06034 -0.06286,0.09173 -0.0157,0.03138 -0.02612,0.06352 -0.03136,0.09648 -0.0053,0.03296 -0.0052,0.06679 -1.66e-4,0.101245 0.0052,0.03447 0.01561,0.06963 0.03125,0.105523 -0.01562,-0.03589 -0.02605,-0.07106 -0.03125,-0.105523 -0.0052,-0.03447 -0.0051,-0.06828 1.66e-4,-0.101245 0.0053,-0.03296 0.01567,-0.0651 0.03136,-0.09648 0.0157,-0.03138 0.0367,-0.06201 0.06286,-0.09173 z m -9.0105771,0.406066 c -0.044077,0.01347 -0.095202,0.01999 -0.1473322,0.02479 0.047669,-0.005 0.0976,-0.01373 0.1473322,-0.02479 z m -0.1910315,0.02943 c -0.013878,4.85e-4 -0.026956,0.0021 -0.040525,0.0016 0.013182,-2.55e-4 0.026437,-6.63e-4 0.040525,-0.0016 z m 7.8379146,0.221425 c 5.1e-5,-10e-6 5.5e-5,4.84e-4 1.1e-4,4.84e-4 -0.0032,6.63e-4 -0.0077,0.0095 -0.01331,0.02809 -0.02272,0.07498 -0.0374,0.214802 -0.03291,0.31082 0.0012,0.02393 0.0032,0.03812 0.0059,0.04323 0.0026,0.0048 0.0058,6.63e-4 0.0094,-0.01099 -0.0036,0.01174 -0.0068,0.01544 -0.0094,0.01099 -0.0028,-0.0047 -0.0048,-0.01859 -0.006,-0.04323 -0.0045,-0.09601 0.01033,-0.235839 0.03291,-0.310832 l -1.1e-4,-1.09e-4 c 0.0057,-0.01874 0.01006,-0.02783 0.01331,-0.02834 z m -1.4216911,0.08854 c 0.00673,6.63e-4 0.012603,0.0091 0.018056,0.02186 -0.00564,-0.01238 -0.011604,-0.02108 -0.018067,-0.02175 z m 0.026245,0.04788 c 8.157e-4,0.0037 0.00184,0.0062 0.00268,0.01026 -8.412e-4,-0.0035 -0.00178,-0.0071 -0.00268,-0.01026 z m 3.2779301,0.41122 c 0.04198,0.171842 0.01018,0.305274 -0.113521,0.412927 0.01779,-0.01778 0.03258,-0.03605 0.04431,-0.05508 0.06971,-0.1131 0.09022,-0.235004 0.06921,-0.357845 z m -0.114618,0.414026 c -0.0015,0.0014 -0.0036,0.0028 -0.0053,0.0042 0.0015,-0.0014 0.0038,-0.0028 0.0053,-0.0042 z m -0.577857,0.240966 c -0.09932,0.02402 -0.20832,0.04694 -0.330918,0.06876 0.125449,-0.02233 0.231874,-0.04525 0.330918,-0.06876 z m -2.5395596,0.129704 c 0.00628,0.572943 -0.012555,0.738547 -0.088255,0.755629 0.047543,-0.01125 0.076892,-0.356842 0.088255,-0.755629 z m 1.4548946,0.07975 c 0.0031,0.04402 0.0019,0.08032 -0.0043,0.102471 0.0062,-0.02214 0.0074,-0.05845 0.0043,-0.102471 z m -4.268126,0.04226 c 0.00912,0.02094 0.020351,0.0406 0.035157,0.05874 0.016048,0.01966 0.035474,0.03814 0.058347,0.05618 -0.022908,-0.01806 -0.042298,-0.0365 -0.058347,-0.05618 -0.014824,-0.01817 -0.026038,-0.03775 -0.035157,-0.05874 z m 4.230162,0.07768 c 0.0082,0.0063 0.01504,0.0076 0.02063,0.0044 -0.0056,0.0032 -0.01243,0.0019 -0.02063,-0.0044 z m -0.06652,0.01148 c -0.0033,0.03196 -0.03248,0.143824 -0.06482,0.24854 0.03237,-0.104714 0.06153,-0.216584 0.06482,-0.24854 z m -4.0598828,0.03286 c 0.020779,0.01569 0.043073,0.03115 0.069212,0.04702 0.1774722,0.107793 0.2028023,0.13758 0.1640557,0.305818 0.035751,-0.164581 0.0123,-0.198626 -0.165398,-0.30655 -0.025642,-0.01558 -0.047419,-0.03086 -0.067869,-0.04629 z m -3.8467558,0.176928 c 0.033626,-0.0039 0.029596,0.0092 -0.00145,0.03908 -0.00341,-0.01461 -0.00882,-0.02691 -0.016356,-0.03554 0.00534,-9.43e-4 0.01358,-0.0031 0.017822,-0.0036 z m 10.8972266,0.134467 c 0.03037,0.0024 0.05737,0.0069 0.08191,0.01272 -0.02549,-0.0049 -0.04998,-0.01038 -0.08191,-0.01272 z m -0.169548,0.02224 c -0.0087,0.0061 -0.01308,0.01288 -0.01246,0.02051 6.89e-4,0.0076 -0.0012,0.01552 -0.0045,0.02321 0.0036,-0.0077 0.0052,-0.01545 0.0045,-0.02309 -6.89e-4,-0.0076 0.0039,-0.01464 0.01257,-0.02063 z m 0.54038,0.06143 c 0.03285,0.0019 0.06752,0.01205 0.104244,0.02589 -0.06923,-0.0025 -0.132179,-0.0082 -0.1881,-0.01796 0.02871,-0.0065 0.05629,-0.0096 0.08385,-0.0079 z m -4.8606248,0.14265 h 1.103e-4 c -0.029802,0.02264 -0.039499,0.05452 -0.033444,0.0883 -0.00605,-0.03378 0.00353,-0.06565 0.033322,-0.0883 z m -0.013155,0.139467 c 0.010299,0.0169 0.024073,0.03341 0.040526,0.04848 h -1.104e-4 c -0.016451,-0.01505 -0.030101,-0.03158 -0.040402,-0.04848 z m -5.6943306,0.08219 c 0.00221,-4.84e-4 0.00805,2.55e-4 0.010733,-1.1e-5 -0.010236,0.0021 -0.015891,0.0054 -0.020494,0.0088 6.221e-4,-0.0039 0.00325,-0.0071 0.00976,-0.0088 z m 2.255271,0.01526 c 0.00711,0.114942 0.00922,0.208052 0.00403,0.258552 0.00519,-0.0505 0.00308,-0.14361 -0.00403,-0.258552 z m 3.6877053,0.02442 h 1.104e-4 c 0.00652,-2.54e-4 0.011759,0.0085 0.015737,0.02479 -0.00401,-0.01628 -0.00936,-0.02515 -0.015877,-0.02479 z m -2.6806681,0.04458 c -0.084222,0.415719 -0.02122,0.545753 0.2518201,0.817306 0.082735,0.08228 0.1500932,0.158239 0.2065348,0.231564 -0.013705,0.0024 -0.028001,0.0071 -0.043943,0.01649 6.628e-4,-0.01331 -0.019494,-0.03998 -0.045775,-0.06021 -0.00367,-0.0028 -0.00715,-0.0029 -0.010732,-0.0041 0.00827,2.55e-4 0.017052,0.003 0.026002,0.0089 0.035049,0.02321 -0.059951,-0.09165 -0.2110521,-0.255256 C 5.5252842,15.09809 5.4867952,15.068522 5.5954117,14.606525 Z m -3.5028073,0.01075 c -0.021507,-0.0031 -0.04658,-0.0019 -0.069943,0.0049 -0.051635,0.01475 -0.038427,0.03108 0.033691,0.04153 0.065258,0.0094 0.1034856,-0.0014 0.084957,-0.0243 -0.00927,-0.01139 -0.027198,-0.019 -0.048705,-0.02209 z m 2.6062096,0.576341 c -0.00407,0.08251 0.00662,0.145082 0.025756,0.180023 -0.019834,-0.03341 -0.030001,-0.09377 -0.025756,-0.180023 z m 1.2079554,0.471183 c -0.00237,0.03007 0.00548,0.05035 0.019285,0.05789 -0.016792,6.63e-4 -0.023979,-0.01612 -0.019897,-0.05582 1.104e-4,-9.43e-4 6.118e-4,-0.0012 6.883e-4,-0.0021 z m 5.1626135,0.06901 c -0.004,-0.0018 -0.0091,-9.43e-4 -0.01477,0.0037 -0.02278,0.01856 -0.03055,0.07196 -0.01722,0.118713 0.01475,0.05166 0.03107,0.03845 0.0415,-0.0337 0.0071,-0.04896 0.0027,-0.08268 -0.0095,-0.08867 z m -6.2271407,0.04506 c 0.00277,0.06746 0.00354,0.141862 0.00293,0.224354 -3.569e-4,-0.01983 2.549e-4,-0.03531 -6.118e-4,-0.05752 -0.00269,-0.06898 -9.731e-4,-0.101614 -0.00232,-0.166829 z m 1.4078979,0.312412 c 0.00505,0.04076 0.00678,0.08251 0.00513,0.125184 -6.883e-4,-0.0416 -0.00102,-0.08313 -0.00513,-0.125184 z m -0.4867961,0.353205 c -0.013452,6.63e-4 -0.0261,0.0028 -0.037228,0.006 -0.044515,0.01286 -0.011033,0.03065 0.07446,0.03945 0.085489,0.0088 0.1218949,-0.0018 0.080929,-0.02344 -0.030725,-0.01624 -0.077789,-0.02437 -0.11816,-0.02198 z m -0.5315922,0.0048 c -0.033762,-0.0039 -0.07026,-0.0039 -0.1013131,9.43e-4 -0.06211,0.0095 -0.029087,0.02701 0.073361,0.03884 0.1024478,0.01182 0.1532484,0.004 0.1129102,-0.01734 -0.020177,-0.01068 -0.051196,-0.01846 -0.084958,-0.02235 z"
       inkscape:export-filename="peppr.png"
       inkscape:export-xdpi="181.02"
       inkscape:export-ydpi="181.02" />
    <path
       style="fill:#088b05;fill-opacity:1;stroke:#ffffff;stroke-width:0.294175;stroke-dasharray:none;stroke-opacity:1"
       d="m 9.662277,2.1714693 c 0.555494,-1.4366237 2.069748,-0.8763714 2.069748,-0.8763714 0,0 1.038525,0.086569 1.428958,-0.72482951 0.390439,-0.81139714 1.728444,-0.20555416 1.728444,-0.20555416 0,0 0.205929,2.16319187 0.05124,1.53542537 -0.154684,-0.627768 -0.10474,1.0642819 0.916113,1.3543346 1.020853,0.2900542 0.528268,1.8524851 0.528268,1.8524851 0,0 0.391255,1.0212328 -0.885137,0.6978228 -1.276389,-0.3234111 -1.390202,1.837241 -2.432139,0.2312905 -1.041937,-1.6059506 -2.31232,-0.7232271 -2.31232,-0.7232271 0,0 -2.0606738,-0.2199983 -1.21948,-1.4037372 0.841189,-1.1837392 0.126304,-1.737639 0.126305,-1.737639 z"
       id="path28" />
  </g>
</svg>
