<?xml version="1.0" encoding="UTF-8" standalone="no"?>
<svg
   width="2900"
   height="900"
   viewBox="0 0 2900 900"
   version="1.1"
   xml:space="preserve"
   style="clip-rule:evenodd;fill-rule:evenodd;stroke-linejoin:round;stroke-miterlimit:2"
   id="svg42"
   sodipodi:docname="logo.svg"
   inkscape:version="1.3.2 (091e20e, 2023-11-25)"
   xmlns:inkscape="http://www.inkscape.org/namespaces/inkscape"
   xmlns:sodipodi="http://sodipodi.sourceforge.net/DTD/sodipodi-0.dtd"
   xmlns="http://www.w3.org/2000/svg"
   xmlns:svg="http://www.w3.org/2000/svg"><sodipodi:namedview
   id="namedview42"
   pagecolor="#ffffff"
   bordercolor="#999999"
   borderopacity="1"
   inkscape:showpageshadow="2"
   inkscape:pageopacity="0"
   inkscape:pagecheckerboard="0"
   inkscape:deskcolor="#d1d1d1"
   inkscape:zoom="0.54562263"
   inkscape:cx="2131.5098"
   inkscape:cy="800.91986"
   inkscape:window-width="3440"
   inkscape:window-height="1387"
   inkscape:window-x="0"
   inkscape:window-y="25"
   inkscape:window-maximized="0"
   inkscape:current-layer="g6" />
    <g
   transform="matrix(1.8839498,0,0,1.8850242,-6916.0902,-248.35107)"
   id="g6">
                <g
   transform="matrix(339.863,0,0,339.863,4117.8424,471.16093)"
   id="g1">
                    <path
   d="m 0.39,-0.546 c 0.05,0 0.096,0.011 0.137,0.034 0.041,0.023 0.073,0.056 0.096,0.097 0.023,0.042 0.035,0.091 0.035,0.146 0,0.055 -0.012,0.104 -0.035,0.145 C 0.6,-0.082 0.568,-0.049 0.527,-0.027 0.486,-0.003 0.44,0.008 0.39,0.008 0.321,0.008 0.267,-0.014 0.228,-0.057 V 0.194 H 0.072 v -0.732 h 0.149 v 0.062 C 0.26,-0.523 0.316,-0.546 0.39,-0.546 Z M 0.363,-0.12 c 0.04,0 0.073,-0.013 0.099,-0.041 C 0.487,-0.188 0.5,-0.224 0.5,-0.269 0.5,-0.314 0.487,-0.351 0.462,-0.378 0.436,-0.405 0.403,-0.418 0.363,-0.418 c -0.04,0 -0.073,0.013 -0.098,0.04 -0.026,0.027 -0.039,0.064 -0.039,0.109 0,0.045 0.013,0.081 0.039,0.108 0.025,0.028 0.058,0.041 0.098,0.041 z"
   style="fill:#5abf95;fill-opacity:1;fill-rule:nonzero"
   id="path1" />
                </g>
                <g
   transform="matrix(339.863,0,0,339.863,4342.1524,471.16093)"
   id="g2">
                    <path
   d="m 0.599,-0.267 c 0,0.002 -0.001,0.016 -0.003,0.042 H 0.189 c 0.007,0.033 0.025,0.06 0.052,0.079 0.027,0.019 0.061,0.029 0.102,0.029 0.028,0 0.053,-0.004 0.075,-0.013 0.021,-0.008 0.041,-0.021 0.06,-0.039 l 0.083,0.09 C 0.51,-0.021 0.436,0.008 0.339,0.008 0.278,0.008 0.225,-0.004 0.178,-0.028 0.131,-0.051 0.095,-0.084 0.07,-0.126 0.045,-0.168 0.032,-0.216 0.032,-0.269 c 0,-0.053 0.013,-0.1 0.038,-0.143 0.024,-0.042 0.059,-0.075 0.103,-0.099 0.043,-0.023 0.092,-0.035 0.146,-0.035 0.053,0 0.1,0.011 0.143,0.034 0.043,0.023 0.076,0.055 0.101,0.097 0.024,0.043 0.036,0.092 0.036,0.148 z M 0.32,-0.428 c -0.035,0 -0.065,0.01 -0.089,0.03 -0.024,0.02 -0.039,0.047 -0.044,0.082 H 0.452 C 0.447,-0.35 0.432,-0.377 0.408,-0.398 0.384,-0.418 0.355,-0.428 0.32,-0.428 Z"
   style="fill:#5abf95;fill-opacity:1;fill-rule:nonzero"
   id="path2" />
                </g>
                <g
   transform="matrix(339.863,0,0,339.863,4546.4124,471.16093)"
   id="g3">
                    <path
   d="m 0.39,-0.546 c 0.05,0 0.096,0.011 0.137,0.034 0.041,0.023 0.073,0.056 0.096,0.097 0.023,0.042 0.035,0.091 0.035,0.146 0,0.055 -0.012,0.104 -0.035,0.145 C 0.6,-0.082 0.568,-0.049 0.527,-0.027 0.486,-0.003 0.44,0.008 0.39,0.008 0.321,0.008 0.267,-0.014 0.228,-0.057 V 0.194 H 0.072 v -0.732 h 0.149 v 0.062 C 0.26,-0.523 0.316,-0.546 0.39,-0.546 Z M 0.363,-0.12 c 0.04,0 0.073,-0.013 0.099,-0.041 C 0.487,-0.188 0.5,-0.224 0.5,-0.269 0.5,-0.314 0.487,-0.351 0.462,-0.378 0.436,-0.405 0.403,-0.418 0.363,-0.418 c -0.04,0 -0.073,0.013 -0.098,0.04 -0.026,0.027 -0.039,0.064 -0.039,0.109 0,0.045 0.013,0.081 0.039,0.108 0.025,0.028 0.058,0.041 0.098,0.041 z"
   style="fill:#5abf95;fill-opacity:1;fill-rule:nonzero"
   id="path3" />
                </g>
                <g
   transform="matrix(339.863,0,0,339.863,4770.7224,471.16093)"
   id="g4">
                    <path
   d="m 0.39,-0.546 c 0.05,0 0.096,0.011 0.137,0.034 0.041,0.023 0.073,0.056 0.096,0.097 0.023,0.042 0.035,0.091 0.035,0.146 0,0.055 -0.012,0.104 -0.035,0.145 C 0.6,-0.082 0.568,-0.049 0.527,-0.027 0.486,-0.003 0.44,0.008 0.39,0.008 0.321,0.008 0.267,-0.014 0.228,-0.057 V 0.194 H 0.072 v -0.732 h 0.149 v 0.062 C 0.26,-0.523 0.316,-0.546 0.39,-0.546 Z M 0.363,-0.12 c 0.04,0 0.073,-0.013 0.099,-0.041 C 0.487,-0.188 0.5,-0.224 0.5,-0.269 0.5,-0.314 0.487,-0.351 0.462,-0.378 0.436,-0.405 0.403,-0.418 0.363,-0.418 c -0.04,0 -0.073,0.013 -0.098,0.04 -0.026,0.027 -0.039,0.064 -0.039,0.109 0,0.045 0.013,0.081 0.039,0.108 0.025,0.028 0.058,0.041 0.098,0.041 z"
   style="fill:#5abf95;fill-opacity:1;fill-rule:nonzero"
   id="path4" />
                </g>
                <g
   transform="matrix(339.863,0,0,339.863,4995.0324,471.16093)"
   id="g5">
                    <path
   d="m 0.39592216,-0.467 c 0.019,-0.026 0.044,-0.046 0.076,-0.059 0.031,-0.013 0.068,-0.02 0.109,-0.02 v 0.144 c -0.017,-0.001 -0.029,-0.002 -0.035,-0.002 -0.045,0 -0.08,0.012 -0.105,0.037 -0.025,0.026 -0.038,0.063 -0.038,0.113 V 0 h -0.156 v -0.538 h 0.149 z"
   style="fill:#5abf95;fill-opacity:1;fill-rule:nonzero"
   id="path5" />
                </g>
            <path
   d="m 5008.8913,329.46262 -3.4002,-96.51004 h 45.2224 l -3.7402,96.51004 z"
   id="text1"
   style="font-weight:bold;font-size:339.921px;font-family:Montserrat;-inkscape-font-specification:'Montserrat Bold';text-align:center;text-anchor:middle;fill:#5abf95;stroke-width:0"
   aria-label="pepp'r"
   sodipodi:nodetypes="ccccc" /></g><g
   id="g7"
   transform="matrix(0.820625,0,0,0.58243398,-2089.1819,-80.9995)"><path
     d="m 3482.0898,604.19546 c 3.0233,14.14191 4.19,30.84313 1.3819,50.06152 -5.8769,40.06234 -23.3574,68.71173 -30.4731,97.01899 -7.2259,28.71254 -1.7735,57.6153 10.3822,64.54282 11.7289,6.6771 55.1189,49.38639 18.6078,155.80993 -26.0631,75.92278 6.3767,61.00238 -5.7096,112.16448 -14.6935,62.1967 -69.6341,65.9647 -42.6321,120.2034 32.2048,64.6572 -16.2965,94.0683 -47.1296,113.577 -52.6575,33.3557 -38.3541,92.9818 -55.2648,109.935 -48.0072,48.1082 -86.1504,2.3712 -102.7561,79.4133 -30.7977,142.879 -64.97,85.1104 -114.8336,79.4115 -18.065,-2.0741 -38.2701,71.4287 -77.6156,40.0172 -37.6468,-30.0717 -38.5679,24.3902 -80.7113,38.2482 -89.7981,29.5575 -65.176,-77.7743 -165.1657,-44.4506 -62.3267,20.7685 -73.2741,-59.6978 -116.1301,-66.9095 -47.9447,-8.0831 -83.3593,-15.1603 -81.514,-88.2135 1.6764,-65.9357 -37.7314,-112.0897 15.0754,-152.947 44.5055,-34.4352 23.7251,-107.9267 76.0286,-110.2038 51.7085,-2.2475 101.7788,-11.217 119.0386,-53.3368 33.8616,-82.6503 82.1781,-35.2202 95.7611,-22.3952 33.332,31.4991 29.2586,-7.6824 38.1138,-62.4102 4.9259,-30.3923 49.0209,-26.7171 59.5333,-42.5937 45.9674,-69.48353 -11.246,-78.2789 -15.8984,-139.81488 -2.9,-38.56441 16.7294,-61.114 25.9954,-85.34259 17.9092,-46.87369 -16.8067,-73.39811 -17.292,-110.92461 -0.8193,-64.03009 20.4968,-61.20599 15.2893,-111.73864 -4.6425,-45.10092 12.6776,-62.30606 33.6482,-70.54061 0,0 4.6961,3.95 6.226,7.01829 3.5622,7.16618 9.2023,16.21667 15.166,36.05991 2.2501,7.48108 10.1848,24.40958 20.6839,32.5502 11.8273,9.1872 27.1865,17.59662 54.7157,12.57064 4.1427,-0.75942 7.7023,-1.05333 10.8091,-0.75136 0.9518,0.0975 2.2213,0.42946 3.0044,0.65549 0.838,3.08002 4.036,14.83575 5.6049,21.14796 7.0143,28.42924 15.2667,44.71652 23.452,55.52463 9.671,12.75525 19.9009,19.07041 31.6545,23.57103 26.8357,10.26066 48.3906,6.52844 64.7926,-10.07236 18.7274,23.8424 40.0046,41.34122 59.6506,42.73662 47.0044,3.31884 69.9538,-29.43853 77.8983,-63.371 1.0693,-4.58659 2.6726,-9.79912 3.9615,-13.74787 12.078,1.02904 32.5185,0.45929 46.3028,-12.22878 7.2076,-6.64807 14.3631,-16.11691 20.3481,-30.24511 z"
     style="fill:url(#_Linear1);stroke-width:1.40899"
     id="path6" /><g
     clip-path="url(#_clip2)"
     id="g14"
     transform="matrix(1.17883,-0.192141,0.136293,1.66187,-2035.96,-8241.88)">
                    <g
   transform="rotate(58.810664,-2255.7511,5771.496)"
   id="g8">
                        <path
   d="m 925.48,1207.38 c -0.169,-1.47 -2.581,10.33 -2.531,12.6 0.233,10.6 4.225,20.58 13.051,28.11 25.392,21.67 33.044,-3.1 54.067,0 15.893,2.33 7.2,18.39 26.133,21.94 26.23,4.9 31.38,-14.66 41.38,-27.09 12.25,-15.22 40.19,4.71 48.58,-26.49 5.47,-20.37 -11.72,-30.64 -19.32,-45.83 -4.46,-8.94 17.73,-26.73 17.93,-36.65 0.5,-25.46 -15.99,-50.2 -27.05,-71.99"
   style="fill:url(#_Linear3)"
   id="path8" />
                    </g>
                    <g
   transform="matrix(-0.973064,0.922188,0.859474,0.910318,3089.74,3949.12)"
   id="g9">
                        <path
   d="m 594.987,1655.8 c -0.712,-0.38 0.587,1.51 1.018,2.19 1.278,2.02 2.603,4.02 3.918,6.01 3.497,5.32 8.23,9.76 12.933,13.99 14.37,12.92 27.251,18.25 45.848,13.74 14.948,-3.62 34.907,-29.63 46.898,-30.5 17.368,-1.27 13.236,20.72 33.863,19.19 13.685,-1.02 25.681,-22.58 39.94,-17.99 23.75,7.64 20.664,51.17 52.526,32.64 15.453,-8.99 9.181,-31.33 21.875,-40.05 10.356,-7.11 21.305,5.41 31.491,5.41 12.581,0 16.794,-12.28 25.983,-17.84 12.764,-7.72 28.559,-9.38 29.81,-31.9 1.701,-30.6 -26.665,-21 -42.819,-37.97 -10.584,-11.12 3.59,-23.04 -2.23,-35.3 -9.671,-20.37 -36.495,-20.22 -61.452,0.33"
   style="fill:url(#_Linear4)"
   id="path9" />
                    </g>
                    <g
   transform="matrix(0.978173,-0.357728,0.357127,0.981304,2094.88,4648.06)"
   id="g10">
                        <path
   d="m 1048.72,1618.7 c -5.69,11.69 -39.7,36.27 -55.98,47.21 -15.674,10.53 -37.378,4.31 -42.728,28.38 -1.398,6.29 0.4,12.38 4.96,16.94 14.027,14.03 31.935,2.36 48.508,5.03 12.92,2.08 6.84,18.02 16.59,21.48 13.54,4.79 28.77,-6.28 42.26,-0.32 17.63,7.78 16.48,33.86 34.91,39.64 18.77,5.89 35.56,-0.96 45.39,-12.42 12.33,-14.36 27.63,9.13 45.25,2.46 18.29,-6.93 -2.61,-40.96 9.97,-69.5 2.54,-5.74 8.91,-20.59 6.72,-27.17"
   style="fill:url(#_Linear5)"
   id="path10" />
                    </g>
                    <g
   transform="rotate(-7.765966,-6220.6618,6820.7989)"
   id="g11">
                        <path
   d="m 3684.69,7401.32 c -0.95,16.08 -11.33,28.07 -15.14,40.68 -4.91,16.28 18.04,37.3 37.37,28.85 15.13,-6.62 18.91,-13.24 25.06,-25.54 6.15,-12.3 26.96,4.73 38.78,8.04 11.83,3.31 36.89,-8.51 34.53,-20.34 -2.37,-11.82 -1.89,-16.08 -16.55,-17.5 -14.66,-1.42 -35.48,-12.29 -35.95,-20.33"
   style="fill:url(#_Linear6)"
   id="path11" />
                    </g>
                    <g
   transform="rotate(34.245498,6345.4364,6495.108)"
   id="g12">
                        <path
   d="m 3654.84,7374.25 c -0.95,16.08 18.52,55.14 14.71,67.75 -4.91,16.28 12.93,29.73 32.26,21.27 15.13,-6.62 44.52,-8.3 55.55,-2.9 18.93,9.27 47.87,-15.3 47.93,-27.36 0.13,-28.79 -30.89,-45.71 -20.22,-90.91"
   style="fill:url(#_Linear7)"
   id="path12" />
                    </g>
                    <g
   transform="matrix(-1.12458,-0.2615,-0.261368,1.12812,5140.01,4431.21)"
   id="g13">
                        <path
   d="m 1031.64,1652.69 c -22.19,-25.61 -22.62,2.28 -38.9,13.22 -15.674,10.53 -27.611,-2.28 -32.961,21.78 -1.398,6.29 0.4,12.38 4.959,16.94 14.028,14.03 22.169,8.96 38.742,11.63 12.92,2.08 6.84,18.02 16.59,21.48 13.54,4.79 28.77,-6.28 42.26,-0.32 17.63,7.78 16.48,33.86 34.91,39.64 55.94,17.56 87.2,-34.32 100.61,-79.46 1.79,-6.02 8.91,-20.59 6.72,-27.17"
   style="fill:url(#_Linear8)"
   id="path13" />
                    </g>
                </g></g><g
   transform="matrix(4.0320999,0,0,4.0078913,644.8698,14)"
   id="g21">
                <path
   d="m 0.725,74.724 c -3.214,-0.162 -6.505,-2.887 -9.422,-5.873 -1.795,-1.837 -4.92,-1.22 -5.901,-0.076 -1.935,2.257 -4.853,2.448 -8.582,1.43 -2.656,-0.725 -4.758,-1.771 -6.631,-7.191 -1.368,-3.956 -2.188,-8.713 -11.158,-7.544 -11.089,1.446 -7.548,-6.375 -12.339,-9.101 -3.121,-1.775 -2.289,-6.384 -0.768,-8.588 2.303,-3.339 5.446,-1.662 6.565,-3.343 1.119,-1.681 0.619,-2.273 0.768,-6.083 0.214,-5.514 4.519,-9.516 10.237,-9.516 1.242,0 2.479,0.193 3.674,0.572 0.995,0.316 1.937,0.659 2.824,0.982 1.181,0.431 2.13,1.131 3.262,1.021 5.756,-0.558 3.942,-4.345 6.004,-6.603 2.636,-2.888 4.364,-0.801 5.519,-5.038 0.265,-0.971 -0.412,-2.351 0.156,-3.841 C -13.198,1.029 -9.74,0 -7.168,0 c 0.631,0 1.297,0.063 1.981,0.188 0.833,0.152 1.546,0.516 2.371,0.937 1.234,0.631 2.769,1.416 4.553,1.416 0.433,0 0.851,-0.044 1.281,-0.137 C 3.506,2.3 7.76,1.468 8.247,1.468 c 2.69,0 5.116,1.631 6.487,4.365 2.053,4.093 -1.404,7.432 -5.363,10.095 -3.185,2.142 -5.288,5.483 -3.141,9.992 0.844,1.774 3.951,1.898 5.137,2.111 3.537,0.637 5.338,2.644 6.227,4.214 1.511,2.675 1.607,6.242 0.26,9.785 -0.744,1.96 -1.331,3.85 -0.299,5.279 1.057,1.464 5.113,1.523 6.643,3.504 1.208,1.562 2.95,4.398 1.364,8.348 -2.729,6.798 -8.686,4.095 -10.02,4.18 -2.645,0.167 -4.189,2.268 -5.678,6.807 -0.902,2.749 -3.804,4.846 -9.139,4.576 z"
   style="fill:#5abf95;fill-opacity:1"
   id="path15" />
                <clipPath
   id="_clip9">
                    <path
   d="m 0.725,74.724 c -3.214,-0.162 -6.505,-2.887 -9.422,-5.873 -1.795,-1.837 -4.92,-1.22 -5.901,-0.076 -1.935,2.257 -4.853,2.448 -8.582,1.43 -2.656,-0.725 -4.758,-1.771 -6.631,-7.191 -1.368,-3.956 -2.188,-8.713 -11.158,-7.544 -11.089,1.446 -7.548,-6.375 -12.339,-9.101 -3.121,-1.775 -2.289,-6.384 -0.768,-8.588 2.303,-3.339 5.446,-1.662 6.565,-3.343 1.119,-1.681 0.619,-2.273 0.768,-6.083 0.214,-5.514 4.519,-9.516 10.237,-9.516 1.242,0 2.479,0.193 3.674,0.572 0.995,0.316 1.937,0.659 2.824,0.982 1.181,0.431 2.13,1.131 3.262,1.021 5.756,-0.558 3.942,-4.345 6.004,-6.603 2.636,-2.888 4.364,-0.801 5.519,-5.038 0.265,-0.971 -0.412,-2.351 0.156,-3.841 C -13.198,1.029 -9.74,0 -7.168,0 c 0.631,0 1.297,0.063 1.981,0.188 0.833,0.152 1.546,0.516 2.371,0.937 1.234,0.631 2.769,1.416 4.553,1.416 0.433,0 0.851,-0.044 1.281,-0.137 C 3.506,2.3 7.76,1.468 8.247,1.468 c 2.69,0 5.116,1.631 6.487,4.365 2.053,4.093 -1.404,7.432 -5.363,10.095 -3.185,2.142 -5.288,5.483 -3.141,9.992 0.844,1.774 3.951,1.898 5.137,2.111 3.537,0.637 5.338,2.644 6.227,4.214 1.511,2.675 1.607,6.242 0.26,9.785 -0.744,1.96 -1.331,3.85 -0.299,5.279 1.057,1.464 5.113,1.523 6.643,3.504 1.208,1.562 2.95,4.398 1.364,8.348 -2.729,6.798 -8.686,4.095 -10.02,4.18 -2.645,0.167 -4.189,2.268 -5.678,6.807 -0.902,2.749 -3.804,4.846 -9.139,4.576 z"
   id="path16" />
                </clipPath>
                <g
   clip-path="url(#_clip9)"
   id="g20">
                    <g
   transform="matrix(-0.215565,-0.0619453,-0.0615466,0.217681,334.207,-259.224)"
   id="g17"
   style="stroke-width:0.999739;stroke-dasharray:none">
                        <path
   d="m 1054.93,1646.54 c -22.19,-25.62 -45.91,8.43 -62.19,19.37 -15.674,10.53 -22.919,1.27 -39.802,18.94 -4.455,4.66 -2.526,21.82 2.034,26.38 14.027,14.03 30.211,11.17 46.778,13.84 12.92,2.08 22.16,25.59 31.92,29.05 13.54,4.8 22.08,-2.42 36.78,-3.64 34.07,-2.81 34.19,28.41 52.61,34.19 55.95,17.57 32.73,-48.82 31.65,-70.06"
   style="fill:url(#_Linear10);stroke-width:0.999739;stroke-dasharray:none"
   id="path17" />
                    </g>
                    <g
   transform="matrix(0.235559,0.12899,-0.128142,0.237117,44.2027,-2217.23)"
   id="g18">
                        <path
   d="m 3676.58,7408.27 c -0.95,16.08 -11.33,28.06 -15.14,40.67 -4.91,16.29 10.56,42.82 31.41,39.61 19.27,-2.97 28.62,-13.16 34.77,-25.45 6.15,-12.3 22.76,-3.14 35.03,-2.81 30.74,0.83 32.63,-36.41 17.97,-37.83 -14.66,-1.42 -14.8,-18.71 -15.27,-26.75"
   style="fill:url(#_Linear11)"
   id="path18" />
                    </g>
                    <g
   transform="matrix(-0.132689,-0.205825,-0.20497,0.134126,504.815,-4.42914)"
   id="g19">
                        <path
   d="m 1054.93,1646.54 c -16.76,-19.35 -116.389,59.4 -78.869,99.33 19.581,20.84 14.155,25.35 25.609,51.98 22.96,53.36 60.05,20.16 71.92,-44.37 3.29,-17.92 22.12,-15.08 40.63,-14.24"
   style="fill:url(#_Linear12)"
   id="path19" />
                    </g>
                </g>
            </g>
    <defs
   id="defs42">
        <linearGradient
   id="_Linear1"
   x1="0"
   y1="0"
   x2="1"
   y2="0"
   gradientUnits="userSpaceOnUse"
   gradientTransform="matrix(-52.751079,1004.9784,-712.87084,-74.366314,3136.355,592.14027)"><stop
     offset="0"
     style="stop-color:#d95ca1;stop-opacity:1;"
     id="stop22" /><stop
     offset="0.44999999"
     style="stop-color:#c85da3;stop-opacity:1;"
     id="stop23" /><stop
     offset="1"
     style="stop-color:#9b5aa4;stop-opacity:1;"
     id="stop24" /></linearGradient>
        <linearGradient
   id="_Linear3"
   x1="0"
   y1="0"
   x2="1"
   y2="0"
   gradientUnits="userSpaceOnUse"
   gradientTransform="matrix(-88.1177,-82.1589,82.1589,-88.1177,1105.32,1219.3)"><stop
     offset="0"
     style="stop-color:#d95ca1;stop-opacity:1;"
     id="stop25" /><stop
     offset="1"
     style="stop-color:#d95ca1;stop-opacity:0;"
     id="stop26" /></linearGradient>
        <linearGradient
   id="_Linear4"
   x1="0"
   y1="0"
   x2="1"
   y2="0"
   gradientUnits="userSpaceOnUse"
   gradientTransform="matrix(-32.8229,-96.8664,-90.5209,35.3304,793.229,1674.42)"><stop
     offset="0"
     style="stop-color:#d95ca1;stop-opacity:0.80000001;"
     id="stop27" /><stop
     offset="1"
     style="stop-color:#d95ca1;stop-opacity:0;"
     id="stop28" /></linearGradient>
        <linearGradient
   id="_Linear5"
   x1="0"
   y1="0"
   x2="1"
   y2="0"
   gradientUnits="userSpaceOnUse"
   gradientTransform="matrix(18.4589,-69.7915,70.0039,18.5201,1049.53,1735.79)"><stop
     offset="0"
     style="stop-color:#9b5aa4;stop-opacity:0.50196081;"
     id="stop29" /><stop
     offset="1"
     style="stop-color:rgb(205,65,255);stop-opacity:0"
     id="stop30" /></linearGradient>
        <linearGradient
   id="_Linear6"
   x1="0"
   y1="0"
   x2="1"
   y2="0"
   gradientUnits="userSpaceOnUse"
   gradientTransform="matrix(-11.2325,-40.7915,40.7915,-11.2325,3738.6,7444.24)"><stop
     offset="0"
     style="stop-color:#9b5aa4;stop-opacity:0.60000002;"
     id="stop31" /><stop
     offset="1"
     style="stop-color:rgb(205,65,255);stop-opacity:0"
     id="stop32" /></linearGradient>
        <linearGradient
   id="_Linear7"
   x1="0"
   y1="0"
   x2="1"
   y2="0"
   gradientUnits="userSpaceOnUse"
   gradientTransform="matrix(-16.0762,-73.1366,73.1366,-16.0762,3737.01,7449.35)"><stop
     offset="0"
     style="stop-color:#9b5aa4;stop-opacity:0.40000001;"
     id="stop33" /><stop
     offset="1"
     style="stop-color:#9b5aa4;stop-opacity:0;"
     id="stop34" /></linearGradient>
        <linearGradient
   id="_Linear8"
   x1="0"
   y1="0"
   x2="1"
   y2="0"
   gradientUnits="userSpaceOnUse"
   gradientTransform="matrix(14.938,-64.2738,-64.4756,-14.9456,1064.99,1738.81)"><stop
     offset="0"
     style="stop-color:#9b5aa4;stop-opacity:0.69803923;"
     id="stop35" /><stop
     offset="1"
     style="stop-color:#9b5aa4;stop-opacity:0;"
     id="stop36" /></linearGradient>
        <linearGradient
   id="_Linear10"
   x1="0"
   y1="0"
   x2="1"
   y2="0"
   gradientUnits="userSpaceOnUse"
   gradientTransform="matrix(41.401,-68.3326,-68.5676,-41.3339,1038.53,1742.87)"><stop
     offset="0"
     style="stop-color:#3dae82;stop-opacity:1;"
     id="stop37" /><stop
     offset="1"
     style="stop-color:#3dae82;stop-opacity:0;"
     id="stop38" /></linearGradient>
        <linearGradient
   id="_Linear11"
   x1="0"
   y1="0"
   x2="1"
   y2="0"
   gradientUnits="userSpaceOnUse"
   gradientTransform="matrix(-11.2325,-40.7915,40.7915,-11.2325,3738.6,7444.24)"><stop
     offset="0"
     style="stop-color:#3dae82;stop-opacity:1;"
     id="stop39" /><stop
     offset="1"
     style="stop-color:#3dae82;stop-opacity:0;"
     id="stop40" /></linearGradient>
        <linearGradient
   id="_Linear12"
   x1="0"
   y1="0"
   x2="1"
   y2="0"
   gradientUnits="userSpaceOnUse"
   gradientTransform="matrix(30.4008,-130.215,-130.624,-30.4156,1021.12,1817.74)"><stop
     offset="0"
     style="stop-color:#3dae82;stop-opacity:1;"
     id="stop41" /><stop
     offset="1"
     style="stop-color:#3dae82;stop-opacity:0;"
     id="stop42" /></linearGradient>
    
                
                <clipPath
   id="_clip2">
                    <path
   d="m 4011.9,5786.81 c 1.56,8.69 1.39,18.72 -2.28,29.86 -7.67,23.22 -24.27,38.54 -32.17,54.66 -8.02,16.35 -5.44,34.04 4.26,39.33 9.36,5.1 42.75,34.66 4.88,94.32 -27.03,42.56 1.15,36.84 -12.48,66.05 -16.57,35.51 -62.82,32.43 -43.94,67.25 22.52,41.51 -20.1,54.28 -47.25,62.88 -46.37,14.71 -38.49,51.5 -53.81,59.93 -43.49,23.92 -72.28,-6.93 -91.47,37.21 -35.59,81.86 -60.23,44.25 -101.58,36.04 -14.98,-2.98 -36.94,38.71 -67.72,16.25 -29.45,-21.5 -33.96,10.75 -70.19,14.9 -77.2,8.86 -49.22,-52.49 -135.21,-42.38 -53.6,6.3 -57.24,-42.54 -92.62,-50.97 -39.58,-9.44 -68.74,-17.07 -62.18,-60.27 5.93,-38.99 -23.89,-70.21 23.12,-89.36 39.62,-16.14 27.27,-61.79 71.21,-58.08 43.44,3.67 85.97,3.19 103.31,-20.15 34.02,-45.8 71.21,-12.96 81.7,-4.03 25.74,21.93 25.02,-1.73 36.19,-33.37 6.21,-17.57 42.87,-11.12 52.76,-19.53 43.25,-36.81 -4.04,-47.57 -3.71,-84.56 0.22,-23.18 18.2,-34.67 27.62,-48.16 18.21,-26.1 -9.03,-45.21 -6.86,-67.54 3.71,-38.1 21.36,-34.36 20.47,-64.87 -0.79,-27.23 14.89,-35.77 33.01,-38.63 0,0 3.66,2.8 4.73,4.77 2.49,4.6 6.59,10.52 10.22,22.88 1.37,4.66 6.85,15.48 15.08,21.33 9.27,6.6 21.55,13.08 44.94,12.76 3.52,-0.05 6.52,0.12 9.1,0.6 0.79,0.15 1.83,0.47 2.47,0.68 0.49,1.91 2.36,9.2 3.24,13.1 3.92,17.56 9.71,28.03 15.82,35.24 7.22,8.51 15.35,13.25 24.88,17.06 21.76,8.69 40.06,8.56 54.93,0.29 14.04,15.97 30.65,28.42 47,31.15 39.12,6.52 60.58,-10.71 69.56,-30.09 1.21,-2.62 2.91,-5.56 4.26,-7.78 10.04,1.78 27.19,3.42 39.6,-2.78 6.49,-3.25 13.13,-8.18 19.11,-15.99 z"
   id="path7" />
                </clipPath>
                
            
            
            
            
            
        
        
    </defs>
</svg>
