<?xml version="1.0" encoding="UTF-8" standalone="no"?>
<!-- Created with Inkscape (http://www.inkscape.org/) -->

<svg
   width="800"
   height="300"
   viewBox="0 0 211.66666 79.375"
   version="1.1"
   id="svg1"
   inkscape:version="1.3.2 (091e20e, 2023-11-25)"
   sodipodi:docname="logo.svg"
   xmlns:inkscape="http://www.inkscape.org/namespaces/inkscape"
   xmlns:sodipodi="http://sodipodi.sourceforge.net/DTD/sodipodi-0.dtd"
   xmlns="http://www.w3.org/2000/svg"
   xmlns:svg="http://www.w3.org/2000/svg">
  <sodipodi:namedview
     id="namedview1"
     pagecolor="#ffffff"
     bordercolor="#999999"
     borderopacity="1"
     inkscape:showpageshadow="2"
     inkscape:pageopacity="0"
     inkscape:pagecheckerboard="0"
     inkscape:deskcolor="#d1d1d1"
     inkscape:document-units="mm"
     inkscape:zoom="0.92737795"
     inkscape:cx="396.81772"
     inkscape:cy="560.72069"
     inkscape:window-width="1920"
     inkscape:window-height="1281"
     inkscape:window-x="1138"
     inkscape:window-y="25"
     inkscape:window-maximized="0"
     inkscape:current-layer="layer1" />
  <defs
     id="defs1" />
  <g
     inkscape:label="Layer 1"
     inkscape:groupmode="layer"
     id="layer1">
    <path
       id="path21"
       style="fill:#db3a35;fill-opacity:1;stroke:none;stroke-width:1;stroke-opacity:1"
       d="m 53.232496,18.189488 c -0.344042,-0.03541 -0.844007,0.113195 -1.110492,0.330097 -0.266497,0.216878 -0.477487,0.329742 -0.469333,0.250448 0.0082,-0.0793 -0.562558,0.04317 -1.268033,0.272416 -0.409606,0.133044 -0.800148,0.213912 -1.154399,0.242208 -0.09934,-0.08319 -0.31101,-0.110434 -0.503413,-0.05502 -0.04774,0.01358 -0.07499,0.02732 -0.09831,0.04116 -0.121034,-0.01459 -0.240657,-0.03224 -0.345281,-0.06428 -1.587744,-0.491259 -2.147655,0.04137 -2.166628,2.061817 -0.0038,0.389138 -0.05271,0.756701 -0.125155,1.106155 -0.04765,0.07085 -0.07196,0.184773 -0.0675,0.306468 -0.21965,0.809457 -0.61265,1.457444 -1.102253,1.806966 -0.02649,-0.05594 -0.114195,-0.108127 -0.243172,-0.121401 -0.153779,-0.01583 -0.293399,0.104551 -0.310152,0.267485 -0.0038,0.03594 0.002,0.06558 0.0104,0.09167 -0.07831,0.01802 -0.154744,0.04498 -0.235493,0.04831 -1.432541,0.06 -2.475761,2.273463 -1.537006,3.261331 0.07198,0.07579 0.131291,0.161193 0.184445,0.250451 -0.06083,0.03808 -0.08514,0.183255 -0.05111,0.403683 0.04886,0.316201 0.136996,0.579955 0.195957,0.586025 0.03369,0.0036 0.05892,-0.01745 0.08068,-0.04833 -0.01436,0.526992 -0.227858,1.066778 -0.63841,1.425806 -0.282742,0.247281 -0.456701,0.576789 -0.502823,0.919956 -0.06284,-0.09301 -0.185164,-0.102934 -0.406176,-0.03325 -0.166521,0.05273 -0.473805,0.08786 -0.806924,0.110398 -0.111668,-0.05615 -0.291762,-0.06892 -0.456171,-0.02195 -0.04588,0.01311 -0.07109,0.02676 -0.09445,0.04006 -0.04618,-4.92e-4 -0.09477,0.0057 -0.139427,0.0044 -0.579554,-0.01702 -1.106453,0.01587 -1.596294,0.08073 -0.01215,-0.0098 -0.01272,-0.01755 -0.03347,-0.02856 -0.184231,-0.09739 -0.49915,-0.129799 -0.699338,-0.07195 -0.190805,0.05505 -0.04615,0.127993 0.299159,0.169165 -1.552613,0.299656 -2.571446,1.040567 -2.89561,2.168913 -0.127869,0.444994 -0.355024,0.838549 -0.505017,0.874929 -0.65123,0.157984 -0.388644,2.650064 0.341434,3.239918 0.501012,0.404769 0.414837,2.279507 -0.05928,3.923703 -0.07652,0.02753 -0.185721,0.158267 -0.301908,0.387755 -0.121117,0.239109 -0.08618,0.356308 0.08235,0.274617 0.0022,-7.4e-4 0.0035,-0.0034 0.0057,-0.0044 -0.09925,0.266251 -0.207802,0.520223 -0.327707,0.750251 -0.211511,0.405799 -0.309313,0.745726 -0.217385,0.755191 0.09193,0.0095 0.0097,0.171453 -0.182792,0.360294 -0.192484,0.188844 -0.294236,0.412652 -0.225603,0.497058 0.04416,0.05436 -0.06052,0.194937 -0.215187,0.352054 0.01501,-0.07344 -0.1531,-0.04351 -0.533008,0.142802 -0.248772,0.122002 -0.428229,0.261108 -0.469883,0.352057 -0.04072,-0.03807 -0.07722,-0.0902 -0.113084,-0.164219 -0.111658,-0.230649 -0.351125,-0.321005 -0.569239,-0.2153 -0.234456,0.113601 -0.295532,0.07659 -0.161385,-0.09776 0.26834,-0.348747 -0.239201,-0.5949 -1.077004,-0.522315 -0.703801,0.06098 -1.454034,1.33127 -1.244432,2.107396 0.09293,0.344175 0.03247,0.401857 -0.219018,0.208161 -0.262787,-0.202446 -0.323206,-0.109886 -0.247574,0.380065 0.0552,0.356332 0.03788,0.570607 -0.03935,0.476149 -0.07679,-0.09441 -0.368587,0.04337 -0.648277,0.306471 -0.279705,0.263094 -0.891672,0.493403 -1.359708,0.511335 -0.113759,0.0044 -0.158029,-4.93e-4 -0.23988,-4.93e-4 -0.03984,-0.03726 -0.100265,-0.06395 -0.174007,-0.07798 0.149063,-0.06442 0.221838,-0.198925 0.157539,-0.331736 -0.07451,-0.153916 -0.263088,-0.217993 -0.419382,-0.142253 -0.156324,0.07574 -0.250393,0.03658 -0.209141,-0.08733 0.177111,-0.531958 -0.214264,-1.172291 -0.582419,-1.025417 0.141173,-0.158731 0.106709,-0.404335 -0.113625,-0.834282 -0.06884,-0.134328 -0.119213,-0.202958 -0.156452,-0.205412 -0.0163,-0.45527 -0.303476,-0.71831 -0.985333,-1.004543 0.198781,0.05297 0.412971,0.122552 0.587909,0.20541 0.367096,0.17387 0.424901,0.14187 0.226711,-0.124674 -0.342541,-0.460695 -1.450474,-0.799339 -1.485958,-0.454214 -0.0048,0.04661 0.01388,0.09038 0.0423,0.13182 -0.401284,-0.125101 -0.582896,-0.105976 -0.496235,0.07305 0.08473,0.175053 -0.01343,0.224092 -0.228896,0.114793 -0.496011,-0.251417 -1.476702,0.962726 -1.30152,1.611443 0.09666,0.357916 0.04053,0.426347 -0.199258,0.24166 -0.250508,-0.192958 -0.300389,-0.09438 -0.19926,0.392702 0.06706,0.323073 0.05645,0.479202 -0.02967,0.482772 0.0016,-0.284553 -0.05358,-0.491483 -0.150407,-0.501448 -0.131745,-0.01356 -0.234124,0.07113 -0.227813,0.188385 0.0063,0.117258 -0.01961,0.273781 -0.0571,0.347661 -0.09678,0.190369 -0.1611,0.401687 -0.209693,0.610197 -0.130345,-0.11308 -0.129738,-0.04649 -0.03947,0.193885 -0.05447,0.342801 -0.03933,0.642184 0.07959,0.733773 0.02582,0.01991 0.04449,0.02319 0.06428,0.02912 -0.0468,-0.0101 -0.11014,-0.03696 -0.194331,-0.07964 -0.269128,-0.13641 -0.44387,-0.03151 -0.510498,0.307019 -0.05568,0.282997 -0.148466,0.700395 -0.206398,0.927654 -0.02865,0.112463 -0.05381,0.239833 -0.08449,0.376227 -0.02868,0.01205 -0.04383,0.01397 -0.07957,0.03132 -0.163542,0.07926 -0.31098,0.293829 -0.327705,0.477284 -0.009,0.09774 0.01478,0.140769 0.062,0.133455 -0.0031,-0.0012 -0.0065,2.47e-4 -0.0095,-0.0012 -0.111493,-0.04913 -0.536418,0.09788 -0.944166,0.326793 -0.158021,0.0887 -0.252508,0.163414 -0.340335,0.234523 -0.333123,0.01001 -0.771766,-0.01131 -1.272969,-0.06592 0.07724,-0.04286 0.02988,-0.07769 -0.236048,-0.116435 -0.17004,-0.02477 -0.372738,-0.01306 -0.565395,0.01705 -1.03486,-0.151698 -1.83025,-0.216812 -1.762066,-0.132923 0.01867,0.02294 0.08216,0.04936 0.136136,0.07525 -0.906765,-0.402792 -2.138112,0.05325 -2.050254,0.65633 -0.276738,0.280145 -0.302502,0.547457 -0.0077,0.604158 -0.02571,-0.0015 -0.04037,0.002 -0.0708,-0.0012 -0.228568,-0.02351 -0.350984,0.08529 -0.341981,0.269125 -0.07653,0.0287 -0.184828,0.158117 -0.300273,0.386107 -0.116457,0.230016 -0.08484,0.342593 0.06747,0.278458 -0.0046,0.0026 -0.0083,0.0079 -0.01367,0.01042 -0.247235,0.119807 -0.285865,0.05742 -0.120218,-0.195526 0.133985,-0.20458 -0.102953,-0.0418 -0.526974,0.361939 -0.128944,0.122779 -0.258755,0.221251 -0.384802,0.305923 -0.113182,0.0085 -0.3628962,0.07227 -0.7190987,0.179598 -0.1213912,-0.07726 -0.20362,-0.05027 -0.2157287,0.06536 -0.086362,0.02712 -0.1320653,0.03753 -0.2294535,0.06919 -0.3730107,0.121186 -0.7544138,0.20761 -1.0687681,0.250458 -0.00122,-0.0022 2.728e-4,-0.003 -0.00122,-0.0042 -0.083344,-0.102562 -0.3234321,-0.136935 -0.53356,-0.07695 -0.078459,0.02242 -0.1117011,0.04538 -0.1246076,0.06813 -0.2072367,-0.101179 -0.3893597,-0.05345 -0.4062093,0.110397 -0.00506,0.04963 0.019537,0.09055 0.066966,0.123576 -0.3208493,-0.06876 -0.744888,0.08779 -1.1511082,0.444878 -0.00137,0.0012 -0.00297,0.0022 -0.00436,0.003 -0.1389854,-0.003 -0.3586992,0.02159 -0.7399599,0.112045 -0.5133867,0.121855 -0.7914942,0.285773 -0.6180965,0.364137 0.1150797,0.05197 0.3380778,0.04442 0.5714385,-0.0042 -0.1608003,0.06091 -0.3112486,0.100756 -0.4171876,0.08896 -0.4264071,-0.04751 -0.4346583,-0.09034 -0.054886,-0.283945 0.2459876,-0.125403 0.303935,-0.244931 0.1289979,-0.265283 -0.1749358,-0.02031 -0.5808371,0.158596 -0.9018928,0.397648 -0.3210591,0.239042 -0.3761282,0.32873 -0.1224139,0.199365 0.1499156,-0.07642 0.2170317,-0.08152 0.2184752,-0.03401 -0.068982,0.0064 -0.230537,0.07642 -0.4923913,0.204859 -0.3198496,0.156863 -0.5313897,0.347259 -0.4698857,0.422912 0.061505,0.07567 0.00414,0.270903 -0.127905,0.43444 -0.1320117,0.163548 0.0756,0.0064 0.4611018,-0.350403 0.1961215,-0.181299 0.3360448,-0.315247 0.4457326,-0.42511 -0.2332842,0.271817 -0.6698188,0.686077 -1.2081979,1.12208 -0.9363104,0.758283 -1.0772035,2.062393 -0.2892869,2.674752 0.8235351,0.640043 2.0763177,1.031942 2.4899505,0.778817 0.00478,-0.003 0.012547,-0.0022 0.017562,-0.0053 0.029798,0.188905 0.6776144,0.538532 1.2345469,0.616778 0.1132554,0.01595 0.141814,-0.01861 0.1004565,-0.08619 0.050223,0.07546 0.028297,0.118569 -0.083439,0.108205 -0.2339172,-0.02159 -0.061886,0.333837 0.4133458,0.855151 0.1651326,0.18115 0.2872014,0.343009 0.3880931,0.495962 -0.021375,-0.0096 -0.040078,-0.02371 -0.063131,-0.03072 -0.1826846,-0.05569 -0.2092308,-0.02348 -0.058744,0.07143 0.1504928,0.0948 0.1908643,0.280148 0.089475,0.411919 -0.1013811,0.131769 -0.040622,0.254336 0.1350381,0.272413 0.048966,0.0053 0.088631,-0.0012 0.122411,-0.0137 -0.00797,0.04304 -0.00534,0.09034 -0.024713,0.128529 -0.1476681,0.291637 -0.1051095,0.378099 0.1608353,0.338868 -0.020841,0.03476 -0.0372,0.07302 -0.041728,0.116988 -0.014297,0.139085 0.066891,0.320069 0.1795008,0.416318 -0.045506,0.2366 0.00422,0.525146 0.1317428,0.822194 -0.1462374,0.15919 -0.1320821,0.185345 0.035681,0.08737 0.1568658,0.327031 0.4031239,0.654116 0.7245891,0.915568 0.1731127,0.140797 0.2918224,0.221115 0.3935832,0.273521 0.1452427,0.08534 0.4039096,0.171773 0.7432529,0.229581 0.9914366,0.168871 1.0087166,0.1566 0.5522187,-0.381713 -0.3447959,-0.406606 -0.5156273,-0.46485 -0.6373032,-0.217497 -0.04485,0.09119 -0.1101944,0.155098 -0.1789514,0.186187 0.016237,-0.02201 0.028519,-0.03105 0.046116,-0.05601 0.301713,-0.429464 0.3454193,-0.424915 0.8036435,0.0845 0.266454,0.296276 0.663344,0.55488 0.882125,0.575046 0.318763,0.02935 0.323516,-0.02073 0.03194,-0.269109 0.1643,0.07695 0.423453,0.156023 0.786066,0.215296 0.282085,0.04613 0.497497,0.03879 0.614255,-0.003 0.02381,0.04145 0.03984,0.08301 0.02739,0.124119 -0.05437,0.179786 0.265552,0.778359 0.710862,1.330232 0.09836,0.121907 0.132128,0.179675 0.204759,0.276814 -0.03685,-0.0042 0.0211,0.102244 0.183344,0.359743 0.02378,0.03784 0.05681,0.06335 0.08343,0.09938 -0.01219,-0.0064 -0.01104,0.003 -0.03016,-0.01107 -0.244986,-0.185408 -0.314511,-0.168309 -0.20804,0.05166 0.07611,0.157107 0.273296,0.246672 0.466591,0.231783 0.116747,0.10628 0.230845,0.178784 0.313433,0.187279 0.160552,0.01659 0.242909,-0.01082 0.183351,-0.06101 -0.01405,-0.01178 -0.111346,-0.100225 -0.147118,-0.131815 0.127885,0.03083 0.240878,0.102032 0.292029,0.207618 0.08465,0.17479 0.279345,0.330729 0.433112,0.346554 0.153746,0.01582 0.207949,-0.119805 0.120217,-0.300973 -0.108627,-0.224395 0.0348,-0.244991 0.44902,-0.06483 0.386014,0.167777 0.55535,0.154504 0.462747,-0.03677 -0.08843,-0.182647 0.07329,-0.219538 0.410055,-0.09342 0.379814,0.142289 0.542634,0.08333 0.513799,-0.185646 -0.0063,-0.05846 0.0071,-0.11097 0.03463,-0.158169 0.08078,0.05357 0.226551,0.09725 0.422688,0.124123 -0.03224,0.04571 0.05502,0.09013 0.275003,0.121929 0.293531,0.04251 0.465384,-0.0064 0.382061,-0.109292 -0.0028,-0.003 -0.008,-0.0053 -0.01101,-0.0084 0.191879,-0.02171 0.335448,-0.05749 0.366137,-0.116984 0.002,0.01116 0.01494,0.02082 0.01375,0.03242 -0.01687,0.164071 0.135894,0.315745 0.339241,0.336674 0.36416,0.03753 1.656061,2.238632 1.605066,2.734621 -0.01439,0.140051 0.09984,0.26758 0.253608,0.283403 0.153767,0.01582 0.266506,0.15328 0.250869,0.305372 -0.04103,0.399145 0.764772,1.495131 1.126396,1.53235 0.142281,0.01466 0.218944,-0.210554 0.244825,-0.65962 -0.0035,0.116813 5.71e-4,0.209501 -0.0038,0.331186 -0.01267,0.348534 0.105874,0.661876 0.263491,0.696427 0.212006,0.04645 0.42868,0.08301 0.644995,0.119731 0.2222,0.127846 0.491925,0.240568 0.714702,0.265279 0.434702,0.04825 0.489805,-0.0096 0.270619,-0.130716 0.632858,0.0627 1.25039,0.08407 1.801048,0.05218 0.815941,-0.04719 1.357244,0.06674 1.692349,0.357005 0.270944,0.234661 0.580179,0.355716 0.687272,0.268576 l -8e-6,-4.93e-4 c 0.02155,-0.01755 0.03842,-0.0559 0.05765,-0.08407 -0.06158,0.505437 0.0875,0.602026 0.629622,0.781006 0.803298,0.265196 2.110459,-0.105217 3.039979,-0.861748 0.554776,-0.451532 2.087812,-0.436136 2.352721,0.02358 0.292935,0.508401 0.808312,0.47671 1.042965,-0.06366 0.127891,-0.29464 0.357471,-0.522636 0.509959,-0.506939 0.152477,0.01572 0.212564,-0.105539 0.133387,-0.269117 -0.07918,-0.163635 -0.01076,-0.283688 0.152053,-0.266926 0.162884,0.01678 0.280539,-0.129977 0.261848,-0.326247 -0.0015,-0.01518 0.01,-0.024 0.01138,-0.03795 0.04618,-0.0095 0.08506,-0.01722 0.149862,-0.03465 0.171429,-0.04591 0.292586,-0.1142 0.352963,-0.182341 0.104664,0.003 0.220715,0.01223 0.356248,0.03242 l 7e-6,4.93e-4 c 0.497419,0.07408 0.904372,0.115839 0.903535,0.09278 -7.44e-4,-0.01476 -0.121864,-0.803686 -0.215174,-1.412623 0.01233,0.08056 0.02732,0.173568 0.0384,0.246607 0.165417,1.088111 0.909319,1.919795 1.917966,2.1442 0.151907,0.03378 0.230277,0.207558 0.174008,0.386106 -0.105914,0.336363 0.938113,1.329935 1.372885,1.312113 -0.04574,0.103093 0.114494,0.220322 0.389185,0.26967 0.227722,0.04092 0.3564,0.04167 0.436951,0.0253 -0.0062,0.02923 -0.02021,0.05962 -0.0445,0.09119 -0.110813,0.144075 0.05724,0.288717 0.373828,0.321301 0.31661,0.03264 0.589682,-0.07525 0.606567,-0.239465 0.0015,-0.01318 0.01161,-0.01947 0.01587,-0.03071 -0.0075,0.02178 -0.01729,0.04251 -0.01977,0.06642 -0.01674,0.162934 0.103219,0.2314 0.266775,0.152147 0.153154,-0.07419 0.276188,-0.181574 0.298076,-0.251001 0.0156,0.0064 0.02844,0.0074 0.04449,0.01488 0.422767,0.183762 0.526696,0.150324 0.393034,-0.125777 -0.120054,-0.247977 -0.07574,-0.293703 0.130104,-0.13512 0.403248,0.310615 2.976463,-0.991051 4.194924,-2.121676 1.165161,-1.08117 1.449859,-1.83749 1.449174,-3.851205 -7.9e-5,-0.291078 0.01111,-0.542264 0.02852,-0.773869 0.05061,0.04378 0.106161,-0.106175 0.137267,-0.408624 0.02029,-0.197304 0.01714,-0.333727 -0.0035,-0.397646 0.212016,-0.700966 0.663616,-0.957511 1.539744,-1.024321 1.401922,-0.106895 2.085346,-0.392907 2.136992,-0.895239 0.02315,-0.225374 0.154372,-0.398582 0.291479,-0.384466 0.13709,0.01412 0.349708,-0.251127 0.472635,-0.589869 0.259278,-0.714243 1.014394,-1.131422 2.06452,-1.198426 0.128813,0.03124 0.304434,0.02966 0.502274,-0.003 0.263825,0.0096 0.536701,0.03177 0.827244,0.08184 0.270191,0.04655 0.534492,0.07238 0.786618,0.08842 -0.02627,0.0042 -0.04996,0.0042 -0.07797,0.01158 -0.239755,0.06483 -0.441162,0.166917 -0.44738,0.227383 -0.0063,0.06047 0.17776,0.129494 0.408409,0.153227 0.23065,0.0237 0.431506,-0.07886 0.446828,-0.227924 0.0075,-0.07302 -0.03366,-0.125531 -0.104845,-0.153793 0.252507,0.0074 0.47721,2.46e-4 0.641705,-0.02688 0.287715,0.07185 0.478331,0.0074 0.726225,-0.223531 0.560506,-0.521916 1.543239,-2.034265 1.422833,-2.189788 -0.02566,-0.03306 0.0063,-0.102879 0.0736,-0.186184 -0.158768,0.208461 -0.04641,0.309108 0.319477,0.131823 0.174422,-0.0845 0.329765,-0.277015 0.345272,-0.427854 0.01551,-0.150836 -0.164067,-0.130102 -0.399614,0.04613 0.235547,-0.176249 0.422522,-0.265078 0.415537,-0.197175 -0.06084,0.591759 2.825369,-0.678042 3.328177,-1.464246 0.323747,-0.506225 0.591322,-0.943718 0.594487,-0.972148 0.06933,-0.622359 -1.505603,-3.680389 -2.236898,-4.343316 -0.142123,-0.128845 -0.167201,-0.226648 -0.05548,-0.217499 0.11176,0.0096 0.115964,-0.310481 0.0093,-0.710148 -0.129276,-0.484808 -0.09739,-0.716834 0.09548,-0.69698 0.158988,0.01636 0.235243,-0.08141 0.169627,-0.216949 -0.06562,-0.135576 0.294012,-0.615366 0.799247,-1.066057 1.073455,-0.957593 1.179139,-1.405464 0.520931,-2.21505 -0.264394,-0.325214 -0.423444,-0.637817 -0.353518,-0.694777 0.06993,-0.05694 -0.07504,-0.365864 -0.322213,-0.686538 -0.394128,-0.511368 -0.267667,-2.194107 0.231142,-3.070746 0.03807,-0.0669 0.464942,-0.794032 0.948546,-1.616387 1.179119,-2.005046 1.315532,-4.396867 0.323317,-5.672458 -0.856667,-1.101315 -1.28369,-2.567002 -1.269122,-4.324094 0.03434,-0.0548 0.06683,-0.186745 0.08783,-0.391058 0.03191,-0.310249 0.0052,-0.46622 -0.05651,-0.422357 0.06214,-0.9326 0.08882,-1.694727 0.0549,-1.698218 -0.03583,-0.0037 -0.06649,-0.311977 -0.06862,-0.685446 -0.0023,-0.409818 -0.597047,-1.346373 -1.499682,-2.362245 -1.49555,-1.683171 -1.495403,-1.683038 -2.228107,-0.989156 -0.536476,0.508052 -0.7211,0.928741 -0.689459,1.571351 0.03884,0.789104 0.510466,2.491661 0.885422,3.439832 -0.02768,0.01284 -0.06656,0.06891 -0.128996,0.196619 -0.05491,0.112398 -0.161816,0.267165 -0.288193,0.425107 0.28188,-0.461442 0.150777,-1.013676 -0.293672,-2.47264 -0.561966,-1.844573 -0.301103,-3.002213 0.850293,-3.77321 0.144361,-0.09668 0.275217,-0.408835 0.39578,-0.791991 0.02944,0.08552 0.07864,0.179245 0.153144,0.27022 0.247916,0.302625 0.283107,0.274238 0.172367,-0.140056 -0.05962,-0.223092 -0.157231,-0.372133 -0.242623,-0.392707 0.466543,-1.765918 0.649191,-5.043413 0.06477,-4.76018 -0.148349,0.07191 -0.184811,-0.03761 -0.0807,-0.243308 0.518852,-1.024745 -1.357926,-1.622337 -3.005397,-0.956763 -0.699082,0.282416 -1.146566,0.582681 -1.275725,0.799134 0.01019,-0.0371 0.01694,-0.07133 0.03893,-0.115892 0.149742,-0.295771 0.0731,-0.370257 -0.282695,-0.274069 -0.03526,0.0096 -0.07024,0.01009 -0.105415,0.01479 -0.0035,-0.07129 -0.105662,-0.206077 -0.243178,-0.311957 -0.143993,-0.110873 -0.275837,-0.06792 -0.29259,0.09501 -0.0012,0.01163 0.0031,0.02211 0.0031,0.03353 -0.297565,-0.567025 -3.244582,-2.612399 -3.86118,-2.675863 z m -7.186054,1.857503 c -0.01828,-0.0094 -0.04029,-0.0038 -0.06583,0.01705 -0.102431,0.08337 -0.137388,0.323624 -0.07742,0.533857 0.06635,0.232345 0.139709,0.172894 0.186635,-0.151592 0.03225,-0.220144 0.01168,-0.372309 -0.04331,-0.399287 z m 12.119298,1.655934 c 0.04975,0.0082 0.09486,0.01938 0.161925,0.02094 0.09713,0.0025 0.173327,0.01998 0.235492,0.05982 -0.06331,-0.03964 -0.141302,-0.05728 -0.24098,-0.05932 -0.06363,-0.0012 -0.109433,-0.01174 -0.156437,-0.02145 z m 0.418285,0.0906 c 0.01168,0.0087 0.01971,0.02426 0.03023,0.03516 -0.01052,-0.0107 -0.01843,-0.02637 -0.03023,-0.03516 z m 4.228412,2.436392 c -0.01501,-4.93e-4 -0.03495,0.03048 -0.05928,0.09561 -0.09713,0.260274 -0.15131,0.76339 -0.120301,1.118226 l -4.97e-4,-2e-6 c 0.03111,0.354845 0.110867,0.141652 0.177309,-0.473435 0.04957,-0.461346 0.04785,-0.739677 0.0027,-0.740366 z m -0.463842,3.124573 c -0.184105,0.03544 -0.456105,0.212995 -0.782233,0.526711 -0.59683,0.574112 -0.596587,0.574348 0.03515,0.144447 0.347733,-0.236694 0.707554,-0.336983 0.799789,-0.223532 0.09234,0.113463 0.183005,0.05922 0.201463,-0.120286 0.02631,-0.255972 -0.07006,-0.362797 -0.254155,-0.327342 z m -4.759783,0.04669 c -0.01625,-0.0017 -0.03301,0.01252 -0.04992,0.04006 v -4.93e-4 c 0.01691,-0.02754 0.03358,-0.04121 0.04998,-0.03951 z m -0.202557,0.642053 c -0.06246,0.389438 -0.116813,0.92116 -0.148091,1.513091 0.03077,-0.591151 0.08522,-1.123844 0.148091,-1.513091 z m -15.634104,4.181313 c -0.02821,0.191537 -0.09144,0.322243 -0.180596,0.313066 -0.116329,-0.01197 -0.292432,1.148728 -0.467689,2.675305 0.165608,-1.492344 0.328002,-2.689642 0.435306,-2.678597 0.08285,0.0085 0.156768,-0.130593 0.212979,-0.309774 z m 19.927297,1.102309 c 0.122854,0.302887 0.23557,0.531241 0.314535,0.593176 -0.0128,0.0051 -0.02019,0.0033 -0.03354,0.0094 -0.16354,0.07922 -0.283793,-0.08456 -0.267325,-0.364135 0.0088,-0.147887 -0.0022,-0.19338 -0.01371,-0.238372 z m 3.877088,0.318601 c -0.01828,-0.0094 -0.04083,-0.0038 -0.06646,0.01698 -0.10243,0.08337 -0.137385,0.323612 -0.07742,0.533854 0.06635,0.232344 0.139709,0.172895 0.186632,-0.15159 0.03225,-0.220143 0.01223,-0.372309 -0.04278,-0.399285 z m -4.04562,0.419063 c 0.02589,-0.0058 0.05399,-0.0058 0.08233,0.002 0.0763,0.02026 0.182393,0.02304 0.282147,0.0291 -0.04193,0.01116 -0.08464,0.02761 -0.123502,0.028 -0.08827,4.93e-4 -0.241031,0.06591 -0.395239,0.147738 4.95e-4,-0.0032 0.0039,-0.0071 0.0043,-0.0102 0.01061,-0.103084 0.07203,-0.178173 0.14986,-0.196615 z m -0.733368,0.316899 c -0.330822,0.312839 -0.338018,0.362925 -0.02719,0.285083 -0.167848,0.1171 -0.321257,0.225249 -0.468238,0.325695 -0.169311,0.115711 -0.28076,0.334541 -0.347477,0.611289 -0.01332,-0.189319 -0.03829,-0.337985 -0.07794,-0.401482 0.151423,-0.185848 0.355428,-0.37137 0.619744,-0.577243 0.114227,-0.08901 0.209641,-0.166596 0.301369,-0.243315 z m 4.659324,0.177401 c -0.01756,0.0046 -0.03878,0.02913 -0.06316,0.07524 -0.09734,0.184332 -0.129674,0.498884 -0.07192,0.699178 0.05789,0.200308 0.137217,0.0496 0.176757,-0.335033 0.02966,-0.288502 0.01082,-0.453037 -0.04175,-0.439396 z m -5.5464,2.116738 c 0.05243,0.468447 0.18067,0.988074 0.385352,1.508742 0.09621,0.244742 0.157517,0.480605 0.203106,0.711251 -0.05045,0.01599 -0.147565,0.353767 -0.270622,0.907329 0.0589,-0.731841 -0.03946,-1.561564 -0.31344,-2.269972 -0.08014,-0.207266 -0.145748,-0.393505 -0.200363,-0.566807 0.08432,0.112529 0.150326,0.03225 0.195967,-0.290543 z m -4.393637,1.949774 c 0.04212,0.0034 0.100667,0.02628 0.17675,0.06478 0.03796,0.0192 0.07346,0.027 0.107555,0.02067 -0.03426,0.0071 -0.06965,-7.39e-4 -0.10761,-0.01961 -0.07601,-0.03859 -0.134612,-0.06182 -0.176752,-0.06531 z m 0,0 c -0.04214,-0.0034 -0.06793,0.01256 -0.07797,0.05106 l 3e-6,-4.92e-4 c 0.0104,-0.03846 0.03579,-0.05412 0.07792,-0.05052 z m 5.024355,0.492134 c 0.0705,0.52685 0.0088,1.004033 -0.153948,1.414247 0.05142,-0.220779 0.09846,-0.4778 0.122384,-0.76343 0.02562,-0.301352 0.03286,-0.503486 0.03126,-0.650846 z m -4.315694,1.13911 c 1.83e-4,0.0022 7.44e-4,0.0044 0.0015,0.0066 -2.49e-4,-0.0022 -7.45e-4,-0.0044 -0.0015,-0.0066 z m 3.857889,0.349317 c -0.01878,0.213786 -0.0101,0.371968 0.0297,0.428957 -0.241903,0.333069 -0.567045,0.592859 -0.958991,0.75409 -0.01923,-0.03117 -0.150795,-0.03037 -0.299204,-0.0244 0.396729,-0.06451 0.747628,-0.243078 0.968317,-0.570102 0.109342,-0.161974 0.192643,-0.365837 0.260197,-0.588222 z m -3.336402,0.560205 c 0.41697,0.35222 1.019713,0.581832 1.600133,0.617895 -0.601652,0.01094 -1.19176,-0.240115 -1.600133,-0.617895 z m -0.479768,0.240573 c 0.153776,0.01582 0.455474,0.170392 0.670791,0.343265 0.002,0.0012 0.002,0.0022 0.0031,0.0034 -0.135467,-0.04887 -0.271503,-0.101019 -0.410056,-0.166966 -0.186452,-0.08874 -0.284963,-0.132434 -0.343078,-0.152687 0.0095,-0.01976 0.03153,-0.03233 0.07906,-0.02745 z m -0.08183,0.06263 c 0.03297,0.04079 0.108246,0.107728 0.328272,0.287799 0.02589,0.02117 0.04647,0.04442 0.06972,0.06648 -0.06995,-0.04352 -0.14285,-0.08201 -0.204206,-0.131258 -0.116289,-0.09338 -0.179883,-0.171259 -0.193774,-0.222993 z m 11.044494,0.827142 c -0.01836,-0.0094 -0.04082,-0.0038 -0.06645,0.01695 -0.102432,0.08336 -0.137383,0.323603 -0.07742,0.533843 0.06635,0.232345 0.13971,0.172894 0.186631,-0.151588 0.03225,-0.220148 0.01223,-0.372313 -0.04278,-0.399286 z m -26.616565,1.372525 c 0.0037,0.004 0.0052,0.02358 0.0088,0.02526 h -4.96e-4 c -0.0031,-0.0015 -0.0053,-0.02132 -0.0082,-0.02526 z m 0.122421,0.124129 c 0.09318,0.132298 0.125219,0.354035 0.105948,0.561865 -0.01922,0.20783 -0.09007,0.401481 -0.202565,0.47728 0.112547,-0.07579 0.183279,-0.269453 0.202565,-0.47728 0.01923,-0.207833 -0.01275,-0.429567 -0.105948,-0.561865 z m -0.436952,1.215998 c -0.06114,0.09617 -0.106587,0.232806 -0.122405,0.386658 -0.01111,0.108304 -0.03199,0.1959 -0.06696,0.26583 -0.03496,0.06994 -0.08439,0.121835 -0.152053,0.158181 0.0677,-0.03636 0.117111,-0.08825 0.152053,-0.158181 0.03495,-0.06994 0.05529,-0.157522 0.06641,-0.26583 0.0158,-0.153849 0.06189,-0.290466 0.122941,-0.386658 z m -7.514869,0.846916 c -0.02736,0.01582 -0.05222,0.027 -0.07684,0.039 0.02556,-0.01178 0.05016,-0.02473 0.07684,-0.039 z m 9.854406,1.088021 c -0.138205,0.06197 -0.24029,0.09392 -0.293671,0.08842 0.05335,0.0055 0.15546,-0.02643 0.293671,-0.08842 z m -17.777673,0.04284 c 0.02076,0.176185 0.06651,0.295137 0.12516,0.336131 -0.112707,0.02655 -0.149211,-0.07644 -0.12516,-0.336131 z m 12.229629,0.07141 c -0.335328,0.363035 -0.619701,0.772899 -0.805273,1.175906 0.185578,-0.403039 0.46991,-0.812841 0.805273,-1.175906 z m 4.743863,0.206512 c 0.136465,0.136231 0.235573,0.214641 0.288199,0.232326 -0.05266,-0.01757 -0.151755,-0.09596 -0.288199,-0.232326 z m 8.396993,0.250999 c -0.04212,0.160427 -0.06103,0.318434 -0.05722,0.494294 -0.004,-0.175883 0.01489,-0.333889 0.05722,-0.494294 z m 6.405487,0.351506 c -0.08395,1.408532 -0.175049,2.691349 -0.31564,4.349913 0.140603,-1.658353 0.231743,-2.941586 0.31564,-4.349913 z M 20.71159,48.616449 c 0.08915,0.371829 0.04794,0.409246 -0.175105,0.196079 0.06148,-0.0039 0.121394,-0.0724 0.175105,-0.196079 z m -0.313982,0.766726 c -6.21e-4,0.01468 7.69e-4,0.03397 -0.0038,0.04338 0.0042,-0.0098 0.002,-0.03011 0.0038,-0.04338 z m 15.882764,1.409878 c 0.186694,1.363395 0.256548,2.544059 0.241529,3.910527 0.01503,-1.366468 -0.05483,-2.547132 -0.241529,-3.910527 z m -17.076695,0.629409 c -0.0463,0.142951 -0.134662,0.234372 -0.228354,0.204864 0.04973,-0.01107 0.1244,-0.07453 0.217919,-0.191133 0.0049,-0.0057 0.0062,-0.0081 0.01,-0.01377 z m -0.716357,0.554726 c 0.0563,7.39e-4 0.07912,0.05206 0.0686,0.154329 -6.95e-4,0.0068 -0.0055,0.01197 -0.0062,0.01868 0.0039,-0.11095 -0.04107,-0.154104 -0.132838,-0.13401 0.01916,-0.0067 0.05561,-0.03919 0.07022,-0.03901 z m -4.24763,0.08678 c 0.06444,0.02026 0.117768,0.03973 0.194319,0.06043 -0.06458,-0.01681 -0.128299,-0.03711 -0.194319,-0.06043 z m 4.283308,0.168615 c -0.07138,0.172859 -0.284057,0.282996 -0.619737,0.335581 0.306668,-0.06122 0.553422,-0.195974 0.619737,-0.335581 z M 15.61422,52.37813 c 0.669293,0.118452 1.374843,0.208399 1.841114,0.221336 -0.288363,0.0038 -0.614447,-0.01087 -1.012778,-0.06151 -0.541499,-0.06885 -0.79834,-0.112878 -0.828336,-0.159826 z m 26.63687,0.728277 c 0.01977,-0.0084 0.03903,0.0172 0.05758,0.07139 -0.01855,-0.0542 -0.03792,-0.07981 -0.05758,-0.07139 z m -30.111061,0.03624 c -0.0019,0.02587 -0.01828,0.04383 -0.04005,0.05712 0.01917,-0.01508 0.0325,-0.03363 0.04005,-0.05712 z m -0.0851,0.08404 c -10e-4,2.47e-4 -0.0032,2.47e-4 -0.0054,4.93e-4 10e-4,-4.93e-4 0.0032,-1.55e-4 0.0054,-4.93e-4 z m 37.176341,0.33393 c -0.117644,0.133634 -0.212093,0.27135 -0.282697,0.412477 -0.07058,0.141124 -0.117467,0.285642 -0.141039,0.433897 -0.02379,0.148228 -0.02342,0.300343 -7.44e-4,0.455302 0.02334,0.155025 0.07021,0.313122 0.140521,0.474544 -0.07023,-0.161412 -0.117169,-0.319527 -0.140521,-0.474544 -0.02334,-0.15501 -0.02312,-0.307062 7.44e-4,-0.455302 0.02378,-0.148233 0.07047,-0.292773 0.141039,-0.433897 0.07057,-0.141129 0.165031,-0.278846 0.282697,-0.412477 z M 8.7103504,55.386715 c -0.1982152,0.06058 -0.428128,0.08991 -0.6625587,0.111499 0.2143663,-0.02253 0.438912,-0.06175 0.6625587,-0.111499 z m -0.859076,0.132373 c -0.062409,0.0022 -0.1212195,0.0096 -0.182244,0.0075 0.059278,-0.0012 0.1188887,-0.003 0.182244,-0.0075 z m 35.2474026,0.995757 c 2.29e-4,-4.7e-5 2.49e-4,0.0022 4.96e-4,0.0022 -0.01453,0.003 -0.03476,0.04304 -0.05987,0.126316 -0.102157,0.337181 -0.168195,0.965971 -0.147981,1.397768 0.0053,0.107652 0.01444,0.171413 0.02634,0.19442 0.01165,0.02171 0.02608,0.003 0.04225,-0.04943 -0.0161,0.05283 -0.03065,0.0694 -0.04225,0.04943 -0.01245,-0.02124 -0.02163,-0.08364 -0.02688,-0.19442 -0.02012,-0.431787 0.04646,-1.060578 0.147984,-1.397822 l -4.96e-4,-4.93e-4 c 0.02543,-0.08428 0.04523,-0.12514 0.05987,-0.127412 z m -6.393398,0.398185 c 0.03023,0.003 0.05668,0.0407 0.0812,0.09831 -0.02535,-0.05569 -0.05219,-0.0948 -0.08125,-0.09778 z m 0.118021,0.215296 c 0.0037,0.01636 0.0082,0.02753 0.01203,0.04613 -0.0038,-0.0156 -0.008,-0.03189 -0.01203,-0.04613 z m 14.740991,1.849265 c 0.188782,0.772783 0.0458,1.372831 -0.510506,1.856953 0.07998,-0.07993 0.146506,-0.162117 0.199261,-0.247706 0.31348,-0.508615 0.405723,-1.056822 0.311245,-1.609247 z m -0.515444,1.861896 c -0.0071,0.0064 -0.01595,0.01276 -0.02363,0.01925 0.0071,-0.0064 0.01692,-0.01255 0.02363,-0.01925 z m -2.598645,1.083632 c -0.446647,0.108028 -0.936821,0.211089 -1.488148,0.30922 0.564144,-0.100435 1.042746,-0.203469 1.488148,-0.30922 z m -11.420508,0.583285 c 0.02827,2.576545 -0.05646,3.32127 -0.396885,3.398092 0.213802,-0.0506 0.345783,-1.604732 0.396885,-3.398092 z m 6.542718,0.358648 c 0.01414,0.197986 0.0086,0.36117 -0.0192,0.460812 0.02776,-0.09959 0.03343,-0.262813 0.0192,-0.460812 z m -19.193928,0.190035 c 0.04104,0.09417 0.09152,0.182571 0.158101,0.264179 0.07217,0.08842 0.159526,0.171482 0.262388,0.252643 -0.103017,-0.0812 -0.190216,-0.164113 -0.262388,-0.252643 -0.06667,-0.08173 -0.117095,-0.169779 -0.158101,-0.264179 z m 19.023202,0.349308 c 0.03689,0.02836 0.06761,0.03412 0.09278,0.01976 -0.02505,0.01434 -0.05588,0.0085 -0.09278,-0.01976 z m -0.299161,0.05166 c -0.01478,0.143704 -0.146052,0.646781 -0.291482,1.117691 0.145588,-0.470898 0.276706,-0.973987 0.291482,-1.117691 z m -18.257449,0.147743 c 0.09344,0.07057 0.193701,0.140062 0.311247,0.21145 0.7981,0.484746 0.91201,0.618702 0.737765,1.375275 0.160776,-0.74013 0.05531,-0.89323 -0.743802,-1.378569 -0.115313,-0.07004 -0.213246,-0.138786 -0.30521,-0.208156 z M 7.5460721,64.399627 c 0.1512156,-0.0173 0.1330938,0.04156 -0.00656,0.175751 -0.015337,-0.06568 -0.039666,-0.121024 -0.073556,-0.159818 0.024009,-0.0042 0.061069,-0.0137 0.080147,-0.01595 z m 49.0052589,0.604705 c 0.136594,0.01064 0.257973,0.03105 0.368328,0.05718 -0.114646,-0.02223 -0.224728,-0.04666 -0.368328,-0.05718 z m -0.762462,0.100015 c -0.03909,0.02712 -0.05882,0.05792 -0.05604,0.09226 0.0031,0.03431 -0.005,0.06982 -0.02034,0.104368 0.01595,-0.03454 0.02319,-0.0695 0.02029,-0.103838 -0.0031,-0.03431 0.01744,-0.06579 0.05653,-0.09278 z m 2.43011,0.276258 c 0.14774,0.0085 0.303659,0.0542 0.468786,0.116446 -0.311303,-0.01116 -0.594413,-0.03677 -0.845892,-0.08078 0.129133,-0.02901 0.253133,-0.04325 0.377106,-0.03571 z m -21.85843,0.641502 h 4.96e-4 c -0.134019,0.10182 -0.17763,0.245195 -0.150398,0.397094 -0.02721,-0.151899 0.01585,-0.295254 0.149855,-0.397094 z m -0.05915,0.627186 c 0.04632,0.07599 0.108257,0.150281 0.182244,0.218037 h -4.96e-4 c -0.07398,-0.0677 -0.135366,-0.142037 -0.181691,-0.218037 z M 10.69377,67.018922 c 0.0099,-0.0022 0.03617,0.0012 0.04827,-5.2e-5 -0.04603,0.0096 -0.07146,0.02413 -0.09216,0.03953 0.0028,-0.01764 0.01461,-0.03211 0.04389,-0.03953 z m 10.142041,0.06865 c 0.03197,0.516899 0.04147,0.935619 0.01812,1.162721 0.02334,-0.227102 0.01386,-0.645822 -0.01812,-1.162721 z m 16.583753,0.109845 h 4.96e-4 c 0.02932,-0.0012 0.05288,0.03826 0.07077,0.111488 -0.01801,-0.07322 -0.04208,-0.113082 -0.0714,-0.1115 z m -12.055068,0.20047 c -0.378751,1.869502 -0.09543,2.454267 1.132444,3.675455 0.372063,0.370047 0.674976,0.711608 0.928795,1.04135 -0.06163,0.01064 -0.12592,0.03211 -0.197614,0.07419 0.003,-0.05984 -0.08767,-0.179759 -0.20585,-0.270779 -0.01652,-0.01276 -0.03217,-0.01318 -0.04827,-0.0187 0.03715,0.0012 0.07668,0.01341 0.116932,0.04006 0.157617,0.104374 -0.269602,-0.412131 -0.949109,-1.147894 -1.092646,-1.183109 -1.265732,-1.316078 -0.77728,-3.393691 z m -15.7522595,0.04836 c -0.096718,-0.01402 -0.2094728,-0.0085 -0.3145362,0.022 -0.232208,0.06632 -0.1728062,0.139795 0.1515052,0.18674 0.2934718,0.04251 0.4653789,-0.0064 0.382056,-0.109292 -0.041672,-0.05123 -0.1223117,-0.08545 -0.219025,-0.09937 z m 11.7202245,2.591828 c -0.01829,0.371065 0.02978,0.652442 0.115825,0.809569 -0.08919,-0.150262 -0.134917,-0.421656 -0.115825,-0.809569 z m 5.432223,2.11893 c -0.01069,0.135212 0.02466,0.226433 0.08672,0.260336 -0.07551,0.003 -0.107834,-0.07249 -0.08948,-0.250995 4.96e-4,-0.0042 0.0028,-0.0053 0.0031,-0.0096 z m 23.216481,0.310309 c -0.01831,-0.0084 -0.04077,-0.0042 -0.06641,0.01646 -0.102431,0.08343 -0.137384,0.323619 -0.07742,0.533856 0.06635,0.232334 0.139713,0.172903 0.186635,-0.151587 0.03225,-0.220191 0.0123,-0.371778 -0.04283,-0.398747 z m -28.003702,0.202664 c 0.01248,0.303392 0.01589,0.637959 0.01317,1.00893 -0.0016,-0.08917 0.0012,-0.158817 -0.0028,-0.258692 -0.0121,-0.310197 -0.0043,-0.456964 -0.01041,-0.750238 z m 6.331371,1.404927 c 0.0227,0.183329 0.03051,0.371056 0.02307,0.56296 -0.0031,-0.187099 -0.0046,-0.373838 -0.02307,-0.56296 z m -2.18914,1.588377 c -0.0605,0.003 -0.117375,0.01242 -0.167418,0.02688 -0.200185,0.05782 -0.04962,0.137827 0.334847,0.177408 0.384446,0.03954 0.548167,-0.0084 0.363939,-0.105432 -0.138169,-0.07302 -0.349817,-0.109587 -0.531368,-0.09884 z m -2.39059,0.02147 c -0.151827,-0.01754 -0.31596,-0.01764 -0.455609,0.0042 -0.279311,0.04294 -0.130807,0.12147 0.329907,0.174655 0.460712,0.05315 0.689165,0.01807 0.507762,-0.07801 -0.09074,-0.04804 -0.230231,-0.08301 -0.38206,-0.100544 z"
       inkscape:export-filename="peppr.png"
       inkscape:export-xdpi="181.02"
       inkscape:export-ydpi="181.02" />
    <path
       style="fill:#088b05;fill-opacity:1;stroke:#ffffff;stroke-width:1.32292;stroke-dasharray:none;stroke-opacity:1"
       d="m 43.653401,11.476941 c 2.498083,-6.460552 9.307747,-3.941076 9.307747,-3.941076 0,0 4.670284,0.389304 6.42608,-3.259586 1.755817,-3.64888423 7.77288,-0.924385 7.77288,-0.924385 0,0 0.926067,9.727957 0.230432,6.904867 -0.695621,-2.823097 -0.471019,4.786117 4.119795,6.090495 4.590816,1.304384 2.375641,8.330696 2.375641,8.330696 0,0 1.759491,4.592524 -3.980493,3.138136 -5.739975,-1.454391 -6.251795,8.262144 -10.937427,1.040123 -4.685631,-7.222022 -10.398593,-3.25238 -10.398593,-3.25238 0,0 -9.266938,-0.989341 -5.484058,-6.312661 3.782873,-5.32332 0.567996,-7.814229 0.567996,-7.814229 z"
       id="path28" />
    <path
       d="m 105.28256,39.400695 q 0.0366,0.512617 0,0.988619 -0.0366,0.439386 -0.0366,0.915389 -0.0732,0.366155 -0.0366,0.476002 0.0366,0.109846 0.0366,0.183077 -0.0366,0.07323 -0.10979,0.219694 -0.0366,0.146462 -0.0732,0.292924 -0.0732,0.292924 -0.10978,0.622463 -0.0366,0.32954 -0.10979,0.695695 -0.0366,0.183078 -0.10979,0.32954 -0.0732,0.146462 -0.14638,0.292924 -0.10978,0.402771 -0.25617,0.695695 -0.10978,0.256309 -0.21957,0.439386 -0.0732,0.183079 -0.10979,0.329541 0,0.109846 -0.18297,0.146462 0,0.402771 -0.18298,0.585848 -0.18298,0.146462 -0.21958,0.549233 -0.14638,0.183078 -0.25616,0.366155 -0.10979,0.146462 -0.14639,0.439386 -0.18297,0.07323 -0.29276,0.219694 -0.10979,0.109846 -0.21957,0.219693 -0.32936,0.292924 -0.69532,0.585848 -0.32936,0.292924 -0.62212,0.659079 -0.51234,0.109847 -0.65872,0.476002 -0.40255,0.03662 -0.658723,0.292925 -0.32936,-0.109846 -0.365955,-0.03662 0,0.109846 -0.07319,0.146462 -0.365955,0.109846 -0.512337,0.146462 -0.146382,0.07323 -0.292764,0.146462 -0.365955,0.146462 -0.512337,0.183077 -0.146382,0.03662 -0.32936,0.109847 -0.256168,0.07323 -0.402551,0.03662 -0.109786,0 -0.182977,0 -0.292764,-0.03662 -0.585528,-0.03662 -0.256168,0.03662 -0.475741,0.07323 -0.219573,0.03662 -0.585528,0.109847 -0.365956,0.07323 -0.731911,0.03662 -0.292764,-0.03662 -0.512337,-0.146462 -0.219573,-0.07323 -0.32936,-0.109847 -0.219573,0.07323 -0.585528,0 -0.32936,-0.03662 -0.512337,-0.07323 -0.32936,-0.146462 -0.512338,-0.183077 -0.182977,0 -0.365955,-0.03662 -0.219573,-0.03662 -0.439146,-0.07323 -0.182978,-0.03661 -0.365955,-0.109846 -0.07319,-0.03662 -0.219573,-0.03662 -0.109787,0 -0.182978,-0.03661 -0.402551,-0.219693 -0.658719,-0.292924 -0.219573,-0.03662 -0.32936,-0.219695 -0.439146,-0.146462 -0.841696,-0.183077 -0.40255,0 -0.475741,-0.256309 -0.292765,0.109847 -0.585529,-0.07323 -0.292764,-0.183077 -0.475742,-0.366155 -0.146382,0.219693 -0.146382,0.512617 0.0366,0.32954 0.07319,0.659081 0.07319,0.329539 0.07319,0.659079 0.0366,0.32954 -0.109786,0.622464 0.07319,0.256308 0.182978,0.476001 0.109786,0.256309 -0.07319,0.512618 0.182978,0.439386 0.182978,0.659079 0.0366,0.256309 0.0366,0.476002 0.03659,0.183077 -0.146382,0.146462 -0.146383,0 -0.182978,0.146462 0.219573,0.512617 0.256169,1.061851 0.03659,0.585848 0.146382,0.988619 0,0.292924 0.109786,0.439386 0.07319,0.292924 0.219573,0.439386 0.182978,0.146462 0.219573,0.366156 0,0.109846 0,0.292924 0,0.219693 -0.07319,0.292924 -0.109786,0.183077 -0.40255,0.256308 -0.292764,0.109847 -0.548933,-0.109846 -0.768506,0.109846 -1.463821,0.32954 -0.658719,0.219693 -1.39063,0.292924 -0.182977,0.146462 -0.40255,0.256308 -0.219573,0.109847 -0.512337,0.109847 -0.07319,0.183078 -0.182978,0.256309 -0.07319,0.07323 -0.146382,0.146463 -0.256169,0.07323 -0.292764,0.146462 -0.0366,0.07323 -0.109787,0.07323 -0.219573,0 -0.402551,-0.109847 -0.146382,-0.07323 -0.329359,-0.146463 -0.07319,-0.292924 -0.146381,-0.402771 -0.0366,-0.07323 -0.0366,-0.146462 0,-0.07323 0,-0.329539 0.0366,-0.256309 0.07319,-0.476002 0.0366,-0.183078 0.0366,-0.32954 0.0366,-0.146462 0.109785,-0.256308 -0.109785,-0.219693 -0.109785,-0.476002 -0.0366,-0.402771 0.0366,-0.878773 0.109787,-0.476001 0.182978,-0.952003 v -0.952004 q 0.07319,-0.439387 0.146382,-0.878773 0.07319,-0.439386 0.146382,-0.842157 -0.07319,-0.109846 -0.0366,-0.256308 0.0366,-0.109847 0.0366,-0.219694 0,-0.219693 0.0366,-0.476001 0.03659,-0.219693 0.03659,-0.512618 -0.07319,-0.183077 -0.03659,-0.256308 0.03659,-0.07323 0.03659,-0.146462 0,-0.146462 -0.07319,-0.292924 -0.07319,-0.146463 -0.07319,-0.292926 0,-0.07323 0,-0.292924 0.03659,-0.183077 0.07319,-0.366155 0.07319,-0.146462 0.109787,-0.256309 0.03659,-0.109846 0.109786,-0.292924 -0.07319,-0.40277 -0.07319,-0.768926 0,-0.40277 0,-0.805541 v -0.842157 q 0.0366,-0.183077 0.07319,-0.402771 0.07319,-0.219693 0.07319,-0.439387 0,-0.183077 -0.07319,-0.329539 -0.0366,-0.146463 -0.0366,-0.32954 0,-0.146462 0.0366,-0.292924 0.0366,-0.146462 0.0366,-0.292924 0,-0.07323 -0.0366,-0.219694 0,-0.146462 0,-0.219693 0.07319,-0.439386 0.109787,-0.768926 0.07319,-0.329539 0.07319,-0.695694 0.0366,-0.146462 0.0366,-0.256309 0,-0.146462 0,-0.256309 -0.0366,-0.439386 -0.0366,-0.842157 0,-0.402771 0,-0.915389 0.07319,-0.366155 0,-0.512617 -0.0366,-0.146462 -0.0366,-0.292924 0.07319,-0.366155 0.0366,-0.512617 -0.0366,-0.183078 0,-0.256309 0,-0.219693 0.07319,-0.585848 0,-0.256309 -0.07319,-0.439386 -0.0366,-0.219693 0.146382,-0.439387 -0.07319,-0.109846 -0.07319,-0.183077 0.0366,-0.109847 0,-0.219693 0,-0.402772 -0.0366,-0.549234 -0.0366,-0.183078 -0.07319,-0.256309 0,-0.146462 0,-0.256308 0.0366,-0.109847 0.0366,-0.219693 -0.0366,-0.183078 -0.109787,-0.402771 -0.0366,-0.219693 -0.07319,-0.476002 -0.0366,-0.659079 0,-1.318158 0.07319,-0.695695 0,-1.318159 0.07319,-0.366156 0.0366,-0.549234 -0.0366,-0.183078 -0.07319,-0.366155 -0.0366,-0.476002 -0.146382,-0.915388 -0.109787,-0.476002 -0.182978,-0.915388 0.182978,-0.219693 0.439146,-0.32954 0.256169,-0.146462 0.548933,0.07323 0.512337,0.183078 0.951483,0.146462 0.475742,-0.07323 0.841697,-0.183077 0.256169,0 0.402551,-0.07323 0.07319,-0.03662 0.07319,-0.07323 0.32936,-0.03662 0.439146,-0.07323 0.109787,-0.03662 0.256169,-0.03662 0.402551,0.03662 0.768506,0.476002 -0.07319,0.219693 -0.07319,0.439386 0.0366,0.183078 -0.0366,0.402771 0,0.109846 -0.0366,0.219693 -0.0366,0.109847 -0.07319,0.219693 -0.0366,0.146462 0,0.32954 0.03659,0.146462 0,0.256308 -0.07319,0.183078 -0.146382,0.32954 -0.07319,0.146462 -0.07319,0.32954 0.182977,-0.07323 0.329359,-0.183078 0.146382,-0.109846 0.365955,-0.146462 0.219574,-0.292924 0.548933,-0.439386 0.365955,-0.183078 0.65872,-0.439386 0.329359,-0.07323 0.439146,0.07323 0.182977,-0.109847 0.219573,-0.219693 0.0366,-0.146463 0.219572,-0.292925 0.109787,-0.07323 0.256169,-0.109846 0.182977,-0.03662 0.329359,-0.109847 0.146382,-0.07323 0.292764,-0.109846 0.182978,-0.03662 0.292765,-0.146462 0.182977,0.07323 0.329359,0 0.146382,-0.109847 0.32936,-0.183078 0.292764,-0.109846 0.695315,-0.146462 0.182977,-0.07323 0.329359,-0.07323 0.182978,0 0.365956,-0.03662 0.292764,-0.07323 0.622123,-0.146462 0.32936,-0.07323 0.768506,-0.07323 0.182978,0 0.365955,0.07323 0.219574,0.03662 0.475742,0.07323 0.439146,0.07323 0.805102,0.109847 0.40255,0.03662 0.695314,0.292924 0.365955,-0.03661 0.475741,0 0.146382,0 0.219573,0.07323 0.07319,0.07323 0.146382,0.109847 0.07319,0 0.146382,0.03662 0.07319,0.03662 0.109787,0.03662 0.182978,0.183077 0.256169,0.292924 0.109786,0.07323 0.182977,0.109846 0.109787,0.07323 0.256169,0.109847 0.146382,0 0.256168,0.07323 0.256169,0.07323 0.548933,0.256309 0.292764,0.146462 0.695315,0.183077 0.109787,0.109847 0.219573,0.183078 0.146386,0.07323 0.292767,0.183077 0.0732,0.07323 0.18298,0.146462 0.10978,0.07323 0.25616,0.146463 0.32936,0.183077 0.40256,0.256308 0.0732,0.03662 0.18297,0.03662 0.29277,0.32954 0.36596,0.402771 0.0732,0.03662 0.18298,0.146462 0.18297,0.256309 0.25616,0.292925 0.0732,0.03661 0.10979,0.07323 0.10979,0.183077 0.18298,0.329539 0.0732,0.109847 0.25617,0.256309 0.10978,0.07323 0.21957,0.256309 0.14638,0.183077 0.21957,0.329539 l 0.29277,0.292924 q 0.14638,0.146462 0.29276,0.366156 0.18298,0.183077 0.29277,0.40277 0.10978,0.292924 0.18297,0.402771 0.0732,0.109847 0.10979,0.183078 0.0366,0.109846 0.0366,0.219693 0.0366,0.109846 0.10978,0.183077 0.0732,0.07323 0.14638,0.146462 0.0732,0.03662 0.14639,0.183078 0.10978,0.292924 0.18297,0.366156 0.0732,0.07323 0.0732,0.146462 0.0366,0.292924 0.0732,0.439386 0.0366,0.109847 0.0366,0.146463 0.0732,0.146462 0.10979,0.256308 0.0366,0.109847 0.0732,0.219693 0.0366,0.219693 -0.0366,0.439386 -0.0366,0.183078 0.14639,0.366156 -0.0732,0.256308 0,0.476001 0.0732,0.219693 0.0732,0.476002 z m -4.68423,-0.476002 q -0.0732,-0.219693 -0.10979,-0.329539 0,-0.109847 -0.0732,-0.256309 -0.0732,-0.256309 -0.18298,-0.476002 -0.0732,-0.256308 -0.0732,-0.512617 -0.329359,-0.32954 -0.365954,-0.695695 -0.219573,-0.146462 -0.32936,-0.366156 -0.109787,-0.219693 -0.256169,-0.402771 -0.146382,-0.183077 -0.292764,-0.366155 -0.146382,-0.183077 -0.219573,-0.402771 -0.292764,-0.146462 -0.548933,-0.366155 -0.219573,-0.219693 -0.365955,-0.40277 -0.182977,-0.109847 -0.256168,-0.183078 -0.07319,-0.109847 -0.146383,-0.183078 -0.365955,-0.183077 -0.475741,-0.219693 -0.109787,-0.03662 -0.182978,-0.109846 -0.292763,-0.183078 -0.439145,-0.146462 -0.146382,0 -0.219573,-0.146462 -0.439146,0.07323 -0.951484,0.03662 -0.512337,-0.07323 -0.914888,0.03662 -0.109786,-0.07323 -0.219573,-0.109847 -0.109786,-0.07323 -0.182977,-0.183078 -0.109787,-0.07323 -0.219573,-0.146462 -0.07319,-0.109846 -0.256169,-0.07323 -0.439146,0.183078 -0.548933,0.219693 -0.07319,0 -0.219573,0.146463 -0.182978,0.146462 -0.219573,0.219693 -0.0366,0.03661 -0.07319,0.07323 -0.182978,0.07323 -0.292764,0.146462 -0.07319,0.03662 -0.146382,0.07323 -0.292764,0.292924 -0.65872,0.366155 -0.329359,0.03662 -0.512337,0.32954 -0.146382,-0.07323 -0.219573,0.03662 -0.0366,0.07323 -0.219573,0.07323 -0.07319,0.183078 -0.219573,0.292924 -0.146382,0.109847 -0.256169,0.183078 -0.109786,0.07323 -0.219573,0.183078 -0.07319,0.109846 -0.219573,0.03662 -0.0366,0.219693 -0.182977,0.366155 -0.109786,0.109847 -0.292764,0.183078 0,0.183077 -0.146382,0.292924 -0.146382,0.07323 -0.146382,0.329541 -0.292764,0.329539 -0.402551,0.476001 -0.07319,0.146462 -0.146382,0.32954 -0.109786,0.292924 -0.329359,0.585848 -0.182978,0.256309 -0.109787,0.549233 -0.07319,0.439386 -0.146382,0.768926 -0.07319,0.32954 -0.0366,0.695695 0,0.146462 0.0366,0.292924 0.07319,0.109847 0.07319,0.219693 0,0.146462 -0.0366,0.256309 -0.0366,0.07323 -0.0366,0.183077 0,0.292925 0.07319,0.549234 0.07319,0.256309 0.07319,0.549233 0,0.146462 -0.07319,0.292924 -0.0366,0.109847 0,0.292924 0.146382,0.256309 0.256169,0.512617 0.109786,0.256309 0.182977,0.549233 0.256169,0.183078 0.402551,0.476002 0.146382,0.256309 0.219573,0.549233 0.256169,0.146462 0.365955,0.329539 0.146382,0.146462 0.32936,0.32954 0.40255,0.07323 0.841696,0.183078 0.439146,0.07323 0.658719,0.219694 0.219573,0.146462 0.256169,0.219693 0.07319,0.07323 0.146382,0.109846 0.585528,0.183078 0.951483,0.183078 0.402551,-0.03662 0.805102,0.03662 0.329359,0.183077 0.439146,0.219693 0.109786,0 0.182978,0.03661 0.292764,0.07323 0.475741,0.03662 0.219573,-0.07323 0.402551,-0.07323 0.292764,0.07323 0.365955,0.03661 0.07319,-0.07323 0.146382,-0.07323 0.146382,-0.03661 0.256169,0 0.146382,0.03662 0.219573,0 0.365955,-0.146462 0.512337,-0.183077 0.182978,-0.03662 0.292764,-0.109847 0.40255,-0.109847 0.768505,-0.219693 0.365955,-0.109847 0.65872,-0.366156 0.292764,-0.03662 0.475741,-0.183078 0.182978,-0.183078 0.512338,-0.146462 -0.0366,-0.183078 0.07319,-0.219693 0.109786,-0.07323 0.182977,-0.183078 0.146382,-0.03662 0.182978,-0.146462 0.07319,-0.109846 0.219573,-0.146462 0.07319,-0.292924 0.219573,-0.439386 0.182978,-0.146462 0.292764,-0.366155 0.109787,-0.32954 0.256171,-0.512617 0.18298,-0.183078 0.25617,-0.366156 0.0732,-0.219693 0.0366,-0.439386 0,-0.256309 0.0366,-0.476002 0.0366,-0.219693 0.10979,-0.439386 0.0732,-0.219693 0.0732,-0.476002 0.0732,-0.476002 0.10979,-1.098466 0.0366,-0.659079 -0.0366,-0.952004 z m 28.36152,0.695695 q -0.0366,0.512617 0,0.695695 0.0366,0.183078 -0.0732,0.402771 -0.0732,0.146462 -0.29277,0.219693 -0.18298,0.07323 -0.25617,0.219694 -0.21957,-0.07323 -0.47574,-0.03662 -0.25617,0 -0.43914,0.07323 -0.25617,-0.219695 -0.73192,-0.183078 -0.43914,0.03661 -0.73191,-0.183079 -0.21957,0.109847 -0.40255,0.109847 -0.51233,0.07323 -1.09786,-0.03662 -0.54893,-0.109846 -1.13446,-0.183077 -0.40255,-0.03662 -0.8417,-0.03662 -0.43915,0 -0.76851,0 -0.36595,0.07323 -0.58552,0.07323 -0.29277,-0.03662 -0.54894,-0.146462 -0.21957,-0.109846 -0.51233,-0.109846 -0.21958,-0.03662 -0.47575,0.03662 -0.21957,0.03662 -0.43914,0.03662 -0.21958,0 -0.58553,-0.07323 -0.29276,0.03662 -0.40255,0.03662 -0.10979,-0.03662 -0.18298,-0.03662 -0.25617,0 -0.51234,0.03662 -0.21957,0.03662 -0.40255,-0.183077 -0.14638,0.109846 -0.25617,0.146462 -0.10978,0.03662 -0.40255,0.03662 -0.18297,-0.03662 -0.29276,-0.03662 -0.0732,-0.03662 -0.14638,-0.03662 -0.25617,0.07323 -0.43915,0.03662 -0.14638,-0.03662 -0.29276,0.109846 -0.0732,-0.07323 -0.25617,-0.03662 -0.18298,0 -0.25616,-0.07323 -0.47574,-0.07323 -0.76851,0 -0.29276,0.07323 -0.62212,0.07323 -0.29276,0 -0.58553,-0.07323 -0.25617,-0.07323 -0.65872,0 -0.18297,0.329539 -0.14638,0.842158 0.0732,0.476001 0.29276,0.768925 0.0366,0.183078 -0.0366,0.292925 -0.0366,0.109846 -0.0366,0.292924 0.29277,0.40277 0.47575,0.585848 0.21957,0.183078 0.32936,0.366155 0.18297,0.292924 0.43914,0.549233 0.25617,0.256309 0.47574,0.585848 0.0732,0.183078 0.18298,0.292924 0.14638,0.109847 0.25617,0.292925 0.29276,0.07323 0.47573,0.219693 0.21957,0.146463 0.51234,0.32954 0.40255,0.219693 0.54893,0.402771 0.18298,0.146462 0.43915,0.256309 0.18298,0.07323 0.29276,0.07323 0.10979,-0.03662 0.21957,0 0.18298,0.07323 0.40256,0.256308 0.21957,0.183078 0.47574,0.219693 0.40255,-0.03662 0.58553,0 0.18297,0 0.32936,0.03662 0.47574,0.03662 0.87829,-0.219693 0.18298,0 0.29276,0 0.10979,0 0.29277,-0.03662 0.32936,-0.219693 0.47574,-0.219693 0.18298,0 0.29276,-0.07323 0.10979,-0.109846 0.18298,-0.109846 0.10979,-0.03662 0.18298,-0.07323 0.21957,-0.07323 0.36595,-0.183078 0.18298,-0.109847 0.36596,-0.256309 0.25617,-0.146462 0.47574,-0.329539 0.36595,-0.219694 0.62212,-0.622465 0.29277,-0.402771 0.62213,-0.695695 0.0366,-0.439386 0.14638,-0.73231 0.10979,-0.292924 0.29276,-0.549233 0,-0.402771 0.0732,-0.622464 0.10979,-0.256308 0.25617,-0.476002 0.18298,-0.03661 0.32936,-0.07323 0.14638,-0.03662 0.36596,0.03662 0.10978,0.07323 0.18297,0.146462 0.10979,0.03661 0.29277,0.109847 0.10979,0.07323 0.21957,0.109846 0.14638,0 0.40255,0.07323 0.25617,0.109847 0.36596,0.109847 0.10978,0 0.21957,0.03662 0.29277,0.146462 0.51234,0.109847 0.25617,-0.03662 0.43914,0.03662 0.40256,0.292924 0.47575,0.439386 0,0.439387 -0.25617,0.805542 -0.18298,0.402771 -0.18298,0.512617 0.0366,0.07323 0,0.256309 -0.0366,0.109846 -0.10979,0.183077 -0.0732,0.07323 -0.10978,0.219693 -0.0732,0.219694 -0.10979,0.439387 -0.0366,0.183078 -0.14638,0.402771 -0.29277,0.366156 -0.47574,0.549233 -0.14639,0.146462 -0.32936,0.219693 0.0732,0.183078 -0.0732,0.292924 -0.14639,0.07323 -0.21958,0.146462 -0.10978,0.256309 -0.32936,0.402771 -0.18297,0.146462 -0.43914,0.32954 -0.29277,0.256308 -0.62213,0.439386 -0.29276,0.183078 -0.58553,0.366155 -0.40255,0.32954 -0.54893,0.476002 -0.14638,0.109847 -0.36595,0.183078 -0.18298,0.07323 -0.29277,0.146462 -0.0732,0.03661 -0.10978,0.03661 -0.18298,0.07323 -0.40255,0.07323 -0.21958,0 -0.43915,0.07323 -0.40255,0.146462 -0.69532,0.183078 -0.29276,0.07323 -0.58552,0.146462 -0.18298,0.07323 -0.32936,0.109846 -0.14639,0.03662 -0.43915,0 -0.36595,-0.07323 -0.54893,0.03662 -0.18298,0.109848 -0.36596,-0.03662 -0.40255,0.07323 -0.69531,0.146464 -0.25617,0.07323 -0.47574,0.03662 -0.10979,0 -0.21958,-0.03662 -0.10978,-0.03662 -0.21957,-0.07323 -0.69532,-0.109847 -1.13446,-0.146463 -0.40255,-0.03662 -0.73191,-0.146462 -0.10979,-0.03662 -0.21957,-0.03662 -0.10979,0 -0.18298,-0.146462 -0.36596,0.07323 -0.69531,-0.07323 -0.29276,-0.183078 -0.47574,-0.366155 -0.10979,0 -0.21957,-0.03662 -0.0732,-0.03662 -0.18298,-0.07323 -0.25617,-0.109847 -0.51234,-0.219693 -0.25617,-0.146462 -0.40255,-0.439386 -0.29276,0 -0.43914,-0.146462 -0.10979,-0.146462 -0.29277,-0.292925 -0.29276,0 -0.54893,-0.146462 -0.21957,-0.183077 -0.36596,-0.40277 -0.29276,-0.366156 -0.54893,-0.585849 -0.40255,-0.40277 -0.62212,-0.659079 -0.21958,-0.292924 -0.54894,-0.402771 -0.0732,-0.219693 -0.21957,-0.366156 -0.14638,-0.146462 -0.29276,-0.32954 -0.18298,-0.366155 -0.25617,-0.476001 -0.0732,-0.109847 -0.14638,-0.183078 -0.0732,-0.292924 -0.14639,-0.549233 -0.0366,-0.292924 -0.10978,-0.585848 -0.10979,-0.402771 -0.10979,-0.585848 0,-0.183078 -0.0366,-0.366155 -0.0366,-0.109847 -0.10979,-0.219693 -0.0366,-0.109847 -0.0732,-0.219694 -0.0366,-0.183077 -0.0366,-0.366155 0.0366,-0.183077 0,-0.40277 -0.0366,-0.183078 -0.0732,-0.329541 -0.0366,-0.183078 -0.0366,-0.366155 0,-0.256309 0.0366,-0.512618 0.0366,-0.292924 0.0366,-0.585848 0,-0.07323 -0.0366,-0.183077 0,-0.146463 0,-0.219694 0.0366,-0.183077 0.10979,-0.366155 0.10978,-0.219693 0.14638,-0.40277 -0.0732,-0.32954 -0.0366,-0.476002 0.0732,-0.146462 0,-0.219693 0.0732,-0.07323 0.10979,-0.183078 0.0366,-0.146462 0.0732,-0.219693 0.0366,-0.109847 0.0366,-0.256309 0,-0.146462 0.0732,-0.329539 0.18298,-0.292925 0.21957,-0.329541 0.0732,-0.07323 0.10979,-0.109847 0.0366,-0.256308 0.0732,-0.329539 0.0366,-0.109847 0.10979,-0.183078 0.18297,-0.366155 0.21957,-0.439386 0.0732,-0.07323 0.10979,-0.146462 0.0366,-0.292924 0.0732,-0.32954 0.0366,-0.03661 0.0732,-0.109846 0.0732,-0.219693 0.0732,-0.366155 0.0366,-0.183078 0.10979,-0.366156 0.0732,-0.183077 0.18297,-0.366155 0.10979,-0.219693 0.29277,-0.366155 0.18297,-0.439386 0.32936,-0.73231 0.14638,-0.32954 0.29276,-0.622465 0.32936,-0.256309 0.54893,-0.585849 0.25617,-0.329539 0.58553,-0.585848 0.0732,-0.07323 0.14638,-0.07323 0.10979,-0.03661 0.25617,-0.109846 0.40255,-0.292925 0.58553,-0.439387 0.18298,-0.183077 0.43915,-0.292924 0.21957,-0.07323 0.65872,-0.07323 0.47574,-0.03662 0.65872,-0.292924 0.21957,0 0.43913,-0.07323 0.21958,-0.109847 0.43915,-0.219693 0.14638,-0.07323 0.32936,-0.146462 0.18298,-0.109847 0.51234,-0.07323 0.25616,0.03662 0.47574,0.03662 0.25617,-0.03662 0.54893,-0.109846 0.14638,-0.03662 0.32936,-0.07323 0.18298,-0.03662 0.40255,-0.03662 0.54893,0.07323 0.8417,0.07323 0.32936,0 0.73191,0.03662 0.18298,0 0.36595,-0.03662 0.21958,-0.07323 0.43915,-0.07323 0.18298,0.03662 0.32936,0.03662 0.18298,0 0.36595,0.03662 0.25617,0.07323 0.29277,0.07323 0.0732,0 0.10978,0 0.18298,0.03662 0.29277,0.146462 0.14638,0.07323 0.32936,0.146462 0.0732,0.07323 0.18298,0.07323 0.14638,0 0.21957,0.07323 0.14638,0.03662 0.43915,0.183077 0.25616,0.07323 0.47574,0.146462 0.21957,0.07323 0.29276,0.32954 0.40255,0.109846 0.58553,0.292924 0.21957,0.183078 0.40255,0.292924 0.14638,0.109847 0.29276,0.32954 0.14639,0.183077 0.32936,0.292924 0.0366,0.109846 0.0732,0.183078 0.0732,0.07323 0.10979,0.219693 0.29277,0.183077 0.51234,0.476002 0.21957,0.256309 0.62212,0.402771 0.10979,0.256309 0.25617,0.439386 0.14638,0.183078 0.18298,0.512618 0.0732,0.109846 0.14638,0.256308 0.10979,0.109847 0.21957,0.292924 0.0366,0.07323 0.10979,0.183078 0.10979,0.109846 0.14638,0.219693 0.18298,0.402771 0.40255,0.768926 0.0732,0.109846 0.18298,0.256309 0.14638,0.146462 0.21957,0.329539 0.0366,0.146462 0.0366,0.292924 0,0.146462 0.0366,0.292925 0.0732,0.183077 0.10978,0.32954 0.0366,0.109847 0.0732,0.183078 0.0732,0.292924 0.0366,0.585848 -0.0366,0.256309 0,0.549233 0.0366,0.219693 0.0366,0.476002 0.0366,0.219693 0.0732,0.439386 0,0.292924 0.0366,0.476002 z m -5.23316,-2.929241 q 0.0732,-0.07323 0,-0.256309 -0.0366,-0.183078 -0.18298,-0.256309 -0.0732,-0.256309 -0.21957,-0.292925 -0.10979,-0.07323 0,-0.219693 -0.10979,-0.109846 -0.29277,-0.183077 -0.18297,-0.07323 -0.14638,-0.292924 -0.18298,0.03662 -0.25617,-0.07323 -0.0366,-0.146462 -0.10978,-0.183077 -0.25617,-0.183078 -0.32936,-0.366155 -0.0732,-0.183078 -0.21958,-0.292924 -0.10978,-0.07323 -0.25617,0 -0.10978,0.03662 -0.10978,-0.183078 -0.58553,0.03662 -0.91489,-0.183078 -0.29276,-0.256308 -0.58553,-0.549232 -0.32936,0.07323 -0.73191,0.03662 -0.40255,-0.03662 -0.7685,0 -0.29277,-0.183077 -0.54894,-0.146462 -0.21957,0 -0.54893,-0.109847 -0.14638,-0.03662 -0.18298,-0.146462 0,-0.146462 -0.18298,-0.146462 -0.25616,0.109847 -0.51233,0 -0.21958,-0.109846 -0.51234,-0.146462 -0.29276,0.183078 -0.62212,0.256309 -0.32936,0.03662 -0.65872,0.146462 -0.18297,0.07323 -0.40254,0.366155 -0.21958,0.256309 -0.32936,0.366155 -0.25617,0.292924 -0.51234,0.585849 -0.25617,0.292924 -0.47574,0.585848 0.0366,0.219693 -0.0366,0.366155 -0.0732,0.109847 -0.0366,0.292924 -0.25617,0.183078 -0.36596,0.585849 -0.0732,0.366156 -0.14638,0.732311 0.25617,0.03662 0.58553,0 0.32936,-0.03662 0.69531,-0.07323 0.10979,-0.03662 0.21958,-0.03662 0.14638,0 0.25616,0 0.54893,-0.109846 0.95148,-0.07323 0.40255,0 0.73191,-0.03661 0.36595,0 0.69531,-0.03662 0.36596,-0.07323 0.65872,0.07323 0.40255,-0.183077 0.91489,-0.146462 0.54893,0.03662 0.87829,0.07323 0.29277,0 0.32936,-0.03661 0.0366,-0.03662 0.0732,0 1.06127,-0.07323 2.08595,0.07323 1.06127,0.109846 2.12254,-0.07323 z m 31.50874,2.709548 q 0.0366,0.512617 0,0.988619 -0.0366,0.439386 -0.0366,0.915389 -0.0732,0.366155 -0.0366,0.476002 0.0366,0.109846 0.0366,0.183077 -0.0366,0.07323 -0.10979,0.219694 -0.0366,0.146462 -0.0732,0.292924 -0.0732,0.292924 -0.10978,0.622463 -0.0366,0.32954 -0.10979,0.695695 -0.0366,0.183078 -0.10979,0.32954 -0.0732,0.146462 -0.14638,0.292924 -0.10979,0.402771 -0.25617,0.695695 -0.10978,0.256309 -0.21957,0.439386 -0.0732,0.183079 -0.10979,0.329541 0,0.109846 -0.18297,0.146462 0,0.402771 -0.18298,0.585848 -0.18298,0.146462 -0.21958,0.549233 -0.14638,0.183078 -0.25616,0.366155 -0.10979,0.146462 -0.14639,0.439386 -0.18297,0.07323 -0.29276,0.219694 -0.10979,0.109846 -0.21957,0.219693 -0.32936,0.292924 -0.69532,0.585848 -0.32936,0.292924 -0.62212,0.659079 -0.51234,0.109847 -0.65872,0.476002 -0.40255,0.03662 -0.65872,0.292925 -0.32936,-0.109846 -0.36596,-0.03662 0,0.109846 -0.0732,0.146462 -0.36595,0.109846 -0.51233,0.146462 -0.14639,0.07323 -0.29277,0.146462 -0.36595,0.146462 -0.51234,0.183077 -0.14638,0.03662 -0.32935,0.109847 -0.25617,0.07323 -0.40256,0.03662 -0.10978,0 -0.18297,0 -0.29277,-0.03662 -0.58553,-0.03662 -0.25617,0.03662 -0.47574,0.07323 -0.21958,0.03662 -0.58553,0.109847 -0.36596,0.07323 -0.73191,0.03662 -0.29277,-0.03662 -0.51234,-0.146462 -0.21957,-0.07323 -0.32936,-0.109847 -0.21957,0.07323 -0.58553,0 -0.32936,-0.03662 -0.51233,-0.07323 -0.32936,-0.146462 -0.51234,-0.183077 -0.18298,0 -0.36596,-0.03662 -0.21957,-0.03662 -0.43914,-0.07323 -0.18298,-0.03661 -0.36596,-0.109846 -0.0732,-0.03662 -0.21957,-0.03662 -0.10979,0 -0.18298,-0.03661 -0.40255,-0.219693 -0.65872,-0.292924 -0.21957,-0.03662 -0.32936,-0.219695 -0.43914,-0.146462 -0.84169,-0.183077 -0.40256,0 -0.47575,-0.256309 -0.29276,0.109847 -0.58552,-0.07323 -0.29277,-0.183077 -0.47575,-0.366155 -0.14638,0.219693 -0.14638,0.512617 0.0366,0.32954 0.0732,0.659081 0.0732,0.329539 0.0732,0.659079 0.0366,0.32954 -0.10978,0.622464 0.0732,0.256308 0.18297,0.476001 0.10979,0.256309 -0.0732,0.512618 0.18298,0.439386 0.18298,0.659079 0.0366,0.256309 0.0366,0.476002 0.0366,0.183077 -0.14639,0.146462 -0.14638,0 -0.18297,0.146462 0.21957,0.512617 0.25617,1.061851 0.0366,0.585848 0.14638,0.988619 0,0.292924 0.10978,0.439386 0.0732,0.292924 0.21958,0.439386 0.18297,0.146462 0.21957,0.366156 0,0.109846 0,0.292924 0,0.219693 -0.0732,0.292924 -0.10979,0.183077 -0.40255,0.256308 -0.29277,0.109847 -0.54893,-0.109846 -0.76851,0.109846 -1.46382,0.32954 -0.65872,0.219693 -1.39063,0.292924 -0.18298,0.146462 -0.40256,0.256308 -0.21957,0.109847 -0.51233,0.109847 -0.0732,0.183078 -0.18298,0.256309 -0.0732,0.07323 -0.14638,0.146463 -0.25617,0.07323 -0.29277,0.146462 -0.0366,0.07323 -0.10978,0.07323 -0.21958,0 -0.40255,-0.109847 -0.14639,-0.07323 -0.32936,-0.146463 -0.0732,-0.292924 -0.14639,-0.402771 -0.0366,-0.07323 -0.0366,-0.146462 0,-0.07323 0,-0.329539 0.0366,-0.256309 0.0732,-0.476002 0.0366,-0.183078 0.0366,-0.32954 0.0366,-0.146462 0.10978,-0.256308 -0.10978,-0.219693 -0.10978,-0.476002 -0.0366,-0.402771 0.0366,-0.878773 0.10979,-0.476001 0.18298,-0.952003 v -0.952004 q 0.0732,-0.439387 0.14638,-0.878773 0.0732,-0.439386 0.14638,-0.842157 -0.0732,-0.109846 -0.0366,-0.256308 0.0366,-0.109847 0.0366,-0.219694 0,-0.219693 0.0366,-0.476001 0.0366,-0.219693 0.0366,-0.512618 -0.0732,-0.183077 -0.0366,-0.256308 0.0366,-0.07323 0.0366,-0.146462 0,-0.146462 -0.0732,-0.292924 -0.0732,-0.146463 -0.0732,-0.292926 0,-0.07323 0,-0.292924 0.0366,-0.183077 0.0732,-0.366155 0.0732,-0.146462 0.10979,-0.256309 0.0366,-0.109846 0.10979,-0.292924 -0.0732,-0.40277 -0.0732,-0.768926 0,-0.40277 0,-0.805541 v -0.842157 q 0.0366,-0.183077 0.0732,-0.402771 0.0732,-0.219693 0.0732,-0.439387 0,-0.183077 -0.0732,-0.329539 -0.0366,-0.146463 -0.0366,-0.32954 0,-0.146462 0.0366,-0.292924 0.0366,-0.146462 0.0366,-0.292924 0,-0.07323 -0.0366,-0.219694 0,-0.146462 0,-0.219693 0.0732,-0.439386 0.10978,-0.768926 0.0732,-0.329539 0.0732,-0.695694 0.0366,-0.146462 0.0366,-0.256309 0,-0.146462 0,-0.256309 -0.0366,-0.439386 -0.0366,-0.842157 0,-0.402771 0,-0.915389 0.0732,-0.366155 0,-0.512617 -0.0366,-0.146462 -0.0366,-0.292924 0.0732,-0.366155 0.0366,-0.512617 -0.0366,-0.183078 0,-0.256309 0,-0.219693 0.0732,-0.585848 0,-0.256309 -0.0732,-0.439386 -0.0366,-0.219693 0.14639,-0.439387 -0.0732,-0.109846 -0.0732,-0.183077 0.0366,-0.109847 0,-0.219693 0,-0.402772 -0.0366,-0.549234 -0.0366,-0.183078 -0.0732,-0.256309 0,-0.146462 0,-0.256308 0.0366,-0.109847 0.0366,-0.219693 -0.0366,-0.183078 -0.10978,-0.402771 -0.0366,-0.219693 -0.0732,-0.476002 -0.0366,-0.659079 0,-1.318158 0.0732,-0.695695 0,-1.318159 0.0732,-0.366156 0.0366,-0.549234 -0.0366,-0.183078 -0.0732,-0.366155 -0.0366,-0.476002 -0.14638,-0.915388 -0.10979,-0.476002 -0.18298,-0.915388 0.18298,-0.219693 0.43915,-0.32954 0.25617,-0.146462 0.54893,0.07323 0.51234,0.183078 0.95148,0.146462 0.47574,-0.07323 0.8417,-0.183077 0.25617,0 0.40255,-0.07323 0.0732,-0.03662 0.0732,-0.07323 0.32936,-0.03662 0.43915,-0.07323 0.10978,-0.03662 0.25617,-0.03662 0.40255,0.03662 0.7685,0.476002 -0.0732,0.219693 -0.0732,0.439386 0.0366,0.183078 -0.0366,0.402771 0,0.109846 -0.0366,0.219693 -0.0366,0.109847 -0.0732,0.219693 -0.0366,0.146462 0,0.32954 0.0366,0.146462 0,0.256308 -0.0732,0.183078 -0.14638,0.32954 -0.0732,0.146462 -0.0732,0.32954 0.18297,-0.07323 0.32936,-0.183078 0.14638,-0.109846 0.36595,-0.146462 0.21957,-0.292924 0.54893,-0.439386 0.36596,-0.183078 0.65872,-0.439386 0.32936,-0.07323 0.43915,0.07323 0.18298,-0.109847 0.21957,-0.219693 0.0366,-0.146463 0.21958,-0.292925 0.10978,-0.07323 0.25616,-0.109846 0.18298,-0.03662 0.32936,-0.109847 0.14639,-0.07323 0.29277,-0.109846 0.18298,-0.03662 0.29276,-0.146462 0.18298,0.07323 0.32936,0 0.14638,-0.109847 0.32936,-0.183078 0.29277,-0.109846 0.69532,-0.146462 0.18297,-0.07323 0.32936,-0.07323 0.18297,0 0.36595,-0.03662 0.29277,-0.07323 0.62213,-0.146462 0.32935,-0.07323 0.7685,-0.07323 0.18298,0 0.36596,0.07323 0.21957,0.03662 0.47574,0.07323 0.43914,0.07323 0.8051,0.109847 0.40255,0.03662 0.69531,0.292924 0.36596,-0.03661 0.47575,0 0.14638,0 0.21957,0.07323 0.0732,0.07323 0.14638,0.109847 0.0732,0 0.14638,0.03662 0.0732,0.03662 0.10979,0.03662 0.18298,0.183077 0.25617,0.292924 0.10979,0.07323 0.18298,0.109846 0.10978,0.07323 0.25616,0.109847 0.14639,0 0.25617,0.07323 0.25617,0.07323 0.54894,0.256309 0.29276,0.146462 0.69531,0.183077 0.10979,0.109847 0.21957,0.183078 0.14639,0.07323 0.29277,0.183077 0.0732,0.07323 0.18298,0.146462 0.10978,0.07323 0.25616,0.146463 0.32936,0.183077 0.40256,0.256308 0.0732,0.03662 0.18297,0.03662 0.29277,0.32954 0.36596,0.402771 0.0732,0.03662 0.18298,0.146462 0.18297,0.256309 0.25616,0.292925 0.0732,0.03661 0.10979,0.07323 0.10979,0.183077 0.18298,0.329539 0.0732,0.109847 0.25617,0.256309 0.10978,0.07323 0.21957,0.256309 0.14638,0.183077 0.21957,0.329539 l 0.29277,0.292924 q 0.14638,0.146462 0.29276,0.366156 0.18298,0.183077 0.29277,0.40277 0.10978,0.292924 0.18297,0.402771 0.0732,0.109847 0.10979,0.183078 0.0366,0.109846 0.0366,0.219693 0.0366,0.109846 0.10978,0.183077 0.0732,0.07323 0.14638,0.146462 0.0732,0.03662 0.14639,0.183078 0.10978,0.292924 0.18297,0.366156 0.0732,0.07323 0.0732,0.146462 0.0366,0.292924 0.0732,0.439386 0.0366,0.109847 0.0366,0.146463 0.0732,0.146462 0.10979,0.256308 0.0366,0.109847 0.0732,0.219693 0.0366,0.219693 -0.0366,0.439386 -0.0366,0.183078 0.14639,0.366156 -0.0732,0.256308 0,0.476001 0.0732,0.219693 0.0732,0.476002 z m -4.68423,-0.476002 q -0.0732,-0.219693 -0.10979,-0.329539 0,-0.109847 -0.0732,-0.256309 -0.0732,-0.256309 -0.18298,-0.476002 -0.0732,-0.256308 -0.0732,-0.512617 -0.32936,-0.32954 -0.36595,-0.695695 -0.21957,-0.146462 -0.32936,-0.366156 -0.10979,-0.219693 -0.25617,-0.402771 -0.14638,-0.183077 -0.29276,-0.366155 -0.14639,-0.183077 -0.21958,-0.402771 -0.29276,-0.146462 -0.54893,-0.366155 -0.21957,-0.219693 -0.36595,-0.40277 -0.18298,-0.109847 -0.25617,-0.183078 -0.0732,-0.109847 -0.14639,-0.183078 -0.36595,-0.183077 -0.47574,-0.219693 -0.10978,-0.03662 -0.18298,-0.109846 -0.29276,-0.183078 -0.43914,-0.146462 -0.14638,0 -0.21957,-0.146462 -0.43915,0.07323 -0.95149,0.03662 -0.51234,-0.07323 -0.91489,0.03662 -0.10978,-0.07323 -0.21957,-0.109847 -0.10979,-0.07323 -0.18298,-0.183078 -0.10978,-0.07323 -0.21957,-0.146462 -0.0732,-0.109846 -0.25617,-0.07323 -0.43914,0.183078 -0.54893,0.219693 -0.0732,0 -0.21957,0.146463 -0.18298,0.146462 -0.21958,0.219693 -0.0366,0.03661 -0.0732,0.07323 -0.18298,0.07323 -0.29276,0.146462 -0.0732,0.03662 -0.14638,0.07323 -0.29277,0.292924 -0.65872,0.366155 -0.32936,0.03662 -0.51234,0.32954 -0.14638,-0.07323 -0.21957,0.03662 -0.0366,0.07323 -0.21958,0.07323 -0.0732,0.183078 -0.21957,0.292924 -0.14638,0.109847 -0.25617,0.183078 -0.10979,0.07323 -0.21957,0.183078 -0.0732,0.109846 -0.21958,0.03662 -0.0366,0.219693 -0.18297,0.366155 -0.10979,0.109847 -0.29277,0.183078 0,0.183077 -0.14638,0.292924 -0.14638,0.07323 -0.14638,0.329541 -0.29277,0.329539 -0.40255,0.476001 -0.0732,0.146462 -0.14638,0.32954 -0.10979,0.292924 -0.32936,0.585848 -0.18298,0.256309 -0.10979,0.549233 -0.0732,0.439386 -0.14638,0.768926 -0.0732,0.32954 -0.0366,0.695695 0,0.146462 0.0366,0.292924 0.0732,0.109847 0.0732,0.219693 0,0.146462 -0.0366,0.256309 -0.0366,0.07323 -0.0366,0.183077 0,0.292925 0.0732,0.549234 0.0732,0.256309 0.0732,0.549233 0,0.146462 -0.0732,0.292924 -0.0366,0.109847 0,0.292924 0.14638,0.256309 0.25617,0.512617 0.10978,0.256309 0.18298,0.549233 0.25616,0.183078 0.40255,0.476002 0.14638,0.256309 0.21957,0.549233 0.25617,0.146462 0.36595,0.329539 0.14639,0.146462 0.32936,0.32954 0.40255,0.07323 0.8417,0.183078 0.43915,0.07323 0.65872,0.219694 0.21957,0.146462 0.25617,0.219693 0.0732,0.07323 0.14638,0.109846 0.58553,0.183078 0.95148,0.183078 0.40255,-0.03662 0.80511,0.03662 0.32936,0.183077 0.43914,0.219693 0.10979,0 0.18298,0.03661 0.29276,0.07323 0.47574,0.03662 0.21957,-0.07323 0.40255,-0.07323 0.29277,0.07323 0.36596,0.03661 0.0732,-0.07323 0.14638,-0.07323 0.14638,-0.03661 0.25617,0 0.14638,0.03662 0.21957,0 0.36596,-0.146462 0.51234,-0.183077 0.18298,-0.03662 0.29276,-0.109847 0.40255,-0.109847 0.76851,-0.219693 0.36595,-0.109847 0.65872,-0.366156 0.29276,-0.03662 0.47574,-0.183078 0.18298,-0.183078 0.51234,-0.146462 -0.0366,-0.183078 0.0732,-0.219693 0.10978,-0.07323 0.18298,-0.183078 0.14638,-0.03662 0.18297,-0.146462 0.0732,-0.109846 0.21958,-0.146462 0.0732,-0.292924 0.21957,-0.439386 0.18298,-0.146462 0.29276,-0.366155 0.10979,-0.32954 0.25617,-0.512617 0.18298,-0.183078 0.25617,-0.366156 0.0732,-0.219693 0.0366,-0.439386 0,-0.256309 0.0366,-0.476002 0.0366,-0.219693 0.10979,-0.439386 0.0732,-0.219693 0.0732,-0.476002 0.0732,-0.476002 0.10979,-1.098466 0.0366,-0.659079 -0.0366,-0.952004 z m 31.14279,0.476002 q 0.0366,0.512617 0,0.988619 -0.0366,0.439386 -0.0366,0.915389 -0.0732,0.366155 -0.0366,0.476002 0.0366,0.109846 0.0366,0.183077 -0.0366,0.07323 -0.10979,0.219694 -0.0366,0.146462 -0.0732,0.292924 -0.0732,0.292924 -0.10978,0.622463 -0.0366,0.32954 -0.10979,0.695695 -0.0366,0.183078 -0.10979,0.32954 -0.0732,0.146462 -0.14638,0.292924 -0.10979,0.402771 -0.25617,0.695695 -0.10978,0.256309 -0.21957,0.439386 -0.0732,0.183079 -0.10979,0.329541 0,0.109846 -0.18297,0.146462 0,0.402771 -0.18298,0.585848 -0.18298,0.146462 -0.21958,0.549233 -0.14638,0.183078 -0.25616,0.366155 -0.10979,0.146462 -0.14639,0.439386 -0.18297,0.07323 -0.29276,0.219694 -0.10979,0.109846 -0.21957,0.219693 -0.32936,0.292924 -0.69532,0.585848 -0.32936,0.292924 -0.62212,0.659079 -0.51234,0.109847 -0.65872,0.476002 -0.40255,0.03662 -0.65872,0.292925 -0.32936,-0.109846 -0.36596,-0.03662 0,0.109846 -0.0732,0.146462 -0.36595,0.109846 -0.51233,0.146462 -0.14639,0.07323 -0.29277,0.146462 -0.36595,0.146462 -0.51234,0.183077 -0.14638,0.03662 -0.32936,0.109847 -0.25616,0.07323 -0.40255,0.03662 -0.10978,0 -0.18297,0 -0.29277,-0.03662 -0.58553,-0.03662 -0.25617,0.03662 -0.47574,0.07323 -0.21958,0.03662 -0.58553,0.109847 -0.36596,0.07323 -0.73191,0.03662 -0.29277,-0.03662 -0.51234,-0.146462 -0.21957,-0.07323 -0.32936,-0.109847 -0.21957,0.07323 -0.58553,0 -0.32936,-0.03662 -0.51233,-0.07323 -0.32936,-0.146462 -0.51234,-0.183077 -0.18298,0 -0.36596,-0.03662 -0.21957,-0.03662 -0.43914,-0.07323 -0.18298,-0.03661 -0.36596,-0.109846 -0.0732,-0.03662 -0.21957,-0.03662 -0.10979,0 -0.18298,-0.03661 -0.40255,-0.219693 -0.65872,-0.292924 -0.21957,-0.03662 -0.32936,-0.219695 -0.43914,-0.146462 -0.8417,-0.183077 -0.40255,0 -0.47574,-0.256309 -0.29276,0.109847 -0.58553,-0.07323 -0.29276,-0.183077 -0.47574,-0.366155 -0.14638,0.219693 -0.14638,0.512617 0.0366,0.32954 0.0732,0.659081 0.0732,0.329539 0.0732,0.659079 0.0366,0.32954 -0.10978,0.622464 0.0732,0.256308 0.18297,0.476001 0.10979,0.256309 -0.0732,0.512618 0.18298,0.439386 0.18298,0.659079 0.0366,0.256309 0.0366,0.476002 0.0366,0.183077 -0.14639,0.146462 -0.14638,0 -0.18297,0.146462 0.21957,0.512617 0.25617,1.061851 0.0366,0.585848 0.14638,0.988619 0,0.292924 0.10978,0.439386 0.0732,0.292924 0.21958,0.439386 0.18297,0.146462 0.21957,0.366156 0,0.109846 0,0.292924 0,0.219693 -0.0732,0.292924 -0.10979,0.183077 -0.40255,0.256308 -0.29277,0.109847 -0.54893,-0.109846 -0.76851,0.109846 -1.46383,0.32954 -0.65871,0.219693 -1.39062,0.292924 -0.18298,0.146462 -0.40256,0.256308 -0.21957,0.109847 -0.51233,0.109847 -0.0732,0.183078 -0.18298,0.256309 -0.0732,0.07323 -0.14638,0.146463 -0.25617,0.07323 -0.29277,0.146462 -0.0366,0.07323 -0.10978,0.07323 -0.21958,0 -0.40255,-0.109847 -0.14639,-0.07323 -0.32936,-0.146463 -0.0732,-0.292924 -0.14639,-0.402771 -0.0366,-0.07323 -0.0366,-0.146462 0,-0.07323 0,-0.329539 0.0366,-0.256309 0.0732,-0.476002 0.0366,-0.183078 0.0366,-0.32954 0.0366,-0.146462 0.10978,-0.256308 -0.10978,-0.219693 -0.10978,-0.476002 -0.0366,-0.402771 0.0366,-0.878773 0.10979,-0.476001 0.18298,-0.952003 v -0.952004 q 0.0732,-0.439387 0.14638,-0.878773 0.0732,-0.439386 0.14638,-0.842157 -0.0732,-0.109846 -0.0366,-0.256308 0.0366,-0.109847 0.0366,-0.219694 0,-0.219693 0.0366,-0.476001 0.0366,-0.219693 0.0366,-0.512618 -0.0732,-0.183077 -0.0366,-0.256308 0.0366,-0.07323 0.0366,-0.146462 0,-0.146462 -0.0732,-0.292924 -0.0732,-0.146463 -0.0732,-0.292926 0,-0.07323 0,-0.292924 0.0366,-0.183077 0.0732,-0.366155 0.0732,-0.146462 0.10979,-0.256309 0.0366,-0.109846 0.10979,-0.292924 -0.0732,-0.40277 -0.0732,-0.768926 0,-0.40277 0,-0.805541 v -0.842157 q 0.0366,-0.183077 0.0732,-0.402771 0.0732,-0.219693 0.0732,-0.439387 0,-0.183077 -0.0732,-0.329539 -0.0366,-0.146463 -0.0366,-0.32954 0,-0.146462 0.0366,-0.292924 0.0366,-0.146462 0.0366,-0.292924 0,-0.07323 -0.0366,-0.219694 0,-0.146462 0,-0.219693 0.0732,-0.439386 0.10978,-0.768926 0.0732,-0.329539 0.0732,-0.695694 0.0366,-0.146462 0.0366,-0.256309 0,-0.146462 0,-0.256309 -0.0366,-0.439386 -0.0366,-0.842157 0,-0.402771 0,-0.915389 0.0732,-0.366155 0,-0.512617 -0.0366,-0.146462 -0.0366,-0.292924 0.0732,-0.366155 0.0366,-0.512617 -0.0366,-0.183078 0,-0.256309 0,-0.219693 0.0732,-0.585848 0,-0.256309 -0.0732,-0.439386 -0.0366,-0.219693 0.14639,-0.439387 -0.0732,-0.109846 -0.0732,-0.183077 0.0366,-0.109847 0,-0.219693 0,-0.402772 -0.0366,-0.549234 -0.0366,-0.183078 -0.0732,-0.256309 0,-0.146462 0,-0.256308 0.0366,-0.109847 0.0366,-0.219693 -0.0366,-0.183078 -0.10978,-0.402771 -0.0366,-0.219693 -0.0732,-0.476002 -0.0366,-0.659079 0,-1.318158 0.0732,-0.695695 0,-1.318159 0.0732,-0.366156 0.0366,-0.549234 -0.0366,-0.183078 -0.0732,-0.366155 -0.0366,-0.476002 -0.14638,-0.915388 -0.10979,-0.476002 -0.18298,-0.915388 0.18298,-0.219693 0.43915,-0.32954 0.25617,-0.146462 0.54893,0.07323 0.51234,0.183078 0.95148,0.146462 0.47574,-0.07323 0.8417,-0.183077 0.25617,0 0.40255,-0.07323 0.0732,-0.03662 0.0732,-0.07323 0.32936,-0.03662 0.43915,-0.07323 0.10978,-0.03662 0.25617,-0.03662 0.40255,0.03662 0.7685,0.476002 -0.0732,0.219693 -0.0732,0.439386 0.0366,0.183078 -0.0366,0.402771 0,0.109846 -0.0366,0.219693 -0.0366,0.109847 -0.0732,0.219693 -0.0366,0.146462 0,0.32954 0.0366,0.146462 0,0.256308 -0.0732,0.183078 -0.14638,0.32954 -0.0732,0.146462 -0.0732,0.32954 0.18297,-0.07323 0.32936,-0.183078 0.14638,-0.109846 0.36595,-0.146462 0.21957,-0.292924 0.54893,-0.439386 0.36596,-0.183078 0.65872,-0.439386 0.32936,-0.07323 0.43915,0.07323 0.18298,-0.109847 0.21957,-0.219693 0.0366,-0.146463 0.21958,-0.292925 0.10978,-0.07323 0.25616,-0.109846 0.18298,-0.03662 0.32936,-0.109847 0.14639,-0.07323 0.29277,-0.109846 0.18298,-0.03662 0.29276,-0.146462 0.18298,0.07323 0.32936,0 0.14638,-0.109847 0.32936,-0.183078 0.29277,-0.109846 0.69532,-0.146462 0.18297,-0.07323 0.32936,-0.07323 0.18297,0 0.36595,-0.03662 0.29277,-0.07323 0.62213,-0.146462 0.32935,-0.07323 0.7685,-0.07323 0.18298,0 0.36596,0.07323 0.21957,0.03662 0.47574,0.07323 0.43914,0.07323 0.8051,0.109847 0.40255,0.03662 0.69531,0.292924 0.36596,-0.03661 0.47575,0 0.14638,0 0.21957,0.07323 0.0732,0.07323 0.14638,0.109847 0.0732,0 0.14638,0.03662 0.0732,0.03662 0.10979,0.03662 0.18298,0.183077 0.25617,0.292924 0.10978,0.07323 0.18298,0.109846 0.10978,0.07323 0.25616,0.109847 0.14639,0 0.25617,0.07323 0.25617,0.07323 0.54894,0.256309 0.29276,0.146462 0.69531,0.183077 0.10979,0.109847 0.21957,0.183078 0.14639,0.07323 0.29277,0.183077 0.0732,0.07323 0.18298,0.146462 0.10978,0.07323 0.25616,0.146463 0.32936,0.183077 0.40255,0.256308 0.0732,0.03662 0.18298,0.03662 0.29277,0.32954 0.36596,0.402771 0.0732,0.03662 0.18298,0.146462 0.18297,0.256309 0.25616,0.292925 0.0732,0.03661 0.10979,0.07323 0.10979,0.183077 0.18298,0.329539 0.0732,0.109847 0.25617,0.256309 0.10978,0.07323 0.21957,0.256309 0.14638,0.183077 0.21957,0.329539 l 0.29277,0.292924 q 0.14638,0.146462 0.29276,0.366156 0.18298,0.183077 0.29277,0.40277 0.10978,0.292924 0.18297,0.402771 0.0732,0.109847 0.10979,0.183078 0.0366,0.109846 0.0366,0.219693 0.0366,0.109846 0.10979,0.183077 0.0732,0.07323 0.14638,0.146462 0.0732,0.03662 0.14639,0.183078 0.10978,0.292924 0.18297,0.366156 0.0732,0.07323 0.0732,0.146462 0.0366,0.292924 0.0732,0.439386 0.0366,0.109847 0.0366,0.146463 0.0732,0.146462 0.10979,0.256308 0.0366,0.109847 0.0732,0.219693 0.0366,0.219693 -0.0366,0.439386 -0.0366,0.183078 0.14639,0.366156 -0.0732,0.256308 0,0.476001 0.0732,0.219693 0.0732,0.476001 z m -4.68423,-0.476002 q -0.0732,-0.219693 -0.10979,-0.329539 0,-0.109847 -0.0732,-0.256309 -0.0732,-0.256309 -0.18298,-0.476002 -0.0732,-0.256308 -0.0732,-0.512617 -0.32936,-0.32954 -0.36595,-0.695695 -0.21957,-0.146462 -0.32936,-0.366156 -0.10979,-0.219693 -0.25617,-0.402771 -0.14638,-0.183077 -0.29276,-0.366155 -0.14639,-0.183077 -0.21958,-0.402771 -0.29276,-0.146462 -0.54893,-0.366155 -0.21957,-0.219693 -0.36596,-0.40277 -0.18297,-0.109847 -0.25616,-0.183078 -0.0732,-0.109847 -0.14639,-0.183078 -0.36595,-0.183077 -0.47574,-0.219693 -0.10978,-0.03662 -0.18298,-0.109846 -0.29276,-0.183078 -0.43914,-0.146462 -0.14638,0 -0.21957,-0.146462 -0.43915,0.07323 -0.95149,0.03662 -0.51234,-0.07323 -0.91489,0.03662 -0.10978,-0.07323 -0.21957,-0.109847 -0.10979,-0.07323 -0.18298,-0.183078 -0.10978,-0.07323 -0.21957,-0.146462 -0.0732,-0.109846 -0.25617,-0.07323 -0.43914,0.183078 -0.54893,0.219693 -0.0732,0 -0.21957,0.146463 -0.18298,0.146462 -0.21958,0.219693 -0.0366,0.03661 -0.0732,0.07323 -0.18298,0.07323 -0.29276,0.146462 -0.0732,0.03662 -0.14638,0.07323 -0.29277,0.292924 -0.65872,0.366155 -0.32936,0.03662 -0.51234,0.32954 -0.14638,-0.07323 -0.21957,0.03662 -0.0366,0.07323 -0.21958,0.07323 -0.0732,0.183078 -0.21957,0.292924 -0.14638,0.109847 -0.25617,0.183078 -0.10979,0.07323 -0.21957,0.183078 -0.0732,0.109846 -0.21958,0.03662 -0.0366,0.219693 -0.18297,0.366155 -0.10979,0.109847 -0.29277,0.183078 0,0.183077 -0.14638,0.292924 -0.14638,0.07323 -0.14638,0.329541 -0.29277,0.329539 -0.40255,0.476001 -0.0732,0.146462 -0.14638,0.32954 -0.10979,0.292924 -0.32936,0.585848 -0.18298,0.256309 -0.10979,0.549233 -0.0732,0.439386 -0.14638,0.768926 -0.0732,0.32954 -0.0366,0.695695 0,0.146462 0.0366,0.292924 0.0732,0.109847 0.0732,0.219693 0,0.146462 -0.0366,0.256309 -0.0366,0.07323 -0.0366,0.183077 0,0.292925 0.0732,0.549234 0.0732,0.256309 0.0732,0.549233 0,0.146462 -0.0732,0.292924 -0.0366,0.109847 0,0.292924 0.14638,0.256309 0.25617,0.512617 0.10978,0.256309 0.18297,0.549233 0.25617,0.183078 0.40256,0.476002 0.14638,0.256309 0.21957,0.549233 0.25617,0.146462 0.36595,0.329539 0.14639,0.146462 0.32936,0.32954 0.40255,0.07323 0.8417,0.183078 0.43915,0.07323 0.65872,0.219694 0.21957,0.146462 0.25617,0.219693 0.0732,0.07323 0.14638,0.109846 0.58553,0.183078 0.95148,0.183078 0.40255,-0.03662 0.80511,0.03662 0.32936,0.183077 0.43914,0.219693 0.10979,0 0.18298,0.03661 0.29276,0.07323 0.47574,0.03662 0.21957,-0.07323 0.40255,-0.07323 0.29277,0.07323 0.36596,0.03661 0.0732,-0.07323 0.14638,-0.07323 0.14638,-0.03661 0.25617,0 0.14638,0.03662 0.21957,0 0.36596,-0.146462 0.51234,-0.183077 0.18298,-0.03662 0.29276,-0.109847 0.40255,-0.109847 0.76851,-0.219693 0.36595,-0.109847 0.65872,-0.366156 0.29276,-0.03662 0.47574,-0.183078 0.18298,-0.183078 0.51234,-0.146462 -0.0366,-0.183078 0.0732,-0.219693 0.10978,-0.07323 0.18297,-0.183078 0.14639,-0.03662 0.18298,-0.146462 0.0732,-0.109846 0.21958,-0.146462 0.0732,-0.292924 0.21957,-0.439386 0.18298,-0.146462 0.29276,-0.366155 0.10979,-0.32954 0.25617,-0.512617 0.18298,-0.183078 0.25617,-0.366156 0.0732,-0.219693 0.0366,-0.439386 0,-0.256309 0.0366,-0.476002 0.0366,-0.219693 0.10979,-0.439386 0.0732,-0.219693 0.0732,-0.476002 0.0732,-0.476002 0.10979,-1.098466 0.0366,-0.659079 -0.0366,-0.952004 z m 11.56417,-12.705587 q -0.10978,0.07323 -0.10978,0.256308 0,0.146462 -0.14639,0.219693 0.0732,0.292924 0,0.659081 -0.0366,0.329539 -0.0732,0.73231 -0.0366,0.146462 -0.0366,0.366155 0.0366,0.183078 0,0.366155 0,0.292924 -0.10979,0.549233 -0.0732,0.219693 -0.0732,0.402771 0.0366,0.219693 0.0732,0.402771 0.0366,0.146462 0.10979,0.329539 -0.0732,0.183078 -0.10979,0.476002 0,0.256309 -0.18298,0.366155 -0.0366,0.476003 -0.29275,0.768927 -0.25617,0.03662 -0.32936,0.03662 -0.0732,0 -0.25617,-0.109846 -0.21957,0.109846 -0.29276,0.07323 -0.0732,-0.03662 -0.25617,0.03662 -0.18298,0.07323 -0.29277,0.183078 -0.0732,0.07323 -0.25616,0.07323 -0.18298,-0.146462 -0.29277,-0.146462 -0.10978,-0.03662 -0.18298,-0.07323 -0.10978,-0.07323 -0.14638,-0.256309 -0.0366,-0.183078 -0.21957,-0.109846 -0.0366,-0.292925 -0.18298,-0.402772 -0.14638,-0.146462 -0.21957,-0.402771 0.0732,-0.366155 0.0366,-0.768925 0,-0.402771 -0.18297,-0.695695 0.14638,-0.402771 0.0366,-0.842157 -0.0732,-0.476002 0,-0.988619 0,-0.146462 0.0366,-0.256309 0.0366,-0.146462 0.0366,-0.292924 0,-0.292925 -0.0732,-0.512618 -0.0732,-0.256309 -0.10978,-0.476002 0,-0.146462 0,-0.256309 0.0366,-0.109846 0.0366,-0.219693 -0.0366,-0.256308 -0.0732,-0.439386 -0.0366,-0.183078 0.0366,-0.366155 0.0366,-0.183078 0.10978,-0.292924 0.0732,-0.109847 0.18298,-0.256309 -0.25617,-0.622464 -0.32936,-1.135081 -0.0366,-0.512617 -0.10979,-0.915389 0.0732,-0.256309 0.21958,-0.366155 0.18297,-0.146462 0.32936,-0.32954 0.18297,-0.03661 0.25616,0.07323 0.0732,0.07323 0.14639,0.146462 0.14638,-0.146462 0.25617,-0.03662 0.10978,0.07323 0.25616,0.03662 0.40255,-0.146462 0.54894,-0.109846 0.14638,0.03662 0.32936,-0.146462 1.28083,-0.219693 1.75657,0.40277 0.14638,0.512618 0.14638,1.061851 0,0.512618 -0.0366,1.06185 -0.0366,0.549233 -0.0732,1.098466 0,0.549233 0.10978,1.025235 z m 16.76075,7.176643 q -0.21957,0.256309 -0.29276,0.256309 -0.0366,0 -0.10979,0.07323 -0.43915,0.256308 -0.47574,0.219693 -0.29277,-0.03662 -0.40255,-0.292924 -0.10979,-0.256309 -0.40255,-0.402771 -0.18298,0.07323 -0.36596,0.03662 -0.18298,-0.03662 -0.36595,0 -0.18298,0.03662 -0.32936,0.109846 -0.14639,0.07323 -0.32936,0.146462 -0.51234,0.183078 -0.69532,0.292924 -0.18298,0.07323 -0.36595,0.183078 -0.14639,0.146462 -0.21958,0.292924 -0.0732,0.109847 -0.25617,0.292924 -0.21957,0.183078 -0.51233,0.366155 -0.25617,0.146462 -0.43915,0.32954 -0.0732,0.109847 -0.10979,0.292924 -0.0366,0.146462 -0.14638,0.292924 -0.25617,0.219693 -0.29276,0.292925 -0.0366,0.07323 -0.0732,0.109846 -0.10979,0.183079 -0.10979,0.292925 0.0366,0.109847 0,0.183078 -0.0366,0.07323 -0.14638,0.256308 -0.10979,0.146463 -0.0366,0.366156 -0.21957,0.292924 -0.21957,0.439386 0,0.109846 -0.0366,0.183077 -0.18297,0.183078 -0.21957,0.32954 0,0.109847 -0.0732,0.219693 -0.18298,0.32954 -0.18298,0.512617 0.0366,0.146463 0,0.292925 -0.10978,0.40277 -0.10978,0.622463 0,0.183078 -0.0366,0.366156 -0.0366,0.256308 -0.10979,0.512617 -0.0732,0.219694 -0.14638,0.512618 -0.0366,0.183078 0,0.402771 0.0366,0.183077 -0.0366,0.439386 0,0.109847 -0.0732,0.219693 -0.0366,0.109847 -0.0366,0.292924 -0.0366,0.292924 0.0366,0.549233 0.0732,0.256309 -0.18298,0.476002 0.10978,0.219693 0.10978,0.659079 0.0366,0.402771 -0.14638,0.585848 0.14638,0.402771 0.10979,0.878774 0,0.476002 -0.0366,0.988619 -0.0366,0.476002 -0.0732,0.988619 0,0.476002 0.10979,0.915388 0.0732,0.256308 0.32936,0.292924 0.25617,0 0.43914,0.146462 0,0.109847 0.0732,0.219693 0.10978,0.07323 0.18297,0.256309 0.0366,0.256308 -0.14638,0.512618 -0.18298,0.256309 -0.36595,0.32954 -0.14639,0.07323 -0.29277,0 -0.14638,-0.03662 -0.43914,0.03661 -0.14639,0.03662 -0.32936,0.109847 -0.18298,0.109846 -0.36596,0.183077 -0.29276,0.109847 -0.69531,0.183078 -0.40255,0.109846 -0.80511,0.183078 -0.18297,0.03662 -0.36595,0.03662 -0.18298,0.03662 -0.36596,0.07323 -0.21957,0.07323 -0.43914,0.146462 -0.21958,0.109847 -0.40255,0.07323 -0.36596,-0.07323 -0.51234,-0.402771 -0.14638,-0.329539 -0.14638,-0.73231 0,-0.183077 0.0366,-0.366156 0.0732,-0.146462 0.0366,-0.32954 0,-0.183077 -0.0732,-0.329539 -0.0366,-0.183078 -0.0732,-0.366156 -0.0732,-0.476001 -0.0366,-0.952003 0.0366,-0.512617 0.0366,-1.025235 0,-0.146462 0.0366,-0.256308 0.0366,-0.146462 0.0366,-0.256309 -0.0366,-0.146462 -0.0732,-0.256308 -0.0366,-0.146463 -0.0366,-0.292925 -0.0732,-0.292924 -0.10979,-0.512618 -0.0366,-0.219693 -0.0732,-0.549233 0,-0.109846 -0.0366,-0.256308 0,-0.146462 0,-0.256309 0,-0.256309 0.0366,-0.439386 0.0732,-0.219693 0.10979,-0.439386 -0.0732,-0.402771 -0.0366,-0.732311 0.0732,-0.329539 0.0732,-0.585848 -0.0366,-0.219693 -0.10979,-0.439386 -0.0366,-0.219693 -0.0732,-0.439386 0,-0.109847 0,-0.256309 0.0366,-0.183079 0.0366,-0.219694 -0.10978,-0.476002 -0.14638,-0.768926 0,-0.292924 -0.0366,-0.476002 -0.0366,-0.40277 0,-0.549233 0.0732,-0.183077 0.10978,-0.366155 0.0732,-0.366155 0,-0.73231 -0.0366,-0.402771 0,-0.768926 0.0366,-0.292924 0.10979,-0.549233 0.10979,-0.256308 0.10979,-0.549234 0,-0.109846 -0.0366,-0.219693 0,-0.146462 0,-0.256308 0,-0.109847 0.0366,-0.219693 0.0366,-0.146462 0.0366,-0.256309 -0.0366,-0.07323 -0.0732,-0.183078 -0.0366,-0.146462 -0.0366,-0.256308 -0.0732,-0.256309 0,-0.476002 0.0732,-0.256309 0.0732,-0.549233 0,-0.183077 -0.0366,-0.366155 -0.0366,-0.183078 -0.0732,-0.366155 0,-0.07323 0,-0.183078 0.0366,-0.146462 0,-0.219693 -0.0732,-0.366155 -0.0366,-0.585848 0.0732,-0.25631 0.0732,-0.476003 0,-0.292924 -0.0366,-0.549233 -0.0366,-0.256308 0.10979,-0.549232 0,-0.183078 -0.10979,-0.292925 -0.10979,-0.146462 -0.18298,-0.292924 0.14638,-0.292924 0.0366,-0.585848 -0.0732,-0.292924 0,-0.585848 0.29276,-0.292924 0.58553,-0.256309 0.29276,0 0.40255,0.183078 0.10978,0.146462 0.25616,0.256308 0.40256,0.109847 0.73191,0.07323 0.32936,-0.07323 0.73192,-0.07323 0.21957,0 0.40255,0.03662 0.21957,0.03662 0.40255,0.03662 0.29276,-0.03662 0.51233,-0.146462 0.25617,-0.146462 0.69532,0 0.14638,0.07323 0.14638,0.219693 0.0366,0.109847 0.14638,0.292925 0.0366,0.292924 0.0732,0.366155 0.0366,0.03662 0.0366,0.109846 -0.0732,0.32954 -0.14638,0.622464 -0.0732,0.292924 0.0366,0.659079 0.21958,0 0.32936,-0.109846 0.14638,-0.146462 0.29277,-0.292924 0.0732,-0.07323 0.14638,-0.146462 0.10979,-0.109847 0.18298,-0.183078 0.29276,-0.256309 0.40255,-0.402771 0.14638,-0.146462 0.25617,-0.219693 0.10978,-0.109846 0.25616,-0.183077 0.14639,-0.07323 0.21958,-0.219693 0.32936,-0.07323 0.65872,-0.256309 0.32936,-0.219693 0.73191,-0.07323 0.18297,-0.183078 0.54893,-0.292924 0.40255,-0.146462 0.62212,0.07323 0.69532,0 1.20766,-0.219693 0.51233,-0.219693 0.95148,-0.109847 0.18298,0.03662 0.25617,0.146462 0.10978,0.07323 0.25617,0.146462 0.10978,0.03662 0.21957,0.07323 0.14638,0.03662 0.25617,0.109847 0.25617,0.402771 0.14638,0.878772 -0.0732,0.439387 -0.10979,0.915388 0.0366,0.439386 0,0.65908 -0.0366,0.219693 -0.0366,0.40277 0,0.402772 0.0366,0.842158 0.0366,0.402771 0.0366,0.842157 z"
       id="text1"
       style="font-size:37.4841px;font-family:'Chelsea Market';-inkscape-font-specification:'Chelsea Market';stroke-width:1.32292"
       aria-label="pepp'r" />
  </g>
</svg>
